<svg id="svg" version="1.1" xmlns="http://www.w3.org/2000/svg" xmlns:xlink="http://www.w3.org/1999/xlink" width="400" height="400" viewBox="0, 0, 400,400"><g id="svgg"><path id="path0" d="M100.222 100.220 C 45.540 154.902,0.801 199.857,0.803 200.120 C 0.808 200.864,199.340 399.200,200.080 399.200 C 200.793 399.200,398.441 201.774,398.085 201.418 C 397.655 200.989,303.180 201.182,302.374 201.614 C 301.948 201.842,301.600 202.199,301.600 202.409 C 301.600 202.867,203.252 301.320,202.397 301.717 C 202.069 301.870,201.480 302.221,201.089 302.497 C 200.610 302.835,200.283 302.865,200.089 302.586 C 199.930 302.359,199.260 301.770,198.600 301.278 C 197.045 300.119,100.687 203.863,99.159 201.942 C 98.522 201.141,98.000 200.173,98.000 199.792 C 98.000 198.507,199.344 97.200,200.630 97.200 C 201.421 97.200,208.822 104.471,253.051 148.700 L 302.351 198.000 350.065 198.000 L 397.779 198.000 299.190 99.404 C 244.965 45.176,200.385 0.806,200.122 0.804 C 199.859 0.802,154.904 45.539,100.222 100.220 M195.992 55.800 L 195.996 96.200 146.063 146.100 L 96.129 196.000 55.488 196.000 C 31.669 196.000,14.755 195.850,14.623 195.638 C 14.500 195.439,55.106 154.566,104.859 104.809 C 169.669 39.993,195.413 14.493,195.653 14.871 C 195.837 15.162,195.990 33.580,195.992 55.800 M148.400 160.394 C 148.400 160.611,150.772 163.131,153.670 165.994 L 158.940 171.200 169.274 171.200 L 179.607 171.200 185.004 165.804 C 187.972 162.836,190.400 160.316,190.400 160.204 C 190.400 160.092,180.950 160.000,169.400 160.000 C 155.872 160.000,148.400 160.140,148.400 160.394 M209.209 160.300 C 209.214 160.465,211.620 162.985,214.556 165.900 L 219.894 171.200 230.309 171.200 L 240.725 171.200 245.962 165.962 C 248.843 163.082,251.200 160.562,251.200 160.362 C 251.200 160.151,242.475 160.000,230.200 160.000 C 218.650 160.000,209.204 160.135,209.209 160.300 M145.200 176.821 L 145.200 191.030 147.114 192.915 C 149.536 195.301,149.264 195.358,152.909 191.691 L 156.000 188.582 156.000 180.986 L 156.000 173.389 150.600 168.000 L 145.200 162.611 145.200 176.821 M191.934 163.920 C 191.600 164.294,189.228 166.641,186.663 169.135 L 182.000 173.669 182.000 180.944 L 182.000 188.218 185.308 191.509 C 189.193 195.373,188.886 195.299,191.300 192.952 L 193.200 191.105 193.200 177.376 C 193.200 163.722,193.097 162.622,191.934 163.920 M248.500 168.412 L 243.200 173.598 243.200 181.108 L 243.200 188.618 246.508 191.909 C 250.416 195.796,249.987 195.703,252.440 193.198 L 254.400 191.196 254.400 177.198 C 254.400 169.499,254.265 163.206,254.100 163.213 C 253.935 163.220,251.415 165.559,248.500 168.412 M215.800 194.800 L 213.022 197.599 215.600 200.200 L 218.177 202.800 230.240 202.800 L 242.303 202.800 244.999 200.157 L 247.694 197.515 244.958 194.757 L 242.221 192.000 230.400 192.000 L 218.579 192.000 215.800 194.800 M147.085 202.714 L 145.200 204.627 145.200 219.096 L 145.200 233.564 150.600 228.207 L 156.000 222.851 156.000 215.073 L 156.000 207.295 152.947 204.047 C 149.359 200.230,149.500 200.262,147.085 202.714 M185.300 204.120 L 182.000 207.413 182.000 215.073 L 182.000 222.732 187.231 227.666 C 190.109 230.380,192.629 232.660,192.831 232.733 C 193.052 232.813,193.200 227.217,193.200 218.816 L 193.200 204.766 191.345 202.783 C 188.996 200.271,189.204 200.225,185.300 204.120 M208.300 202.737 L 206.400 204.673 206.400 219.084 L 206.400 233.495 211.800 228.076 L 217.200 222.657 217.200 215.020 L 217.200 207.382 213.892 204.091 C 209.983 200.203,210.633 200.360,208.300 202.737 M146.200 254.076 C 173.920 281.827,196.285 304.419,195.900 304.279 C 195.236 304.038,195.200 306.128,195.200 344.613 C 195.200 366.936,195.064 385.200,194.899 385.200 C 194.333 385.200,13.568 204.165,13.851 203.882 C 14.006 203.727,32.508 203.604,54.967 203.610 L 95.800 203.619 146.200 254.076 M153.200 230.600 L 147.811 236.000 169.200 236.000 L 190.589 236.000 185.200 230.600 L 179.811 225.200 169.200 225.200 L 158.589 225.200 153.200 230.600 M214.400 230.600 L 209.011 236.000 230.336 236.000 L 251.661 236.000 246.280 230.600 L 240.899 225.200 230.344 225.200 L 219.789 225.200 214.400 230.600 " stroke="none" fill="#0cb39b" fill-rule="evenodd"></path><path id="path1" d="M199.428 0.290 C 198.113 0.625,-0.000 199.019,0.000 200.001 C 0.000 201.229,198.783 400.000,200.011 400.000 C 200.969 400.000,399.401 201.934,398.922 201.456 C 398.782 201.315,398.487 201.200,398.267 201.200 C 398.047 201.200,397.965 201.298,398.085 201.418 C 398.441 201.774,200.793 399.200,200.080 399.200 C 199.340 399.200,0.808 200.864,0.803 200.120 C 0.799 199.503,199.490 0.800,200.111 0.800 C 200.367 0.800,244.903 45.125,299.079 99.300 L 397.580 197.800 349.690 198.002 L 301.800 198.205 349.600 198.296 C 377.343 198.349,397.638 198.237,397.968 198.028 C 398.530 197.673,201.335 -0.066,200.531 0.046 C 200.349 0.072,199.853 0.181,199.428 0.290 M195.698 55.574 L 195.600 96.148 194.711 97.174 L 193.823 98.200 194.913 97.189 L 196.004 96.178 195.900 55.589 L 195.796 15.000 195.698 55.574 M189.646 19.819 C 189.121 20.373,188.761 20.889,188.846 20.967 C 188.931 21.045,189.506 20.589,190.125 19.954 C 190.744 19.319,191.104 18.803,190.925 18.807 C 190.746 18.811,190.171 19.266,189.646 19.819 M129.893 79.600 C 129.516 80.040,129.346 80.400,129.515 80.400 C 129.684 80.400,130.130 80.040,130.507 79.600 C 130.884 79.160,131.054 78.800,130.885 78.800 C 130.716 78.800,130.270 79.160,129.893 79.600 M109.646 99.819 C 109.121 100.373,108.761 100.889,108.846 100.967 C 108.931 101.045,109.506 100.589,110.125 99.954 C 110.744 99.319,111.104 98.803,110.925 98.807 C 110.746 98.811,110.171 99.266,109.646 99.819 M163.578 128.300 L 162.200 129.800 163.700 128.422 C 164.525 127.663,165.200 126.988,165.200 126.922 C 165.200 126.616,164.862 126.904,163.578 128.300 M160.181 131.700 L 158.600 133.400 160.300 131.819 C 161.881 130.348,162.184 130.000,161.881 130.000 C 161.816 130.000,161.051 130.765,160.181 131.700 M155.781 136.100 L 154.200 137.800 155.900 136.219 C 157.481 134.748,157.784 134.400,157.481 134.400 C 157.416 134.400,156.651 135.165,155.781 136.100 M147.978 143.900 L 146.600 145.400 148.100 144.022 C 148.925 143.263,149.600 142.588,149.600 142.522 C 149.600 142.216,149.262 142.504,147.978 143.900 M144.185 147.700 L 142.200 149.800 144.300 147.815 C 145.455 146.723,146.400 145.778,146.400 145.715 C 146.400 145.417,146.029 145.749,144.185 147.700 M140.181 151.700 L 138.600 153.400 140.300 151.819 C 141.881 150.348,142.184 150.000,141.881 150.000 C 141.816 150.000,141.051 150.765,140.181 151.700 M132.985 158.900 L 131.000 161.000 133.100 159.015 C 134.255 157.923,135.200 156.978,135.200 156.915 C 135.200 156.617,134.829 156.949,132.985 158.900 M128.585 163.300 L 126.600 165.400 128.700 163.415 C 130.651 161.571,130.983 161.200,130.685 161.200 C 130.622 161.200,129.677 162.145,128.585 163.300 M124.778 167.100 L 123.400 168.600 124.900 167.222 C 125.725 166.463,126.400 165.788,126.400 165.722 C 126.400 165.416,126.062 165.704,124.778 167.100 M116.778 175.100 L 115.400 176.600 116.900 175.222 C 117.725 174.463,118.400 173.788,118.400 173.722 C 118.400 173.416,118.062 173.704,116.778 175.100 M156.166 180.800 C 156.166 184.870,156.225 186.535,156.298 184.500 C 156.371 182.465,156.371 179.135,156.298 177.100 C 156.225 175.065,156.166 176.730,156.166 180.800 M112.985 178.900 L 111.000 181.000 113.100 179.015 C 114.255 177.923,115.200 176.978,115.200 176.915 C 115.200 176.617,114.829 176.949,112.985 178.900 M109.178 182.700 L 107.800 184.200 109.300 182.822 C 110.125 182.063,110.800 181.388,110.800 181.322 C 110.800 181.016,110.462 181.304,109.178 182.700 M104.778 187.100 L 103.400 188.600 104.900 187.222 C 105.725 186.463,106.400 185.788,106.400 185.722 C 106.400 185.416,106.062 185.704,104.778 187.100 M101.200 190.600 C 100.228 191.590,99.523 192.400,99.633 192.400 C 99.743 192.400,100.628 191.590,101.600 190.600 C 102.572 189.610,103.277 188.800,103.167 188.800 C 103.057 188.800,102.172 189.610,101.200 190.600 M147.086 193.199 C 148.233 194.389,149.231 195.280,149.303 195.181 C 149.376 195.081,148.437 194.108,147.218 193.018 L 145.000 191.036 147.086 193.199 M230.400 202.800 L 218.200 203.018 230.276 203.109 C 237.996 203.167,242.442 203.056,242.600 202.800 C 242.736 202.580,242.792 202.441,242.724 202.491 C 242.656 202.541,237.110 202.680,230.400 202.800 M96.800 204.925 C 96.800 204.994,97.385 205.579,98.100 206.225 L 99.400 207.400 98.225 206.100 C 97.130 204.888,96.800 204.616,96.800 204.925 M101.400 209.600 C 102.483 210.700,103.460 211.600,103.570 211.600 C 103.680 211.600,102.883 210.700,101.800 209.600 C 100.717 208.500,99.740 207.600,99.630 207.600 C 99.520 207.600,100.317 208.500,101.400 209.600 M156.167 215.000 C 156.167 219.180,156.226 220.836,156.298 218.679 C 156.371 216.523,156.370 213.103,156.298 211.079 C 156.225 209.056,156.166 210.820,156.167 215.000 M105.200 213.400 C 105.946 214.170,106.647 214.800,106.757 214.800 C 106.867 214.800,106.346 214.170,105.600 213.400 C 104.854 212.630,104.153 212.000,104.043 212.000 C 103.933 212.000,104.454 212.630,105.200 213.400 M109.000 217.200 C 110.083 218.300,111.060 219.200,111.170 219.200 C 111.280 219.200,110.483 218.300,109.400 217.200 C 108.317 216.100,107.340 215.200,107.230 215.200 C 107.120 215.200,107.917 216.100,109.000 217.200 M115.200 223.400 C 117.281 225.490,119.074 227.200,119.184 227.200 C 119.294 227.200,117.681 225.490,115.600 223.400 C 113.519 221.310,111.726 219.600,111.616 219.600 C 111.506 219.600,113.119 221.310,115.200 223.400 M119.600 227.725 C 119.600 227.794,120.185 228.379,120.900 229.025 L 122.200 230.200 121.025 228.900 C 119.930 227.688,119.600 227.416,119.600 227.725 M189.400 230.000 C 190.259 230.880,191.052 231.600,191.162 231.600 C 191.272 231.600,190.659 230.880,189.800 230.000 C 188.941 229.120,188.148 228.400,188.038 228.400 C 187.928 228.400,188.541 229.120,189.400 230.000 M132.400 240.600 C 133.146 241.370,133.847 242.000,133.957 242.000 C 134.067 242.000,133.546 241.370,132.800 240.600 C 132.054 239.830,131.353 239.200,131.243 239.200 C 131.133 239.200,131.654 239.830,132.400 240.600 M139.200 247.325 C 139.200 247.394,139.785 247.979,140.500 248.625 L 141.800 249.800 140.625 248.500 C 139.530 247.288,139.200 247.016,139.200 247.325 M148.000 256.200 C 148.746 256.970,149.447 257.600,149.557 257.600 C 149.667 257.600,149.146 256.970,148.400 256.200 C 147.654 255.430,146.953 254.800,146.843 254.800 C 146.733 254.800,147.254 255.430,148.000 256.200 M154.434 262.700 C 154.452 262.865,155.217 263.622,156.134 264.382 L 157.800 265.763 156.219 264.082 C 154.593 262.352,154.376 262.184,154.434 262.700 M163.600 271.800 C 164.346 272.570,165.047 273.200,165.157 273.200 C 165.267 273.200,164.746 272.570,164.000 271.800 C 163.254 271.030,162.553 270.400,162.443 270.400 C 162.333 270.400,162.854 271.030,163.600 271.800 M170.035 278.500 C 170.128 278.555,170.833 279.140,171.602 279.800 L 173.000 281.000 171.825 279.700 C 171.179 278.985,170.474 278.400,170.258 278.400 C 170.043 278.400,169.943 278.445,170.035 278.500 M179.400 287.600 C 180.259 288.480,181.052 289.200,181.162 289.200 C 181.272 289.200,180.659 288.480,179.800 287.600 C 178.941 286.720,178.148 286.000,178.038 286.000 C 177.928 286.000,178.541 286.720,179.400 287.600 M185.200 293.400 C 187.281 295.490,189.074 297.200,189.184 297.200 C 189.294 297.200,187.681 295.490,185.600 293.400 C 183.519 291.310,181.726 289.600,181.616 289.600 C 181.506 289.600,183.119 291.310,185.200 293.400 M190.800 299.000 C 191.546 299.770,192.247 300.400,192.357 300.400 C 192.467 300.400,191.946 299.770,191.200 299.000 C 190.454 298.230,189.753 297.600,189.643 297.600 C 189.533 297.600,190.054 298.230,190.800 299.000 M194.195 302.400 C 195.604 304.030,196.400 304.722,196.400 304.317 C 196.400 304.234,195.554 303.364,194.520 302.383 L 192.639 300.600 194.195 302.400 " stroke="none" fill="#818584" fill-rule="evenodd"></path><path id="path2" d="M105.000 105.600 L 15.001 195.600 55.296 195.600 L 95.591 195.600 145.396 145.863 L 195.200 96.126 195.200 55.863 C 195.200 33.718,195.155 15.600,195.100 15.600 C 195.044 15.600,154.500 56.100,105.000 105.600 M198.883 99.205 C 197.938 100.082,197.074 100.800,196.964 100.800 C 196.776 100.800,195.910 101.689,194.364 103.468 C 194.014 103.871,193.069 104.770,192.264 105.466 C 191.459 106.162,190.800 106.850,190.800 106.994 C 190.800 107.345,189.731 108.400,189.376 108.400 C 188.969 108.400,186.400 111.188,186.400 111.628 C 186.400 111.833,186.235 112.000,186.032 112.000 C 185.547 112.000,178.800 118.740,178.800 119.225 C 178.800 119.431,178.665 119.601,178.500 119.602 C 178.018 119.605,175.200 122.318,175.200 122.780 C 175.200 123.011,175.038 123.200,174.840 123.200 C 174.388 123.200,170.800 126.812,170.800 127.266 C 170.800 127.450,170.619 127.600,170.398 127.600 C 169.900 127.600,163.200 134.336,163.200 134.836 C 163.200 135.036,163.065 135.201,162.900 135.202 C 162.525 135.204,159.600 137.869,159.600 138.208 C 159.600 138.531,158.531 139.600,158.208 139.600 C 157.869 139.600,155.204 142.525,155.202 142.900 C 155.201 143.065,155.014 143.200,154.787 143.200 C 154.269 143.200,152.000 145.491,152.000 146.014 C 152.000 146.226,151.861 146.400,151.691 146.400 C 151.175 146.400,147.600 149.840,147.600 150.336 C 147.600 150.591,147.465 150.801,147.300 150.802 C 146.925 150.804,144.000 153.469,144.000 153.808 C 144.000 154.120,142.936 155.200,142.629 155.200 C 142.285 155.200,140.941 156.612,140.181 157.773 C 139.811 158.338,139.343 158.800,139.141 158.800 C 138.657 158.800,136.400 161.117,136.400 161.614 C 136.400 161.826,136.258 162.000,136.085 162.000 C 135.600 162.000,132.000 165.508,132.000 165.981 C 132.000 166.211,131.833 166.400,131.628 166.400 C 131.084 166.400,128.400 169.017,128.400 169.547 C 128.400 169.796,128.248 170.000,128.061 170.000 C 127.720 170.000,125.708 171.878,124.161 173.643 C 123.699 174.169,122.762 175.050,122.078 175.600 C 121.394 176.150,120.826 176.748,120.817 176.929 C 120.795 177.354,119.749 178.400,119.346 178.400 C 118.974 178.400,116.419 181.270,116.408 181.700 C 116.403 181.865,116.231 182.000,116.026 182.000 C 115.724 182.000,109.992 187.600,108.153 189.692 C 107.907 189.971,107.150 190.650,106.470 191.200 C 105.790 191.750,105.226 192.425,105.217 192.700 C 105.208 192.975,105.034 193.200,104.832 193.200 C 104.463 193.200,102.539 195.145,99.804 198.284 L 98.336 199.968 99.668 201.666 C 101.245 203.677,197.435 300.000,197.866 300.000 C 198.029 300.000,198.767 300.585,199.507 301.300 C 200.723 302.476,200.889 302.533,201.246 301.900 C 201.462 301.515,201.819 301.200,202.037 301.200 C 202.487 301.200,299.546 204.188,301.400 201.884 L 302.600 200.394 351.300 200.497 C 388.234 200.575,400.000 200.487,400.000 200.133 C 400.000 198.546,401.691 198.595,350.757 198.705 L 301.923 198.809 301.061 197.713 C 299.218 195.365,201.085 97.543,200.636 97.605 C 200.616 97.608,199.827 98.328,198.883 99.205 M190.800 159.995 C 191.281 160.302,190.289 161.492,185.805 165.989 L 180.211 171.600 169.272 171.600 L 158.333 171.600 152.767 166.051 C 146.810 160.113,146.841 160.152,147.900 159.876 C 149.332 159.502,190.205 159.615,190.800 159.995 M251.738 159.947 C 252.356 160.190,251.550 161.169,246.825 165.919 L 241.173 171.600 230.281 171.600 L 219.390 171.600 213.640 165.840 C 209.047 161.239,208.042 160.041,208.645 159.886 C 209.872 159.572,250.932 159.629,251.738 159.947 M151.171 167.734 L 156.800 173.269 156.800 180.961 L 156.800 188.653 152.991 192.388 L 149.182 196.123 146.991 193.879 L 144.800 191.635 144.800 177.084 C 144.800 164.483,144.922 161.608,145.438 162.100 C 145.496 162.155,148.076 164.690,151.171 167.734 M193.600 176.965 L 193.600 191.531 191.337 193.776 L 189.074 196.021 185.337 192.317 L 181.600 188.613 181.600 180.954 L 181.600 173.295 187.100 167.854 C 190.125 164.862,192.825 162.410,193.100 162.407 C 193.491 162.401,193.600 165.576,193.600 176.965 M254.705 177.152 L 254.810 191.637 252.747 193.819 C 250.121 196.596,250.394 196.660,246.074 192.254 L 242.400 188.508 242.400 180.996 L 242.400 173.483 248.100 167.948 C 251.235 164.903,253.980 162.469,254.200 162.539 C 254.454 162.620,254.638 167.940,254.705 177.152 M245.600 194.600 L 248.579 197.599 245.800 200.400 L 243.021 203.200 230.421 203.200 L 217.820 203.200 215.110 200.511 C 211.816 197.242,211.805 197.743,215.248 194.381 L 218.095 191.600 230.358 191.600 L 242.620 191.600 245.600 194.600 M153.348 203.637 L 156.800 207.273 156.800 215.106 L 156.800 222.938 151.135 228.652 C 148.019 231.795,145.319 234.273,145.135 234.160 C 144.951 234.046,144.800 227.211,144.800 218.971 L 144.800 203.990 146.805 201.995 C 149.404 199.410,149.315 199.387,153.348 203.637 M191.529 202.082 L 193.600 204.163 193.600 219.082 C 193.600 229.360,193.468 234.000,193.174 234.000 C 192.940 234.000,190.242 231.525,187.178 228.500 L 181.607 223.000 181.604 215.030 L 181.600 207.060 185.100 203.542 C 189.238 199.384,188.918 199.457,191.529 202.082 M214.052 203.472 L 217.600 206.945 217.600 215.081 L 217.600 223.218 212.184 228.609 C 209.205 231.574,206.505 234.000,206.184 234.000 C 205.683 234.000,205.600 231.928,205.600 219.370 L 205.600 204.741 207.861 202.370 C 210.611 199.487,209.838 199.350,214.052 203.472 M15.070 204.639 C 15.384 205.458,19.117 209.200,19.619 209.200 C 19.829 209.200,20.000 209.356,20.000 209.547 C 20.000 210.016,25.563 215.600,26.030 215.600 C 26.234 215.600,26.400 215.769,26.400 215.976 C 26.400 216.485,29.892 220.000,30.398 220.000 C 30.619 220.000,30.800 220.174,30.800 220.387 C 30.800 220.882,33.506 223.600,33.999 223.600 C 34.204 223.600,34.564 223.958,34.798 224.397 C 35.354 225.435,41.553 231.600,42.042 231.600 C 42.248 231.600,42.613 232.030,42.853 232.556 C 43.092 233.082,43.718 233.708,44.244 233.947 C 44.770 234.187,45.200 234.560,45.200 234.776 C 45.200 235.277,51.539 241.600,52.042 241.600 C 52.248 241.600,52.622 242.050,52.873 242.600 C 53.123 243.150,53.563 243.600,53.850 243.600 C 54.137 243.600,54.562 243.955,54.794 244.389 C 55.352 245.431,59.132 249.200,59.619 249.200 C 59.829 249.200,60.000 249.356,60.000 249.547 C 60.000 250.016,65.563 255.600,66.030 255.600 C 66.234 255.600,66.400 255.769,66.400 255.976 C 66.400 256.485,69.892 260.000,70.398 260.000 C 70.619 260.000,70.800 260.174,70.800 260.387 C 70.800 260.882,73.506 263.600,73.999 263.600 C 74.204 263.600,74.564 263.958,74.798 264.397 C 75.354 265.435,81.553 271.600,82.042 271.600 C 82.248 271.600,82.622 272.050,82.873 272.600 C 83.123 273.150,83.563 273.600,83.850 273.600 C 84.137 273.600,84.558 273.947,84.785 274.372 C 85.350 275.428,89.915 280.000,90.405 280.000 C 90.622 280.000,90.800 280.180,90.800 280.400 C 90.800 280.764,91.760 281.767,95.065 284.862 C 95.689 285.447,96.434 286.167,96.720 286.462 C 97.006 286.758,97.546 287.311,97.920 287.690 C 98.294 288.070,99.797 289.600,101.260 291.090 C 102.723 292.581,104.433 294.278,105.060 294.862 C 105.687 295.447,106.380 296.113,106.600 296.342 C 106.820 296.572,107.360 297.124,107.800 297.569 C 108.240 298.014,110.194 300.003,112.143 301.989 C 114.091 303.975,115.846 305.600,116.043 305.600 C 116.239 305.600,116.400 305.774,116.400 305.987 C 116.400 306.490,119.110 309.200,119.613 309.200 C 119.826 309.200,120.000 309.356,120.000 309.547 C 120.000 310.016,125.563 315.600,126.030 315.600 C 126.234 315.600,126.400 315.776,126.400 315.991 C 126.400 316.487,131.544 321.600,132.044 321.600 C 132.249 321.600,132.622 322.050,132.873 322.600 C 133.123 323.150,133.563 323.600,133.850 323.600 C 134.137 323.600,134.562 323.955,134.794 324.389 C 135.352 325.431,139.132 329.200,139.619 329.200 C 139.829 329.200,140.000 329.356,140.000 329.547 C 140.000 330.016,145.563 335.600,146.030 335.600 C 146.234 335.600,146.400 335.769,146.400 335.976 C 146.400 336.485,149.892 340.000,150.398 340.000 C 150.619 340.000,150.800 340.174,150.800 340.387 C 150.800 340.882,153.506 343.600,153.999 343.600 C 154.204 343.600,154.564 343.958,154.798 344.397 C 155.354 345.435,161.553 351.600,162.042 351.600 C 162.248 351.600,162.622 352.050,162.873 352.600 C 163.123 353.150,163.563 353.600,163.850 353.600 C 164.137 353.600,164.558 353.947,164.785 354.372 C 165.350 355.428,169.915 360.000,170.405 360.000 C 170.622 360.000,170.800 360.180,170.800 360.400 C 170.800 360.764,171.760 361.767,175.065 364.862 C 175.689 365.447,176.407 366.140,176.660 366.402 C 176.913 366.665,177.453 367.218,177.860 367.630 C 178.267 368.043,179.797 369.600,181.260 371.090 C 182.723 372.581,184.433 374.278,185.060 374.862 C 185.687 375.447,186.407 376.140,186.660 376.402 C 187.156 376.917,187.135 376.896,191.600 381.441 L 194.600 384.495 194.702 344.052 L 194.804 303.608 145.011 253.804 L 95.219 204.000 55.022 204.000 C 18.378 204.000,14.847 204.056,15.070 204.639 M185.695 230.295 C 188.723 233.317,191.200 235.927,191.200 236.095 C 191.200 236.263,181.300 236.400,169.200 236.400 C 157.100 236.400,147.200 236.274,147.200 236.120 C 147.200 235.966,149.675 233.360,152.700 230.328 L 158.200 224.815 169.195 224.808 L 180.190 224.800 185.695 230.295 M246.919 230.319 C 249.949 233.355,252.302 235.965,252.147 236.119 C 251.819 236.448,208.640 236.506,208.312 236.178 C 208.190 236.056,210.635 233.451,213.745 230.389 L 219.400 224.822 230.405 224.811 L 241.411 224.800 246.919 230.319 " stroke="none" fill="#041c1c" fill-rule="evenodd"></path><path id="path3" d="M206.000 102.200 C 207.860 104.070,209.472 105.600,209.582 105.600 C 209.692 105.600,208.260 104.070,206.400 102.200 C 204.540 100.330,202.928 98.800,202.818 98.800 C 202.708 98.800,204.140 100.330,206.000 102.200 M193.392 103.700 L 189.800 107.400 193.500 103.808 C 196.936 100.472,197.382 100.000,197.092 100.000 C 197.032 100.000,195.367 101.665,193.392 103.700 M211.200 107.400 C 211.946 108.170,212.647 108.800,212.757 108.800 C 212.867 108.800,212.346 108.170,211.600 107.400 C 210.854 106.630,210.153 106.000,210.043 106.000 C 209.933 106.000,210.454 106.630,211.200 107.400 M181.596 115.480 C 177.528 119.593,175.100 122.158,176.200 121.180 C 178.496 119.136,189.465 108.000,189.181 108.000 C 189.077 108.000,185.664 111.366,181.596 115.480 M219.000 115.200 C 219.859 116.080,220.652 116.800,220.762 116.800 C 220.872 116.800,220.259 116.080,219.400 115.200 C 218.541 114.320,217.748 113.600,217.638 113.600 C 217.528 113.600,218.141 114.320,219.000 115.200 M222.400 118.600 C 223.146 119.370,223.847 120.000,223.957 120.000 C 224.067 120.000,223.546 119.370,222.800 118.600 C 222.054 117.830,221.353 117.200,221.243 117.200 C 221.133 117.200,221.654 117.830,222.400 118.600 M227.800 124.000 C 228.659 124.880,229.452 125.600,229.562 125.600 C 229.672 125.600,229.059 124.880,228.200 124.000 C 227.341 123.120,226.548 122.400,226.438 122.400 C 226.328 122.400,226.941 123.120,227.800 124.000 M172.378 124.700 L 171.000 126.200 172.500 124.822 C 173.325 124.063,174.000 123.388,174.000 123.322 C 174.000 123.016,173.662 123.304,172.378 124.700 M163.392 128.100 L 159.800 131.800 163.500 128.208 C 166.936 124.872,167.382 124.400,167.092 124.400 C 167.032 124.400,165.367 126.065,163.392 128.100 M231.200 127.400 C 231.946 128.170,232.647 128.800,232.757 128.800 C 232.867 128.800,232.346 128.170,231.600 127.400 C 230.854 126.630,230.153 126.000,230.043 126.000 C 229.933 126.000,230.454 126.630,231.200 127.400 M168.400 128.600 C 167.428 129.590,166.723 130.400,166.833 130.400 C 166.943 130.400,167.828 129.590,168.800 128.600 C 169.772 127.610,170.477 126.800,170.367 126.800 C 170.257 126.800,169.372 127.610,168.400 128.600 M235.600 131.800 C 236.346 132.570,237.047 133.200,237.157 133.200 C 237.267 133.200,236.746 132.570,236.000 131.800 C 235.254 131.030,234.553 130.400,234.443 130.400 C 234.333 130.400,234.854 131.030,235.600 131.800 M160.595 136.500 L 155.000 142.200 160.700 136.605 C 165.995 131.408,166.581 130.800,166.295 130.800 C 166.237 130.800,163.672 133.365,160.595 136.500 M155.591 135.900 L 152.200 139.400 155.700 136.009 C 158.951 132.859,159.382 132.400,159.091 132.400 C 159.031 132.400,157.456 133.975,155.591 135.900 M242.400 138.600 C 243.146 139.370,243.847 140.000,243.957 140.000 C 244.067 140.000,243.546 139.370,242.800 138.600 C 242.054 137.830,241.353 137.200,241.243 137.200 C 241.133 137.200,241.654 137.830,242.400 138.600 M147.792 143.700 L 144.200 147.400 147.900 143.808 C 151.336 140.472,151.782 140.000,151.492 140.000 C 151.432 140.000,149.767 141.665,147.792 143.700 M245.600 141.800 C 246.346 142.570,247.047 143.200,247.157 143.200 C 247.267 143.200,246.746 142.570,246.000 141.800 C 245.254 141.030,244.553 140.400,244.443 140.400 C 244.333 140.400,244.854 141.030,245.600 141.800 M152.783 144.300 L 151.000 146.200 152.993 144.400 C 154.088 143.410,155.063 142.555,155.159 142.500 C 155.255 142.445,155.161 142.400,154.950 142.400 C 154.739 142.400,153.764 143.255,152.783 144.300 M249.000 145.200 C 249.859 146.080,250.652 146.800,250.762 146.800 C 250.872 146.800,250.259 146.080,249.400 145.200 C 248.541 144.320,247.748 143.600,247.638 143.600 C 247.528 143.600,248.141 144.320,249.000 145.200 M148.400 148.600 C 147.428 149.590,146.723 150.400,146.833 150.400 C 146.943 150.400,147.828 149.590,148.800 148.600 C 149.772 147.610,150.477 146.800,150.367 146.800 C 150.257 146.800,149.372 147.610,148.400 148.600 M140.192 151.300 L 136.600 155.000 140.300 151.408 C 143.736 148.072,144.182 147.600,143.892 147.600 C 143.832 147.600,142.167 149.265,140.192 151.300 M255.000 151.200 C 256.083 152.300,257.060 153.200,257.170 153.200 C 257.280 153.200,256.483 152.300,255.400 151.200 C 254.317 150.100,253.340 149.200,253.230 149.200 C 253.120 149.200,253.917 150.100,255.000 151.200 M144.378 152.700 L 143.000 154.200 144.500 152.822 C 145.325 152.063,146.000 151.388,146.000 151.322 C 146.000 151.016,145.662 151.304,144.378 152.700 M140.981 156.100 L 139.400 157.800 141.100 156.219 C 142.681 154.748,142.984 154.400,142.681 154.400 C 142.616 154.400,141.851 155.165,140.981 156.100 M132.192 159.300 L 128.600 163.000 132.300 159.408 C 135.736 156.072,136.182 155.600,135.892 155.600 C 135.832 155.600,134.167 157.265,132.192 159.300 M136.985 160.100 L 135.000 162.200 137.192 160.200 C 138.397 159.100,139.462 158.155,139.558 158.100 C 139.655 158.045,139.562 158.000,139.352 158.000 C 139.142 158.000,138.077 158.945,136.985 160.100 M185.207 165.800 L 179.814 171.400 185.390 165.916 C 188.456 162.899,190.883 160.379,190.782 160.316 C 190.682 160.252,188.173 162.720,185.207 165.800 M213.800 165.600 C 216.874 168.680,219.479 171.200,219.589 171.200 C 219.699 171.200,217.274 168.680,214.200 165.600 C 211.126 162.520,208.521 160.000,208.411 160.000 C 208.301 160.000,210.726 162.520,213.800 165.600 M152.794 165.700 C 155.761 168.725,158.236 171.200,158.294 171.200 C 158.581 171.200,158.009 170.606,152.900 165.594 L 147.400 160.200 152.794 165.700 M131.191 165.900 L 127.800 169.400 131.300 166.009 C 134.551 162.859,134.982 162.400,134.691 162.400 C 134.631 162.400,133.056 163.975,131.191 165.900 M144.982 162.902 C 144.876 163.179,144.839 169.704,144.900 177.402 L 145.011 191.400 145.105 177.008 L 145.200 162.616 149.100 166.408 L 153.000 170.200 149.208 166.300 C 145.054 162.028,145.255 162.190,144.982 162.902 M190.783 164.700 L 189.000 166.600 190.993 164.800 C 192.088 163.810,193.063 162.955,193.159 162.900 C 193.255 162.845,193.161 162.800,192.950 162.800 C 192.739 162.800,191.764 163.655,190.783 164.700 M126.581 164.900 L 125.000 166.600 126.700 165.019 C 128.281 163.548,128.584 163.200,128.281 163.200 C 128.216 163.200,127.451 163.965,126.581 164.900 M269.000 165.200 C 269.859 166.080,270.652 166.800,270.762 166.800 C 270.872 166.800,270.259 166.080,269.400 165.200 C 268.541 164.320,267.748 163.600,267.638 163.600 C 267.528 163.600,268.141 164.320,269.000 165.200 M245.879 166.093 C 244.293 167.789,244.771 167.881,246.406 166.194 C 247.149 165.427,247.587 164.821,247.378 164.847 C 247.170 164.874,246.496 165.434,245.879 166.093 M122.800 168.600 C 121.828 169.590,121.123 170.400,121.233 170.400 C 121.343 170.400,122.228 169.590,123.200 168.600 C 124.172 167.610,124.877 166.800,124.767 166.800 C 124.657 166.800,123.772 167.610,122.800 168.600 M276.200 172.400 C 277.950 174.160,279.471 175.600,279.581 175.600 C 279.691 175.600,278.350 174.160,276.600 172.400 C 274.850 170.640,273.329 169.200,273.219 169.200 C 273.109 169.200,274.450 170.640,276.200 172.400 M123.392 173.700 L 119.800 177.400 123.500 173.808 C 126.936 170.472,127.382 170.000,127.092 170.000 C 127.032 170.000,125.367 171.665,123.392 173.700 M118.778 172.700 L 117.400 174.200 118.900 172.822 C 119.725 172.063,120.400 171.388,120.400 171.322 C 120.400 171.016,120.062 171.304,118.778 172.700 M243.866 172.331 L 242.782 173.463 242.900 181.031 L 243.019 188.600 243.109 181.022 L 243.200 173.444 244.275 172.322 C 244.866 171.705,245.260 171.200,245.150 171.200 C 245.040 171.200,244.462 171.709,243.866 172.331 M181.766 180.800 C 181.766 184.870,181.825 186.535,181.898 184.500 C 181.971 182.465,181.971 179.135,181.898 177.100 C 181.825 175.065,181.766 176.730,181.766 180.800 M114.985 176.500 L 113.000 178.600 115.100 176.615 C 117.051 174.771,117.383 174.400,117.085 174.400 C 117.022 174.400,116.077 175.345,114.985 176.500 M281.200 177.400 C 281.946 178.170,282.647 178.800,282.757 178.800 C 282.867 178.800,282.346 178.170,281.600 177.400 C 280.854 176.630,280.153 176.000,280.043 176.000 C 279.933 176.000,280.454 176.630,281.200 177.400 M117.775 179.300 L 116.600 180.600 117.900 179.425 C 119.112 178.330,119.384 178.000,119.075 178.000 C 119.006 178.000,118.421 178.585,117.775 179.300 M108.792 182.700 L 105.000 186.600 108.900 182.808 C 112.522 179.286,112.982 178.800,112.692 178.800 C 112.633 178.800,110.878 180.555,108.792 182.700 M109.995 187.086 C 106.808 190.323,104.327 192.888,104.482 192.786 C 105.113 192.370,116.241 181.200,116.024 181.200 C 115.895 181.200,113.182 183.849,109.995 187.086 M102.187 189.300 L 99.800 191.800 102.300 189.413 C 104.622 187.195,104.983 186.800,104.687 186.800 C 104.626 186.800,103.501 187.925,102.187 189.300 M292.400 188.600 C 293.146 189.370,293.847 190.000,293.957 190.000 C 294.067 190.000,293.546 189.370,292.800 188.600 C 292.054 187.830,291.353 187.200,291.243 187.200 C 291.133 187.200,291.654 187.830,292.400 188.600 M152.714 191.798 L 149.228 195.398 147.114 193.404 L 145.000 191.410 147.101 193.601 L 149.202 195.793 152.883 192.112 C 154.908 190.087,156.482 188.378,156.382 188.314 C 156.282 188.251,154.631 189.818,152.714 191.798 M185.357 191.865 C 188.373 194.973,190.000 196.045,190.000 194.924 C 190.000 194.819,189.775 194.818,189.500 194.921 C 189.225 195.024,187.380 193.554,185.400 191.654 L 181.800 188.200 185.357 191.865 M246.400 192.200 C 248.260 194.070,249.872 195.600,249.982 195.600 C 250.092 195.600,248.660 194.070,246.800 192.200 C 244.940 190.330,243.328 188.800,243.218 188.800 C 243.108 188.800,244.540 190.330,246.400 192.200 M230.216 191.900 L 242.233 192.011 245.006 194.806 L 247.779 197.600 244.993 200.500 L 242.207 203.400 245.197 200.503 L 248.187 197.607 245.203 194.603 L 242.220 191.600 230.210 191.694 L 218.200 191.788 230.216 191.900 M252.185 193.700 L 250.200 195.800 252.300 193.815 C 254.251 191.971,254.583 191.600,254.285 191.600 C 254.222 191.600,253.277 192.545,252.185 193.700 M297.800 194.000 C 298.659 194.880,299.452 195.600,299.562 195.600 C 299.672 195.600,299.059 194.880,298.200 194.000 C 297.341 193.120,296.548 192.400,296.438 192.400 C 296.328 192.400,296.941 193.120,297.800 194.000 M102.181 194.900 L 100.600 196.600 102.300 195.019 C 103.235 194.149,104.000 193.384,104.000 193.319 C 104.000 193.016,103.652 193.319,102.181 194.900 M14.903 195.200 C 15.047 195.728,19.871 195.800,55.233 195.803 L 95.400 195.806 55.422 195.701 C 24.076 195.619,15.369 195.489,15.092 195.098 C 14.832 194.731,14.782 194.758,14.903 195.200 M212.832 197.211 C 212.814 197.547,214.105 199.077,215.700 200.611 L 218.600 203.400 215.946 200.600 C 214.487 199.060,213.196 197.530,213.078 197.200 C 212.890 196.674,212.859 196.675,212.832 197.211 M349.800 198.400 L 301.800 198.605 349.876 198.702 C 381.602 198.767,398.037 198.664,398.200 198.400 C 398.336 198.180,398.302 198.044,398.124 198.098 C 397.946 198.151,376.200 198.287,349.800 198.400 M148.562 200.462 C 148.378 200.759,148.453 200.815,148.770 200.618 C 149.091 200.420,150.519 201.567,152.832 203.881 C 154.794 205.843,156.400 207.351,156.400 207.232 C 156.400 206.906,149.460 200.000,149.132 200.000 C 148.975 200.000,148.719 200.208,148.562 200.462 M185.392 203.700 L 181.800 207.400 185.421 203.887 C 187.412 201.955,189.196 200.515,189.385 200.687 C 189.574 200.859,189.599 200.775,189.441 200.500 C 189.058 199.835,189.426 199.544,185.392 203.700 M208.086 202.513 L 206.000 204.625 206.000 219.089 C 206.000 227.044,206.135 233.636,206.300 233.738 C 206.465 233.841,206.551 227.324,206.491 219.256 L 206.381 204.588 208.394 202.606 L 210.406 200.624 213.803 204.003 L 217.200 207.382 217.291 215.391 L 217.382 223.400 217.500 215.417 L 217.617 207.433 214.117 203.917 C 209.978 199.759,210.651 199.915,208.086 202.513 M316.200 201.094 C 351.505 201.366,399.600 201.369,399.600 201.100 C 399.600 200.935,377.775 200.843,351.100 200.895 C 324.425 200.947,308.720 201.036,316.200 201.094 M146.998 202.002 C 146.598 202.444,146.348 202.881,146.440 202.974 C 146.533 203.067,146.999 202.705,147.474 202.171 C 147.950 201.637,148.201 201.200,148.032 201.200 C 147.862 201.200,147.397 201.561,146.998 202.002 M99.522 202.200 C 99.758 202.640,121.967 224.960,148.875 251.800 L 197.798 300.600 148.599 251.215 C 121.540 224.053,99.331 201.733,99.246 201.615 C 99.161 201.497,99.285 201.760,99.522 202.200 M14.218 203.971 C 13.972 204.369,18.065 208.993,19.201 209.600 C 19.576 209.801,18.604 208.668,17.041 207.083 L 14.200 204.200 55.000 203.997 L 95.800 203.794 55.124 203.697 C 30.441 203.638,14.357 203.746,14.218 203.971 M96.000 204.525 C 96.000 204.594,96.585 205.179,97.300 205.825 L 98.600 207.000 97.425 205.700 C 96.330 204.488,96.000 204.216,96.000 204.525 M144.893 218.833 C 144.842 226.882,144.926 233.593,145.081 233.747 C 145.343 234.010,156.400 223.290,156.400 222.773 C 156.400 222.643,153.925 225.034,150.900 228.087 L 145.400 233.638 145.193 218.919 L 144.985 204.200 144.893 218.833 M181.767 215.000 C 181.767 219.180,181.826 220.836,181.898 218.679 C 181.971 216.523,181.970 213.103,181.898 211.079 C 181.825 209.056,181.766 210.820,181.767 215.000 M292.378 211.500 L 291.000 213.000 292.500 211.622 C 293.325 210.863,294.000 210.188,294.000 210.122 C 294.000 209.816,293.662 210.104,292.378 211.500 M22.400 213.000 C 23.817 214.430,25.067 215.600,25.177 215.600 C 25.287 215.600,24.217 214.430,22.800 213.000 C 21.383 211.570,20.133 210.400,20.023 210.400 C 19.913 210.400,20.983 211.570,22.400 213.000 M25.914 216.200 C 26.147 216.640,27.110 217.720,28.055 218.600 C 29.752 220.180,29.209 219.497,25.673 215.600 C 25.573 215.490,25.682 215.760,25.914 216.200 M30.004 220.099 C 29.997 220.592,32.868 223.611,33.766 224.053 C 34.224 224.280,34.022 223.993,33.316 223.416 C 32.610 222.839,31.577 221.790,31.021 221.084 C 30.464 220.378,30.007 219.934,30.004 220.099 M187.194 228.114 C 190.161 231.131,192.706 233.600,192.849 233.600 C 193.075 233.600,182.795 223.314,182.070 222.814 C 181.922 222.711,184.227 225.096,187.194 228.114 M214.872 225.078 C 214.142 225.848,213.614 226.547,213.698 226.632 C 213.783 226.716,214.552 226.069,215.407 225.193 C 216.263 224.317,216.791 223.618,216.581 223.639 C 216.372 223.661,215.603 224.308,214.872 225.078 M36.800 227.400 C 38.217 228.830,39.467 230.000,39.577 230.000 C 39.687 230.000,38.617 228.830,37.200 227.400 C 35.783 225.970,34.533 224.800,34.423 224.800 C 34.313 224.800,35.383 225.970,36.800 227.400 M153.194 230.300 L 147.800 235.800 153.205 230.500 L 158.611 225.200 169.211 225.200 L 179.811 225.200 185.196 230.596 L 190.582 235.993 168.991 236.100 L 147.400 236.207 169.100 236.304 C 181.035 236.357,190.800 236.263,190.800 236.095 C 190.800 235.927,188.323 233.317,185.295 230.295 L 179.790 224.800 169.189 224.800 L 158.589 224.800 153.194 230.300 M214.145 230.389 C 211.035 233.451,208.590 236.056,208.712 236.178 C 209.056 236.522,252.000 236.439,252.000 236.095 C 252.000 235.927,249.523 233.317,246.495 230.295 L 240.990 224.800 230.395 224.811 L 219.800 224.822 214.145 230.389 M246.400 230.600 L 251.789 236.000 230.365 236.000 L 208.942 236.000 214.371 230.604 L 219.800 225.208 230.406 225.204 L 241.011 225.200 246.400 230.600 M211.643 228.420 C 210.908 229.091,210.385 229.718,210.481 229.814 C 210.576 229.910,211.263 229.361,212.006 228.594 C 213.672 226.875,213.450 226.769,211.643 228.420 M123.200 231.800 C 125.060 233.670,126.672 235.200,126.782 235.200 C 126.892 235.200,125.460 233.670,123.600 231.800 C 121.740 229.930,120.128 228.400,120.018 228.400 C 119.908 228.400,121.340 229.930,123.200 231.800 M208.800 231.151 C 207.301 232.860,207.165 233.279,208.517 232.022 C 209.333 231.263,210.000 230.588,210.000 230.522 C 210.000 230.193,209.334 230.542,208.800 231.151 M44.716 235.000 C 44.950 235.440,46.184 236.790,47.459 238.000 L 49.777 240.200 47.206 237.400 C 45.792 235.860,44.558 234.510,44.464 234.400 C 44.369 234.290,44.483 234.560,44.716 235.000 M128.400 237.000 C 129.146 237.770,129.847 238.400,129.957 238.400 C 130.067 238.400,129.546 237.770,128.800 237.000 C 128.054 236.230,127.353 235.600,127.243 235.600 C 127.133 235.600,127.654 236.230,128.400 237.000 M132.200 240.800 C 133.283 241.900,134.260 242.800,134.370 242.800 C 134.480 242.800,133.683 241.900,132.600 240.800 C 131.517 239.700,130.540 238.800,130.430 238.800 C 130.320 238.800,131.117 239.700,132.200 240.800 M56.400 246.941 C 57.610 248.216,58.960 249.450,59.400 249.684 C 59.840 249.917,60.110 250.031,60.000 249.936 C 59.890 249.842,58.540 248.608,57.000 247.194 L 54.200 244.623 56.400 246.941 M143.200 251.800 C 146.825 255.430,149.881 258.400,149.991 258.400 C 150.101 258.400,147.225 255.430,143.600 251.800 C 139.975 248.170,136.919 245.200,136.809 245.200 C 136.699 245.200,139.575 248.170,143.200 251.800 M62.400 253.000 C 63.817 254.430,65.067 255.600,65.177 255.600 C 65.287 255.600,64.217 254.430,62.800 253.000 C 61.383 251.570,60.133 250.400,60.023 250.400 C 59.913 250.400,60.983 251.570,62.400 253.000 M65.914 256.200 C 66.147 256.640,67.110 257.720,68.055 258.600 C 69.752 260.180,69.209 259.497,65.673 255.600 C 65.573 255.490,65.682 255.760,65.914 256.200 M152.200 260.800 C 153.283 261.900,154.260 262.800,154.370 262.800 C 154.480 262.800,153.683 261.900,152.600 260.800 C 151.517 259.700,150.540 258.800,150.430 258.800 C 150.320 258.800,151.117 259.700,152.200 260.800 M70.004 260.099 C 69.997 260.592,72.868 263.611,73.766 264.053 C 74.224 264.280,74.022 263.993,73.316 263.416 C 72.610 262.839,71.577 261.790,71.021 261.084 C 70.464 260.378,70.007 259.934,70.004 260.099 M157.800 266.400 C 159.550 268.160,161.071 269.600,161.181 269.600 C 161.291 269.600,159.950 268.160,158.200 266.400 C 156.450 264.640,154.929 263.200,154.819 263.200 C 154.709 263.200,156.050 264.640,157.800 266.400 M76.800 267.400 C 78.217 268.830,79.467 270.000,79.577 270.000 C 79.687 270.000,78.617 268.830,77.200 267.400 C 75.783 265.970,74.533 264.800,74.423 264.800 C 74.313 264.800,75.383 265.970,76.800 267.400 M165.593 274.100 C 167.899 276.465,169.834 278.400,169.893 278.400 C 170.182 278.400,169.694 277.887,165.700 273.993 L 161.400 269.800 165.593 274.100 M86.800 277.400 C 88.217 278.830,89.467 280.000,89.577 280.000 C 89.687 280.000,88.617 278.830,87.200 277.400 C 85.783 275.970,84.533 274.800,84.423 274.800 C 84.313 274.800,85.383 275.970,86.800 277.400 M173.400 282.000 C 175.150 283.760,176.671 285.200,176.781 285.200 C 176.891 285.200,175.550 283.760,173.800 282.000 C 172.050 280.240,170.529 278.800,170.419 278.800 C 170.309 278.800,171.650 280.240,173.400 282.000 M90.317 280.609 C 90.789 281.531,94.988 285.600,95.467 285.600 C 95.640 285.600,95.121 285.055,94.312 284.388 C 93.504 283.722,92.181 282.417,91.372 281.488 C 90.564 280.560,90.089 280.164,90.317 280.609 M222.378 281.500 L 221.000 283.000 222.500 281.622 C 223.896 280.338,224.184 280.000,223.878 280.000 C 223.812 280.000,223.137 280.675,222.378 281.500 M102.000 292.541 C 103.210 293.816,104.560 295.050,105.000 295.284 C 105.440 295.517,105.710 295.631,105.600 295.536 C 105.490 295.442,104.140 294.208,102.600 292.794 L 99.800 290.223 102.000 292.541 M112.400 303.000 C 113.817 304.430,115.067 305.600,115.177 305.600 C 115.287 305.600,114.217 304.430,112.800 303.000 C 111.383 301.570,110.133 300.400,110.023 300.400 C 109.913 300.400,110.983 301.570,112.400 303.000 M201.600 301.800 C 201.326 302.130,200.809 302.414,200.451 302.432 C 200.042 302.451,199.985 302.538,200.296 302.664 C 200.569 302.774,201.268 302.490,201.850 302.032 C 202.432 301.574,202.726 301.200,202.503 301.200 C 202.280 301.200,201.874 301.470,201.600 301.800 M194.898 344.387 L 194.800 384.975 192.300 382.592 L 189.800 380.209 192.285 382.786 C 193.652 384.203,194.868 385.265,194.987 385.146 C 195.106 385.027,195.157 366.675,195.100 344.365 L 194.996 303.800 194.898 344.387 M115.604 305.699 C 115.597 306.192,118.468 309.211,119.366 309.653 C 119.824 309.880,119.622 309.593,118.916 309.016 C 118.210 308.439,117.177 307.390,116.621 306.684 C 116.064 305.978,115.607 305.534,115.604 305.699 M122.400 313.000 C 123.817 314.430,125.067 315.600,125.177 315.600 C 125.287 315.600,124.217 314.430,122.800 313.000 C 121.383 311.570,120.133 310.400,120.023 310.400 C 119.913 310.400,120.983 311.570,122.400 313.000 M125.914 316.200 C 126.147 316.640,127.110 317.720,128.055 318.600 C 129.752 320.180,129.209 319.497,125.673 315.600 C 125.573 315.490,125.682 315.760,125.914 316.200 M136.400 326.941 C 137.610 328.216,138.960 329.450,139.400 329.684 C 139.840 329.917,140.110 330.031,140.000 329.936 C 139.890 329.842,138.540 328.608,137.000 327.194 L 134.200 324.623 136.400 326.941 M142.400 333.000 C 143.817 334.430,145.067 335.600,145.177 335.600 C 145.287 335.600,144.217 334.430,142.800 333.000 C 141.383 331.570,140.133 330.400,140.023 330.400 C 139.913 330.400,140.983 331.570,142.400 333.000 M145.914 336.200 C 146.147 336.640,147.110 337.720,148.055 338.600 C 149.752 340.180,149.209 339.497,145.673 335.600 C 145.573 335.490,145.682 335.760,145.914 336.200 M150.004 340.099 C 149.997 340.592,152.868 343.611,153.766 344.053 C 154.224 344.280,154.022 343.993,153.316 343.416 C 152.610 342.839,151.577 341.790,151.021 341.084 C 150.464 340.378,150.007 339.934,150.004 340.099 M156.800 347.400 C 158.217 348.830,159.467 350.000,159.577 350.000 C 159.687 350.000,158.617 348.830,157.200 347.400 C 155.783 345.970,154.533 344.800,154.423 344.800 C 154.313 344.800,155.383 345.970,156.800 347.400 M166.800 357.400 C 168.217 358.830,169.467 360.000,169.577 360.000 C 169.687 360.000,168.617 358.830,167.200 357.400 C 165.783 355.970,164.533 354.800,164.423 354.800 C 164.313 354.800,165.383 355.970,166.800 357.400 M170.317 360.609 C 170.789 361.531,174.988 365.600,175.467 365.600 C 175.640 365.600,175.121 365.055,174.312 364.388 C 173.504 363.722,172.181 362.417,171.372 361.488 C 170.564 360.560,170.089 360.164,170.317 360.609 M182.000 372.541 C 183.210 373.816,184.560 375.050,185.000 375.284 C 185.440 375.517,185.710 375.631,185.600 375.536 C 185.490 375.442,184.140 374.208,182.600 372.794 L 179.800 370.223 182.000 372.541 " stroke="none" fill="#0c645c" fill-rule="evenodd"></path><path id="path4" d="M105.000 105.300 L 15.000 195.400 105.104 105.400 L 195.208 15.400 195.104 56.062 C 195.047 78.426,195.132 96.516,195.294 96.262 C 195.682 95.651,195.688 15.200,195.300 15.200 C 195.134 15.200,154.499 55.745,105.000 105.300 M191.800 99.549 C 190.480 100.831,188.864 102.492,188.209 103.240 C 187.553 103.988,188.678 102.984,190.709 101.008 C 192.739 99.033,194.400 97.368,194.400 97.308 C 194.400 97.058,194.084 97.330,191.800 99.549 M201.200 98.106 C 201.200 98.194,201.965 98.874,202.900 99.617 C 203.835 100.360,204.346 100.652,204.036 100.265 C 203.451 99.537,201.200 97.823,201.200 98.106 M193.578 103.863 C 192.486 105.023,192.420 105.168,193.262 104.563 C 194.180 103.903,195.445 102.400,195.082 102.400 C 195.013 102.400,194.337 103.058,193.578 103.863 M184.415 106.941 L 182.629 109.000 184.715 107.015 C 185.862 105.923,186.800 104.978,186.800 104.915 C 186.800 104.451,185.938 105.183,184.415 106.941 M189.802 107.598 C 189.403 108.039,189.207 108.400,189.367 108.400 C 189.788 108.400,190.928 107.195,190.712 106.979 C 190.611 106.878,190.202 107.156,189.802 107.598 M178.572 112.820 C 173.779 117.676,173.752 117.852,178.513 113.208 C 180.651 111.122,182.400 109.367,182.400 109.308 C 182.400 108.994,181.846 109.503,178.572 112.820 M172.862 118.440 C 172.126 119.109,171.598 119.731,171.689 119.822 C 171.780 119.914,172.463 119.361,173.206 118.594 C 174.866 116.881,174.672 116.794,172.862 118.440 M169.334 121.851 C 168.638 122.593,168.198 123.200,168.356 123.200 C 168.514 123.200,169.254 122.570,170.000 121.800 C 170.746 121.030,171.187 120.423,170.978 120.451 C 170.770 120.479,170.030 121.109,169.334 121.851 M170.800 126.600 C 170.283 127.150,170.027 127.594,170.230 127.587 C 170.572 127.576,172.221 125.600,171.888 125.600 C 171.806 125.600,171.317 126.050,170.800 126.600 M161.970 135.468 L 161.000 136.536 162.087 135.768 C 162.686 135.346,163.181 134.865,163.187 134.700 C 163.208 134.207,162.989 134.346,161.970 135.468 M158.602 138.798 C 158.203 139.239,158.007 139.600,158.167 139.600 C 158.588 139.600,159.728 138.395,159.512 138.179 C 159.411 138.078,159.002 138.356,158.602 138.798 M150.770 146.668 L 149.800 147.736 150.887 146.968 C 151.486 146.546,151.981 146.065,151.987 145.900 C 152.008 145.407,151.789 145.546,150.770 146.668 M146.370 151.068 L 145.400 152.136 146.487 151.368 C 147.086 150.946,147.581 150.465,147.587 150.300 C 147.608 149.807,147.389 149.946,146.370 151.068 M143.002 154.398 C 142.603 154.839,142.407 155.200,142.567 155.200 C 142.988 155.200,144.128 153.995,143.912 153.779 C 143.811 153.678,143.402 153.956,143.002 154.398 M139.675 157.800 C 139.197 158.350,138.963 158.800,139.157 158.800 C 139.350 158.800,139.803 158.350,140.163 157.800 C 140.524 157.250,140.757 156.800,140.681 156.800 C 140.606 156.800,140.153 157.250,139.675 157.800 M158.928 159.900 C 164.829 159.962,174.369 159.962,180.128 159.900 C 185.888 159.837,181.060 159.786,169.400 159.786 C 157.740 159.786,153.028 159.837,158.928 159.900 M219.728 159.900 C 225.629 159.962,235.169 159.962,240.928 159.900 C 246.688 159.837,241.860 159.786,230.200 159.786 C 218.540 159.786,213.828 159.837,219.728 159.900 M185.622 165.694 L 180.244 171.188 169.022 171.300 L 157.800 171.413 169.005 171.506 L 180.211 171.600 185.786 166.014 C 188.852 162.942,191.280 160.377,191.181 160.314 C 191.081 160.251,188.580 162.672,185.622 165.694 M213.595 165.700 L 219.390 171.600 230.595 171.507 L 241.800 171.413 230.600 171.301 L 219.400 171.188 213.600 165.494 L 207.800 159.800 213.595 165.700 M135.170 162.268 L 134.200 163.336 135.287 162.568 C 135.886 162.146,136.381 161.665,136.387 161.500 C 136.408 161.007,136.189 161.146,135.170 162.268 M144.978 162.435 C 144.805 162.715,144.843 162.821,145.066 162.683 C 145.280 162.551,147.510 164.503,150.021 167.021 C 152.532 169.540,154.706 171.600,154.852 171.600 C 155.057 171.600,151.222 167.731,145.410 162.073 C 145.339 162.004,145.144 162.167,144.978 162.435 M188.193 166.900 L 183.800 171.400 188.207 167.100 C 190.630 164.735,192.743 162.800,192.902 162.800 C 193.060 162.800,193.240 169.325,193.300 177.300 L 193.410 191.800 193.505 177.100 C 193.580 165.451,193.495 162.400,193.093 162.400 C 192.814 162.400,190.609 164.425,188.193 166.900 M254.581 177.200 C 254.581 185.230,254.634 188.515,254.699 184.500 C 254.765 180.485,254.765 173.915,254.699 169.900 C 254.634 165.885,254.581 169.170,254.581 177.200 M243.973 171.905 L 242.600 173.398 243.998 172.199 C 244.767 171.540,245.472 170.955,245.565 170.900 C 245.657 170.845,245.646 170.713,245.539 170.606 C 245.433 170.499,244.728 171.084,243.973 171.905 M155.738 172.731 C 156.305 173.358,156.400 174.550,156.400 181.024 L 156.400 188.584 152.900 192.192 L 149.400 195.800 153.100 192.208 L 156.800 188.617 156.800 180.937 C 156.800 174.489,156.699 173.156,156.171 172.629 C 155.295 171.752,154.930 171.839,155.738 172.731 M123.578 173.848 C 122.820 174.645,122.560 175.078,123.000 174.810 C 123.722 174.371,125.437 172.400,125.097 172.400 C 125.020 172.400,124.337 173.052,123.578 173.848 M242.483 180.954 L 242.400 188.508 246.074 192.254 C 250.385 196.651,250.086 196.575,252.615 193.900 L 254.600 191.800 252.586 193.700 C 250.031 196.111,250.373 196.194,246.391 192.192 L 243.000 188.785 242.783 181.092 L 242.566 173.400 242.483 180.954 M119.802 177.598 C 119.403 178.039,119.207 178.400,119.367 178.400 C 119.788 178.400,120.928 177.195,120.712 176.979 C 120.611 176.878,120.202 177.156,119.802 177.598 M181.600 188.246 C 181.600 188.454,182.725 189.699,184.100 191.013 L 186.600 193.400 184.200 190.810 C 182.880 189.385,181.755 188.140,181.700 188.043 C 181.645 187.946,181.600 188.037,181.600 188.246 M245.193 194.500 L 248.179 197.599 245.393 200.500 L 242.607 203.400 245.600 200.500 L 248.593 197.600 245.400 194.500 L 242.207 191.400 245.193 194.500 M186.800 193.650 C 186.800 194.334,189.141 196.016,189.420 195.533 C 189.590 195.240,189.577 195.138,189.392 195.306 C 189.207 195.474,188.548 195.125,187.928 194.531 C 187.307 193.937,186.800 193.540,186.800 193.650 M100.929 196.500 C 100.027 197.502,99.460 198.400,99.729 198.400 C 99.826 198.400,100.386 197.770,100.973 197.000 C 102.177 195.421,102.153 195.141,100.929 196.500 M300.834 197.447 C 301.365 198.133,301.880 198.623,301.979 198.535 C 302.077 198.447,301.643 197.886,301.013 197.288 L 299.869 196.200 300.834 197.447 M212.432 197.211 C 212.414 197.547,213.705 199.077,215.300 200.611 L 218.200 203.400 215.546 200.600 C 214.087 199.060,212.796 197.530,212.678 197.200 C 212.490 196.674,212.459 196.675,212.432 197.211 M151.600 202.200 C 152.795 203.410,153.863 204.400,153.973 204.400 C 154.083 204.400,153.195 203.410,152.000 202.200 C 150.805 200.990,149.737 200.000,149.627 200.000 C 149.517 200.000,150.405 200.990,151.600 202.200 M190.783 201.730 C 191.764 202.759,192.627 203.600,192.702 203.600 C 193.036 203.600,191.349 201.707,190.233 200.830 C 189.415 200.187,189.601 200.490,190.783 201.730 M207.986 202.300 L 205.800 204.600 208.100 202.414 C 210.237 200.382,210.583 200.000,210.286 200.000 C 210.224 200.000,209.189 201.035,207.986 202.300 M214.000 203.800 C 215.860 205.670,217.472 207.200,217.582 207.200 C 217.692 207.200,216.260 205.670,214.400 203.800 C 212.540 201.930,210.928 200.400,210.818 200.400 C 210.708 200.400,212.140 201.930,214.000 203.800 M302.400 200.700 C 302.400 200.971,336.514 200.969,382.400 200.695 C 391.970 200.638,377.885 200.548,351.100 200.496 C 324.315 200.443,302.400 200.535,302.400 200.700 M184.185 204.500 L 182.200 206.600 184.300 204.615 C 185.455 203.523,186.400 202.578,186.400 202.515 C 186.400 202.217,186.029 202.549,184.185 204.500 M193.200 218.767 C 193.200 230.206,193.087 233.579,192.700 233.735 C 192.401 233.856,192.482 233.950,192.900 233.968 C 193.555 233.998,193.600 233.031,193.600 219.000 C 193.600 210.750,193.510 204.000,193.400 204.000 C 193.290 204.000,193.200 210.645,193.200 218.767 M205.687 219.300 C 205.639 227.385,205.735 234.000,205.900 234.000 C 206.173 234.001,206.167 222.990,205.886 209.800 C 205.825 206.940,205.735 211.215,205.687 219.300 M296.598 206.802 C 295.575 207.932,296.010 208.037,297.086 206.920 C 297.573 206.414,297.826 206.000,297.648 206.000 C 297.470 206.000,296.997 206.361,296.598 206.802 M156.568 215.000 C 156.568 219.400,156.626 221.255,156.698 219.121 C 156.770 216.988,156.770 213.388,156.699 211.121 C 156.627 208.855,156.568 210.600,156.568 215.000 M103.200 212.000 C 103.640 212.440,104.118 212.800,104.262 212.800 C 104.406 212.800,104.198 212.440,103.800 212.000 C 103.402 211.560,102.924 211.200,102.738 211.200 C 102.552 211.200,102.760 211.560,103.200 212.000 M150.821 228.578 C 147.869 231.537,145.279 233.849,145.065 233.717 C 144.838 233.576,144.807 233.687,144.989 233.982 C 145.236 234.383,156.400 223.937,156.400 223.305 C 156.400 223.022,155.814 223.575,150.821 228.578 M184.200 225.600 C 185.283 226.700,186.260 227.600,186.370 227.600 C 186.480 227.600,185.683 226.700,184.600 225.600 C 183.517 224.500,182.540 223.600,182.430 223.600 C 182.320 223.600,183.117 224.500,184.200 225.600 M185.407 230.400 C 188.483 233.590,191.082 236.148,191.182 236.084 C 191.283 236.021,188.766 233.411,185.589 230.284 L 179.814 224.600 185.407 230.400 M214.394 229.900 L 209.400 235.000 214.500 230.006 C 219.237 225.367,219.781 224.800,219.494 224.800 C 219.436 224.800,217.141 227.095,214.394 229.900 M246.600 230.400 C 249.674 233.480,252.279 236.000,252.389 236.000 C 252.499 236.000,250.074 233.480,247.000 230.400 C 243.926 227.320,241.321 224.800,241.211 224.800 C 241.101 224.800,243.526 227.320,246.600 230.400 M154.185 228.900 L 152.200 231.000 154.300 229.015 C 155.455 227.923,156.400 226.978,156.400 226.915 C 156.400 226.617,156.029 226.949,154.185 228.900 M41.600 231.717 C 41.930 232.003,42.447 232.498,42.749 232.818 C 43.219 233.316,43.235 233.277,42.860 232.547 C 42.619 232.078,42.102 231.583,41.711 231.446 C 41.092 231.230,41.078 231.265,41.600 231.717 M148.808 234.192 C 147.841 235.177,147.129 236.041,147.225 236.113 C 147.321 236.184,148.190 235.378,149.157 234.321 C 151.371 231.900,151.141 231.814,148.808 234.192 M51.600 241.717 C 51.930 242.003,52.447 242.498,52.749 242.818 C 53.219 243.316,53.235 243.277,52.860 242.547 C 52.619 242.078,52.102 241.583,51.711 241.446 C 51.092 241.230,51.078 241.265,51.600 241.717 M81.600 271.717 C 81.930 272.003,82.447 272.498,82.749 272.818 C 83.219 273.316,83.235 273.277,82.860 272.547 C 82.619 272.078,82.102 271.583,81.711 271.446 C 81.092 271.230,81.078 271.265,81.600 271.717 M226.598 276.802 C 225.575 277.932,226.010 278.037,227.086 276.920 C 227.573 276.414,227.826 276.000,227.648 276.000 C 227.470 276.000,226.997 276.361,226.598 276.802 M97.200 287.317 C 97.530 287.603,98.047 288.098,98.349 288.418 C 98.819 288.916,98.835 288.877,98.460 288.147 C 98.219 287.678,97.702 287.183,97.311 287.046 C 96.692 286.830,96.678 286.865,97.200 287.317 M180.400 288.938 C 180.400 289.082,180.760 289.560,181.200 290.000 C 181.640 290.440,182.000 290.648,182.000 290.462 C 182.000 290.276,181.640 289.798,181.200 289.400 C 180.760 289.002,180.400 288.794,180.400 288.938 M107.200 297.317 C 107.530 297.603,108.047 298.098,108.349 298.418 C 108.819 298.916,108.835 298.877,108.460 298.147 C 108.219 297.678,107.702 297.183,107.311 297.046 C 106.692 296.830,106.678 296.865,107.200 297.317 M197.635 300.100 C 197.728 300.155,198.433 300.740,199.202 301.400 L 200.600 302.600 199.425 301.300 C 198.779 300.585,198.074 300.000,197.858 300.000 C 197.643 300.000,197.543 300.045,197.635 300.100 M131.600 321.717 C 131.930 322.003,132.447 322.498,132.749 322.818 C 133.219 323.316,133.235 323.277,132.860 322.547 C 132.619 322.078,132.102 321.583,131.711 321.446 C 131.092 321.230,131.078 321.265,131.600 321.717 M161.600 351.717 C 161.930 352.003,162.447 352.498,162.749 352.818 C 163.219 353.316,163.235 353.277,162.860 352.547 C 162.619 352.078,162.102 351.583,161.711 351.446 C 161.092 351.230,161.078 351.265,161.600 351.717 M177.200 367.317 C 177.530 367.603,178.047 368.098,178.349 368.418 C 178.819 368.916,178.835 368.877,178.460 368.147 C 178.219 367.678,177.702 367.183,177.311 367.046 C 176.692 366.830,176.678 366.865,177.200 367.317 M187.200 377.317 C 187.530 377.603,188.047 378.098,188.349 378.418 C 188.819 378.916,188.835 378.877,188.460 378.147 C 188.219 377.678,187.702 377.183,187.311 377.046 C 186.692 376.830,186.678 376.865,187.200 377.317 " stroke="none" fill="#073c3c" fill-rule="evenodd"></path></g></svg>