<svg id="svg" version="1.1" xmlns="http://www.w3.org/2000/svg" xmlns:xlink="http://www.w3.org/1999/xlink" width="400" height="400" viewBox="0, 0, 400,400"><g id="svgg"><path id="path0" d="M199.369 0.900 C 199.470 1.395,199.665 23.510,199.803 50.045 L 200.053 98.291 198.333 99.645 C 196.122 101.386,101.064 196.425,100.173 197.785 L 99.502 198.809 49.955 198.705 C -1.724 198.595,0.000 198.546,-0.000 200.133 C -0.000 200.487,11.865 200.574,49.123 200.494 C 95.648 200.393,98.280 200.425,98.861 201.094 C 100.051 202.463,197.922 300.218,199.401 301.515 L 200.901 302.829 200.659 306.315 C 200.339 310.916,200.044 327.025,199.579 365.200 C 199.369 382.470,199.038 397.269,198.843 398.087 C 198.538 399.371,198.593 399.607,199.245 399.814 C 201.315 400.471,201.409 400.144,201.280 392.705 C 201.214 388.907,201.381 372.570,201.651 356.400 C 201.921 340.230,202.205 321.228,202.282 314.173 L 202.421 301.347 251.807 251.973 C 278.970 224.818,301.195 202.381,301.197 202.114 C 301.205 200.941,303.735 200.892,351.000 201.143 C 383.102 201.313,399.499 201.265,399.694 201.000 C 400.823 199.463,400.404 199.400,389.100 199.400 C 360.700 199.400,301.600 198.642,301.600 198.278 C 301.600 198.063,279.105 175.402,251.612 147.921 L 201.623 97.954 201.587 49.211 C 201.556 5.970,201.483 0.441,200.943 0.234 C 199.700 -0.244,199.180 -0.024,199.369 0.900 M193.600 160.295 C 193.600 160.457,191.127 163.067,188.105 166.095 L 182.611 171.600 171.800 171.600 L 160.990 171.600 155.200 165.800 L 149.410 160.000 171.505 160.000 C 183.657 160.000,193.600 160.133,193.600 160.295 M220.400 180.354 C 220.400 188.699,220.593 188.099,216.532 192.369 C 212.900 196.187,213.003 196.168,210.422 193.546 L 208.400 191.491 208.400 176.812 C 208.400 168.739,208.530 162.004,208.688 161.845 C 208.847 161.686,211.547 164.143,214.688 167.305 L 220.400 173.054 220.400 180.354 M257.200 176.937 L 257.200 191.427 255.047 193.553 C 252.468 196.101,252.637 196.149,248.300 191.619 L 245.200 188.381 245.200 180.895 L 245.200 173.410 250.873 167.727 C 253.993 164.601,256.693 162.134,256.873 162.245 C 257.053 162.356,257.200 168.968,257.200 176.937 M153.695 167.895 L 159.200 173.389 159.200 180.987 L 159.200 188.584 155.708 192.092 C 151.592 196.228,151.975 196.143,149.313 193.514 L 147.200 191.427 147.200 176.914 C 147.200 165.650,147.311 162.400,147.695 162.400 C 147.967 162.400,150.667 164.873,153.695 167.895 M196.000 176.946 L 196.000 191.491 193.978 193.546 C 191.450 196.114,191.823 196.182,188.067 192.466 C 183.826 188.271,184.000 188.781,184.000 180.552 L 184.000 173.452 189.619 167.926 C 192.709 164.887,195.409 162.400,195.619 162.400 C 195.853 162.400,196.000 167.989,196.000 176.946 M248.000 194.600 L 250.979 197.599 248.200 200.400 L 245.421 203.200 232.886 203.200 L 220.351 203.200 217.776 200.650 C 214.607 197.512,214.605 197.620,217.889 194.310 L 220.579 191.600 232.799 191.600 L 245.020 191.600 248.000 194.600 M155.748 203.637 L 159.200 207.273 159.200 215.064 L 159.200 222.854 153.612 228.458 C 150.539 231.540,147.839 233.948,147.612 233.807 C 147.341 233.640,147.200 228.519,147.200 218.889 L 147.200 204.225 149.286 202.113 C 151.945 199.421,151.690 199.361,155.748 203.637 M193.887 202.086 L 196.000 204.173 196.000 218.863 C 196.000 226.942,195.860 233.640,195.688 233.746 C 195.333 233.965,185.037 223.990,184.410 222.819 C 184.174 222.377,184.000 219.007,184.000 214.857 C 184.000 206.629,183.581 207.737,188.600 202.700 C 191.814 199.475,191.303 199.534,193.887 202.086 M255.087 202.086 L 257.200 204.173 257.200 219.063 C 257.200 228.196,257.051 234.045,256.814 234.191 C 256.602 234.322,253.904 231.858,250.819 228.715 L 245.209 223.000 245.205 215.101 L 245.200 207.201 248.821 203.601 C 253.095 199.351,252.471 199.502,255.087 202.086 M188.095 230.295 C 191.123 233.317,193.600 235.927,193.600 236.095 C 193.600 236.447,150.252 236.518,149.899 236.166 C 149.771 236.037,152.126 233.454,155.133 230.424 L 160.600 224.916 171.595 224.858 L 182.590 224.800 188.095 230.295 " stroke="none" fill="#041c1c" fill-rule="evenodd"></path><path id="path1" d="M100.523 99.922 L 2.446 198.000 50.923 197.941 L 99.400 197.882 115.600 181.441 C 124.510 172.398,146.937 149.970,165.439 131.600 L 199.077 98.200 199.088 58.800 C 199.094 37.130,198.986 15.450,198.849 10.622 L 198.600 1.844 100.523 99.922 M202.178 50.158 L 202.454 98.116 252.189 147.844 C 279.543 175.195,301.986 197.738,302.062 197.940 C 302.241 198.416,398.002 199.023,397.995 198.548 C 397.992 198.357,353.870 154.100,299.946 100.200 L 201.902 2.200 202.178 50.158 M150.800 160.359 C 150.800 160.557,153.185 163.075,156.100 165.956 L 161.400 171.193 171.806 171.196 L 182.211 171.200 187.506 165.895 C 190.418 162.977,192.800 160.457,192.800 160.295 C 192.800 160.133,183.350 160.000,171.800 160.000 C 159.656 160.000,150.800 160.151,150.800 160.359 M147.600 176.824 L 147.600 191.030 149.514 192.915 C 151.943 195.308,151.641 195.380,155.509 191.492 L 158.800 188.183 158.800 180.962 L 158.800 173.741 156.457 171.370 C 155.168 170.067,152.648 167.564,150.857 165.809 L 147.600 162.619 147.600 176.824 M208.800 176.928 L 208.800 191.057 210.593 192.928 C 212.938 195.375,212.957 195.370,216.748 191.358 L 220.000 187.916 220.000 180.653 L 220.000 173.389 214.695 168.094 C 211.777 165.182,209.257 162.800,209.095 162.800 C 208.933 162.800,208.800 169.158,208.800 176.928 M251.100 168.253 L 245.600 173.699 245.600 180.898 L 245.600 188.098 248.871 191.449 C 252.712 195.384,252.504 195.335,254.920 192.881 L 256.810 190.962 256.705 176.884 L 256.600 162.806 251.100 168.253 M189.785 168.459 L 184.400 173.718 184.400 180.822 L 184.400 187.926 187.708 191.363 C 191.572 195.377,191.482 195.354,193.807 192.928 L 195.600 191.057 195.600 177.128 C 195.600 169.468,195.503 163.200,195.385 163.200 C 195.266 163.200,192.746 165.567,189.785 168.459 M218.225 194.775 L 215.472 197.549 218.189 200.175 L 220.906 202.800 232.965 202.800 L 245.023 202.800 247.600 200.200 L 250.178 197.599 247.400 194.800 L 244.621 192.000 232.800 192.000 L 220.979 192.000 218.225 194.775 M149.485 202.714 L 147.600 204.627 147.604 219.214 L 147.607 233.800 153.204 228.172 L 158.800 222.544 158.800 215.023 L 158.800 207.502 155.529 204.151 C 151.689 200.217,151.896 200.266,149.485 202.714 M187.700 204.287 L 184.400 207.703 184.400 214.992 L 184.400 222.281 187.100 225.049 C 188.585 226.572,191.105 229.058,192.700 230.575 L 195.600 233.331 195.600 218.937 L 195.600 204.543 193.807 202.672 C 191.512 200.277,191.595 200.255,187.700 204.287 M248.892 204.177 L 245.600 207.554 245.603 215.077 L 245.607 222.600 251.103 228.173 L 256.600 233.746 256.705 219.192 L 256.810 204.638 254.920 202.719 C 252.510 200.272,252.758 200.212,248.892 204.177 M2.006 201.495 C 2.010 201.663,46.180 245.961,100.163 299.935 L 198.313 398.069 198.553 391.935 C 198.685 388.561,198.998 371.760,199.248 354.600 C 199.499 337.440,199.780 318.630,199.873 312.800 L 200.042 302.200 198.721 301.307 C 197.214 300.289,99.724 202.965,99.156 201.912 C 98.760 201.178,1.991 200.762,2.006 201.495 M301.735 202.225 C 301.580 202.630,279.325 225.089,252.280 252.133 L 203.107 301.305 202.764 320.953 C 202.212 352.601,201.605 397.739,201.730 397.863 C 201.793 397.927,245.886 353.940,299.714 300.114 C 353.543 246.289,397.498 202.165,397.394 202.060 C 396.694 201.360,302.004 201.524,301.735 202.225 M155.692 230.634 L 150.383 236.000 171.686 236.000 L 192.989 236.000 187.600 230.600 L 182.211 225.200 171.606 225.234 L 161.000 225.267 155.692 230.634 " stroke="none" fill="#0cb39b" fill-rule="evenodd"></path><path id="path2" d="M99.900 99.218 C 3.456 195.686,1.164 198.000,2.022 198.000 C 2.742 198.000,198.926 1.564,198.552 1.218 C 198.358 1.039,153.965 45.139,99.900 99.218 M202.076 2.029 C 202.351 2.852,398.533 198.765,398.873 198.555 C 399.205 198.350,202.739 1.600,202.202 1.600 C 202.054 1.600,201.998 1.793,202.076 2.029 M198.965 10.400 C 198.965 14.250,199.025 15.825,199.098 13.900 C 199.171 11.975,199.171 8.825,199.098 6.900 C 199.025 4.975,198.965 6.550,198.965 10.400 M202.162 65.000 C 202.162 68.520,202.224 69.906,202.298 68.081 C 202.372 66.256,202.372 63.376,202.297 61.681 C 202.222 59.986,202.161 61.480,202.162 65.000 M199.348 94.000 C 199.348 96.310,199.414 97.255,199.495 96.100 C 199.576 94.945,199.576 93.055,199.495 91.900 C 199.414 90.745,199.348 91.690,199.348 94.000 M26.931 198.300 C 40.313 198.358,62.093 198.358,75.331 198.300 C 88.569 198.241,77.620 198.194,51.000 198.194 C 24.380 198.194,13.549 198.242,26.931 198.300 M331.500 198.699 C 335.075 198.766,340.925 198.766,344.500 198.699 C 348.075 198.633,345.150 198.579,338.000 198.579 C 330.850 198.579,327.925 198.633,331.500 198.699 M1.073 201.500 C 0.978 201.665,45.317 246.210,99.606 300.489 C 184.695 385.564,198.345 399.056,198.551 398.289 C 198.682 397.800,198.759 396.140,198.721 394.600 L 198.653 391.800 198.427 394.883 L 198.200 397.966 99.821 299.583 C 45.713 245.472,1.398 201.200,1.345 201.200 C 1.291 201.200,1.169 201.335,1.073 201.500 M308.124 201.499 C 311.383 201.567,316.603 201.566,319.724 201.499 C 322.846 201.431,320.180 201.376,313.800 201.377 C 307.420 201.377,304.866 201.432,308.124 201.499 M397.600 201.837 C 397.600 202.269,202.287 397.704,201.639 397.920 C 201.422 397.993,201.344 398.310,201.466 398.627 C 201.612 399.008,234.752 366.136,300.105 300.783 C 374.573 226.317,398.412 202.252,398.062 201.902 C 397.800 201.640,397.600 201.612,397.600 201.837 M220.746 202.906 C 220.914 203.074,226.440 203.164,233.026 203.106 L 245.000 202.999 232.720 202.800 C 225.965 202.690,220.577 202.738,220.746 202.906 M202.931 304.600 C 202.933 306.140,203.005 306.721,203.092 305.891 C 203.179 305.061,203.177 303.801,203.089 303.091 C 203.000 302.381,202.929 303.060,202.931 304.600 M199.734 324.000 C 199.734 325.650,199.805 326.325,199.891 325.500 C 199.978 324.675,199.978 323.325,199.891 322.500 C 199.805 321.675,199.734 322.350,199.734 324.000 M202.546 331.000 C 202.547 333.200,202.614 334.049,202.695 332.887 C 202.776 331.724,202.776 329.924,202.693 328.887 C 202.611 327.849,202.545 328.800,202.546 331.000 M199.334 337.200 C 199.334 338.850,199.405 339.525,199.491 338.700 C 199.578 337.875,199.578 336.525,199.491 335.700 C 199.405 334.875,199.334 335.550,199.334 337.200 M202.128 347.600 C 202.128 349.030,202.201 349.615,202.289 348.900 C 202.378 348.185,202.378 347.015,202.289 346.300 C 202.201 345.585,202.128 346.170,202.128 347.600 M198.928 367.600 C 198.928 369.030,199.001 369.615,199.089 368.900 C 199.178 368.185,199.178 367.015,199.089 366.300 C 199.001 365.585,198.928 366.170,198.928 367.600 M201.734 382.800 C 201.734 384.450,201.805 385.125,201.891 384.300 C 201.978 383.475,201.978 382.125,201.891 381.300 C 201.805 380.475,201.734 381.150,201.734 382.800 " stroke="none" fill="#878887" fill-rule="evenodd"></path><path id="path3" d="M198.724 2.200 C 198.814 2.970,198.958 3.600,199.044 3.600 C 199.130 3.600,199.200 2.970,199.200 2.200 C 199.200 1.430,199.056 0.800,198.880 0.800 C 198.704 0.800,198.634 1.430,198.724 2.200 M201.779 15.000 C 201.779 22.260,201.833 25.286,201.899 21.725 C 201.965 18.164,201.966 12.224,201.899 8.525 C 201.833 4.826,201.779 7.740,201.779 15.000 M199.392 53.800 C 199.392 73.820,199.440 81.951,199.500 71.870 C 199.559 61.788,199.559 45.408,199.500 35.470 C 199.440 25.531,199.392 33.780,199.392 53.800 M202.094 84.619 L 202.000 98.238 203.700 99.819 L 205.400 101.400 203.905 99.789 L 202.411 98.177 202.300 84.589 L 202.189 71.000 202.094 84.619 M199.597 94.482 C 199.489 96.617,199.542 98.220,199.716 98.045 C 199.891 97.870,199.979 96.123,199.914 94.164 L 199.794 90.600 199.597 94.482 M193.792 103.300 L 189.800 107.400 193.987 103.400 C 196.290 101.200,198.255 99.355,198.354 99.300 C 198.453 99.245,198.365 99.200,198.159 99.200 C 197.953 99.200,195.988 101.045,193.792 103.300 M181.796 115.300 L 174.200 123.000 181.900 115.404 C 189.054 108.346,189.781 107.600,189.496 107.600 C 189.439 107.600,185.974 111.065,181.796 115.300 M172.181 124.900 L 170.600 126.600 172.300 125.019 C 173.881 123.548,174.184 123.200,173.881 123.200 C 173.816 123.200,173.051 123.965,172.181 124.900 M162.596 134.500 L 155.000 142.200 162.700 134.604 C 169.854 127.546,170.581 126.800,170.296 126.800 C 170.239 126.800,166.774 130.265,162.596 134.500 M152.800 144.200 C 151.828 145.190,151.123 146.000,151.233 146.000 C 151.343 146.000,152.228 145.190,153.200 144.200 C 154.172 143.210,154.877 142.400,154.767 142.400 C 154.657 142.400,153.772 143.210,152.800 144.200 M148.400 148.600 C 147.428 149.590,146.723 150.400,146.833 150.400 C 146.943 150.400,147.828 149.590,148.800 148.600 C 149.772 147.610,150.477 146.800,150.367 146.800 C 150.257 146.800,149.372 147.610,148.400 148.600 M144.378 152.700 L 143.000 154.200 144.500 152.822 C 145.325 152.063,146.000 151.388,146.000 151.322 C 146.000 151.016,145.662 151.304,144.378 152.700 M134.996 162.100 L 127.400 169.800 135.100 162.204 C 142.254 155.146,142.981 154.400,142.696 154.400 C 142.639 154.400,139.174 157.865,134.996 162.100 M187.607 165.800 L 182.214 171.400 187.790 165.916 C 190.856 162.899,193.283 160.379,193.182 160.316 C 193.082 160.252,190.573 162.720,187.607 165.800 M214.200 167.600 C 217.274 170.680,219.879 173.200,219.989 173.200 C 220.099 173.200,217.674 170.680,214.600 167.600 C 211.526 164.520,208.921 162.000,208.811 162.000 C 208.701 162.000,211.126 164.520,214.200 167.600 M150.600 165.600 C 152.350 167.360,153.871 168.800,153.981 168.800 C 154.091 168.800,152.750 167.360,151.000 165.600 C 149.250 163.840,147.729 162.400,147.619 162.400 C 147.509 162.400,148.850 163.840,150.600 165.600 M253.600 165.400 C 251.961 167.050,250.710 168.400,250.820 168.400 C 250.930 168.400,252.361 167.050,254.000 165.400 C 255.639 163.750,256.890 162.400,256.780 162.400 C 256.670 162.400,255.239 163.750,253.600 165.400 M189.792 168.100 L 185.800 172.200 189.900 168.208 C 193.708 164.499,194.182 164.000,193.892 164.000 C 193.833 164.000,191.988 165.845,189.792 168.100 M123.392 173.700 L 119.800 177.400 123.500 173.808 C 126.936 170.472,127.382 170.000,127.092 170.000 C 127.032 170.000,125.367 171.665,123.392 173.700 M117.781 179.300 L 116.200 181.000 117.900 179.419 C 119.481 177.948,119.784 177.600,119.481 177.600 C 119.416 177.600,118.651 178.365,117.781 179.300 M109.995 187.100 L 104.200 193.000 110.100 187.205 C 113.345 184.018,116.000 181.363,116.000 181.305 C 116.000 181.019,115.378 181.619,109.995 187.100 M187.591 191.700 C 191.058 195.278,191.902 195.729,192.832 194.500 C 193.282 193.904,193.278 193.875,192.801 194.300 C 191.772 195.217,191.040 194.822,187.608 191.500 L 184.200 188.200 187.591 191.700 M216.408 191.792 C 213.089 195.128,213.018 195.173,212.068 194.550 C 211.536 194.202,211.224 194.115,211.373 194.356 C 212.331 195.907,213.023 195.594,216.623 191.977 C 218.581 190.010,220.093 188.400,219.983 188.400 C 219.873 188.400,218.264 189.926,216.408 191.792 M248.791 191.700 C 252.760 195.797,252.531 195.736,254.817 193.300 L 256.600 191.400 254.785 193.100 C 252.468 195.270,252.792 195.357,248.808 191.500 L 245.400 188.200 248.791 191.700 M149.586 193.300 C 152.127 195.973,151.771 195.773,152.432 194.900 C 152.884 194.303,152.879 194.274,152.397 194.704 C 151.931 195.120,151.447 194.842,149.616 193.104 L 147.400 191.000 149.586 193.300 M217.796 194.804 L 215.014 197.607 218.003 200.504 L 220.993 203.400 218.207 200.500 L 215.421 197.600 218.200 194.800 C 219.728 193.260,220.889 192.000,220.779 192.000 C 220.669 192.000,219.327 193.262,217.796 194.804 M101.785 195.300 L 99.800 197.400 101.900 195.415 C 103.055 194.323,104.000 193.378,104.000 193.315 C 104.000 193.017,103.629 193.349,101.785 195.300 M247.800 195.200 C 248.659 196.080,249.452 196.800,249.562 196.800 C 249.672 196.800,249.059 196.080,248.200 195.200 C 247.341 194.320,246.548 193.600,246.438 193.600 C 246.328 193.600,246.941 194.320,247.800 195.200 M247.413 200.392 L 244.626 203.400 247.595 200.515 C 249.227 198.928,250.481 197.574,250.382 197.507 C 250.282 197.439,248.946 198.737,247.413 200.392 M307.700 198.699 C 310.945 198.766,316.255 198.766,319.500 198.699 C 322.745 198.632,320.090 198.577,313.600 198.577 C 307.110 198.577,304.455 198.632,307.700 198.699 M388.600 198.800 L 378.200 199.020 388.476 199.110 C 394.995 199.167,398.843 199.054,399.000 198.800 C 399.136 198.580,399.192 198.440,399.124 198.490 C 399.056 198.539,394.320 198.679,388.600 198.800 M149.385 202.500 L 147.400 204.600 149.414 202.700 C 151.956 200.301,151.580 200.216,155.592 204.100 L 159.000 207.400 155.609 203.900 C 151.612 199.774,151.900 199.839,149.385 202.500 M248.791 203.900 L 245.400 207.400 248.808 204.100 C 252.820 200.216,252.444 200.301,254.986 202.700 L 257.000 204.600 255.015 202.500 C 252.500 199.839,252.788 199.774,248.791 203.900 M1.062 201.100 C 0.894 201.371,34.542 201.370,81.000 201.095 C 90.680 201.038,76.696 200.948,49.924 200.896 C 23.152 200.843,1.164 200.935,1.062 201.100 M325.233 201.346 C 325.325 201.427,341.690 201.566,361.600 201.656 C 381.510 201.746,392.940 201.704,387.000 201.563 C 375.278 201.284,324.962 201.108,325.233 201.346 M101.600 204.600 C 102.346 205.370,103.047 206.000,103.157 206.000 C 103.267 206.000,102.746 205.370,102.000 204.600 C 101.254 203.830,100.553 203.200,100.443 203.200 C 100.333 203.200,100.854 203.830,101.600 204.600 M108.400 211.400 C 109.146 212.170,109.847 212.800,109.957 212.800 C 110.067 212.800,109.546 212.170,108.800 211.400 C 108.054 210.630,107.353 210.000,107.243 210.000 C 107.133 210.000,107.654 210.630,108.400 211.400 M118.400 221.400 C 119.146 222.170,119.847 222.800,119.957 222.800 C 120.067 222.800,119.546 222.170,118.800 221.400 C 118.054 220.630,117.353 220.000,117.243 220.000 C 117.133 220.000,117.654 220.630,118.400 221.400 M152.995 228.500 L 147.400 234.200 153.100 228.605 C 158.395 223.408,158.981 222.800,158.695 222.800 C 158.637 222.800,156.072 225.365,152.995 228.500 M248.000 225.400 C 249.417 226.830,250.667 228.000,250.777 228.000 C 250.887 228.000,249.817 226.830,248.400 225.400 C 246.983 223.970,245.733 222.800,245.623 222.800 C 245.513 222.800,246.583 223.970,248.000 225.400 M121.600 224.600 C 122.346 225.370,123.047 226.000,123.157 226.000 C 123.267 226.000,122.746 225.370,122.000 224.600 C 121.254 223.830,120.553 223.200,120.443 223.200 C 120.333 223.200,120.854 223.830,121.600 224.600 M187.600 226.200 C 189.017 227.630,190.267 228.800,190.377 228.800 C 190.487 228.800,189.417 227.630,188.000 226.200 C 186.583 224.770,185.333 223.600,185.223 223.600 C 185.113 223.600,186.183 224.770,187.600 226.200 M171.612 225.100 L 182.224 225.213 187.606 230.606 L 192.989 236.000 171.616 236.000 L 150.243 236.000 151.622 234.500 L 153.000 233.000 151.500 234.378 C 150.675 235.137,150.000 235.902,150.000 236.078 C 150.000 236.255,159.720 236.400,171.600 236.400 C 183.480 236.400,193.200 236.263,193.200 236.095 C 193.200 235.927,190.723 233.317,187.695 230.295 L 182.190 224.800 171.595 224.893 L 161.000 224.986 171.612 225.100 M157.781 228.100 L 156.200 229.800 157.900 228.219 C 159.481 226.748,159.784 226.400,159.481 226.400 C 159.416 226.400,158.651 227.165,157.781 228.100 M125.200 228.200 C 125.946 228.970,126.647 229.600,126.757 229.600 C 126.867 229.600,126.346 228.970,125.600 228.200 C 124.854 227.430,124.153 226.800,124.043 226.800 C 123.933 226.800,124.454 227.430,125.200 228.200 M253.800 231.600 C 255.328 233.140,256.669 234.400,256.779 234.400 C 256.889 234.400,255.728 233.140,254.200 231.600 C 252.672 230.060,251.331 228.800,251.221 228.800 C 251.111 228.800,252.272 230.060,253.800 231.600 M193.200 231.400 C 194.395 232.610,195.463 233.600,195.573 233.600 C 195.683 233.600,194.795 232.610,193.600 231.400 C 192.405 230.190,191.337 229.200,191.227 229.200 C 191.117 229.200,192.005 230.190,193.200 231.400 M128.400 231.400 C 129.146 232.170,129.847 232.800,129.957 232.800 C 130.067 232.800,129.546 232.170,128.800 231.400 C 128.054 230.630,127.353 230.000,127.243 230.000 C 127.133 230.000,127.654 230.630,128.400 231.400 M138.400 241.400 C 139.146 242.170,139.847 242.800,139.957 242.800 C 140.067 242.800,139.546 242.170,138.800 241.400 C 138.054 240.630,137.353 240.000,137.243 240.000 C 137.133 240.000,137.654 240.630,138.400 241.400 M141.600 244.600 C 142.346 245.370,143.047 246.000,143.157 246.000 C 143.267 246.000,142.746 245.370,142.000 244.600 C 141.254 243.830,140.553 243.200,140.443 243.200 C 140.333 243.200,140.854 243.830,141.600 244.600 M145.200 248.200 C 145.946 248.970,146.647 249.600,146.757 249.600 C 146.867 249.600,146.346 248.970,145.600 248.200 C 144.854 247.430,144.153 246.800,144.043 246.800 C 143.933 246.800,144.454 247.430,145.200 248.200 M148.400 251.400 C 149.146 252.170,149.847 252.800,149.957 252.800 C 150.067 252.800,149.546 252.170,148.800 251.400 C 148.054 250.630,147.353 250.000,147.243 250.000 C 147.133 250.000,147.654 250.630,148.400 251.400 M158.400 261.400 C 159.146 262.170,159.847 262.800,159.957 262.800 C 160.067 262.800,159.546 262.170,158.800 261.400 C 158.054 260.630,157.353 260.000,157.243 260.000 C 157.133 260.000,157.654 260.630,158.400 261.400 M161.600 264.600 C 162.346 265.370,163.047 266.000,163.157 266.000 C 163.267 266.000,162.746 265.370,162.000 264.600 C 161.254 263.830,160.553 263.200,160.443 263.200 C 160.333 263.200,160.854 263.830,161.600 264.600 M168.400 271.400 C 169.146 272.170,169.847 272.800,169.957 272.800 C 170.067 272.800,169.546 272.170,168.800 271.400 C 168.054 270.630,167.353 270.000,167.243 270.000 C 167.133 270.000,167.654 270.630,168.400 271.400 M171.600 274.600 C 172.346 275.370,173.047 276.000,173.157 276.000 C 173.267 276.000,172.746 275.370,172.000 274.600 C 171.254 273.830,170.553 273.200,170.443 273.200 C 170.333 273.200,170.854 273.830,171.600 274.600 M178.400 281.400 C 179.146 282.170,179.847 282.800,179.957 282.800 C 180.067 282.800,179.546 282.170,178.800 281.400 C 178.054 280.630,177.353 280.000,177.243 280.000 C 177.133 280.000,177.654 280.630,178.400 281.400 M188.400 291.400 C 189.146 292.170,189.847 292.800,189.957 292.800 C 190.067 292.800,189.546 292.170,188.800 291.400 C 188.054 290.630,187.353 290.000,187.243 290.000 C 187.133 290.000,187.654 290.630,188.400 291.400 M191.600 294.600 C 192.346 295.370,193.047 296.000,193.157 296.000 C 193.267 296.000,192.746 295.370,192.000 294.600 C 191.254 293.830,190.553 293.200,190.443 293.200 C 190.333 293.200,190.854 293.830,191.600 294.600 M195.200 298.200 C 195.946 298.970,196.647 299.600,196.757 299.600 C 196.867 299.600,196.346 298.970,195.600 298.200 C 194.854 297.430,194.153 296.800,194.043 296.800 C 193.933 296.800,194.454 297.430,195.200 298.200 M200.120 304.800 C 200.120 306.010,200.195 306.505,200.287 305.900 C 200.378 305.295,200.378 304.305,200.287 303.700 C 200.195 303.095,200.120 303.590,200.120 304.800 M202.574 317.000 C 202.575 322.720,202.631 325.004,202.699 322.076 C 202.768 319.148,202.767 314.468,202.699 311.676 C 202.630 308.884,202.574 311.280,202.574 317.000 M199.762 333.000 C 199.762 336.520,199.824 337.906,199.898 336.081 C 199.972 334.256,199.972 331.376,199.897 329.681 C 199.822 327.986,199.761 329.480,199.762 333.000 M202.157 340.000 C 202.157 342.970,202.220 344.185,202.297 342.700 C 202.374 341.215,202.374 338.785,202.297 337.300 C 202.220 335.815,202.157 337.030,202.157 340.000 M199.378 352.200 C 199.378 359.020,199.432 361.866,199.499 358.525 C 199.566 355.184,199.566 349.604,199.499 346.125 C 199.433 342.646,199.378 345.380,199.378 352.200 M201.774 370.000 C 201.774 375.610,201.830 377.905,201.899 375.100 C 201.968 372.295,201.968 367.705,201.899 364.900 C 201.830 362.095,201.774 364.390,201.774 370.000 M198.968 377.800 C 198.968 382.200,199.026 384.055,199.098 381.921 C 199.170 379.788,199.170 376.188,199.099 373.921 C 199.027 371.655,198.968 373.400,198.968 377.800 M201.371 389.200 C 201.371 394.150,201.428 396.175,201.499 393.700 C 201.569 391.225,201.569 387.175,201.499 384.700 C 201.428 382.225,201.371 384.250,201.371 389.200 " stroke="none" fill="#0c645c" fill-rule="evenodd"></path><path id="path4" d="M198.692 0.688 C 199.047 0.940,199.217 3.363,199.304 9.418 L 199.425 17.800 199.413 9.233 C 199.402 1.965,199.309 0.641,198.800 0.503 C 198.364 0.384,198.335 0.435,198.692 0.688 M201.449 1.415 C 201.312 1.773,201.220 2.636,201.244 3.333 C 201.282 4.437,201.333 4.371,201.636 2.825 C 201.993 1.005,201.894 0.257,201.449 1.415 M201.698 63.022 L 201.600 98.243 203.100 99.622 L 204.600 101.000 203.302 99.583 L 202.004 98.166 201.900 62.983 L 201.796 27.800 201.698 63.022 M199.782 74.800 C 199.782 83.710,199.835 87.355,199.900 82.900 C 199.964 78.445,199.964 71.155,199.900 66.700 C 199.835 62.245,199.782 65.890,199.782 74.800 M210.400 106.752 C 210.400 107.142,211.955 108.598,212.123 108.364 C 212.187 108.274,211.826 107.801,211.320 107.314 C 210.814 106.827,210.400 106.574,210.400 106.752 M226.000 122.352 C 226.000 122.742,227.555 124.198,227.723 123.964 C 227.787 123.874,227.426 123.401,226.920 122.914 C 226.414 122.427,226.000 122.174,226.000 122.352 M188.016 165.700 L 182.632 171.200 171.821 171.200 L 161.011 171.200 155.806 166.100 L 150.600 161.000 155.794 166.300 L 160.988 171.600 171.800 171.600 L 182.611 171.600 188.186 166.014 C 191.252 162.942,193.680 160.377,193.581 160.314 C 193.481 160.251,190.977 162.675,188.016 165.700 M208.582 162.102 C 208.476 162.378,208.439 169.173,208.500 177.202 L 208.610 191.800 208.705 176.805 L 208.800 161.811 214.500 167.405 L 220.200 173.000 214.605 167.300 C 208.502 161.082,208.856 161.388,208.582 162.102 M253.371 165.320 L 250.200 168.600 253.500 165.409 L 256.800 162.219 256.800 176.851 L 256.800 191.484 254.624 193.542 C 253.427 194.674,252.578 195.600,252.738 195.600 C 252.897 195.600,253.966 194.649,255.114 193.487 L 257.200 191.375 257.200 176.911 C 257.200 168.956,257.052 162.356,256.871 162.244 C 256.690 162.132,255.115 163.516,253.371 165.320 M147.295 176.814 L 147.200 191.427 149.500 193.614 L 151.800 195.800 149.705 193.593 L 147.610 191.385 147.500 176.793 L 147.390 162.200 147.295 176.814 M151.200 165.800 C 153.060 167.670,154.672 169.200,154.782 169.200 C 154.892 169.200,153.460 167.670,151.600 165.800 C 149.740 163.930,148.128 162.400,148.018 162.400 C 147.908 162.400,149.340 163.930,151.200 165.800 M194.962 162.862 C 194.786 163.146,194.852 163.215,195.133 163.041 C 195.472 162.832,195.619 166.521,195.700 177.279 L 195.810 191.800 195.905 177.100 C 195.994 163.349,195.865 161.401,194.962 162.862 M245.853 172.741 C 245.265 173.391,245.197 174.422,245.300 181.041 L 245.419 188.600 245.509 181.031 C 245.586 174.636,245.703 173.350,246.262 172.731 C 246.626 172.329,246.834 172.000,246.724 172.000 C 246.614 172.000,246.222 172.334,245.853 172.741 M158.717 180.713 L 158.834 188.550 155.317 192.175 L 151.800 195.800 155.500 192.208 L 159.200 188.617 159.200 180.932 C 159.200 176.705,159.065 173.164,158.900 173.061 C 158.735 172.959,158.653 176.402,158.717 180.713 M220.167 180.600 C 220.167 184.780,220.226 186.436,220.298 184.279 C 220.371 182.123,220.370 178.703,220.298 176.679 C 220.225 174.656,220.166 176.420,220.167 180.600 M184.166 180.800 C 184.166 184.870,184.225 186.535,184.298 184.500 C 184.371 182.465,184.371 179.135,184.298 177.100 C 184.225 175.065,184.166 176.730,184.166 180.800 M280.400 176.752 C 280.400 177.142,281.955 178.598,282.123 178.364 C 282.187 178.274,281.826 177.801,281.320 177.314 C 280.814 176.827,280.400 176.574,280.400 176.752 M217.789 194.500 L 215.000 197.400 217.810 194.700 L 220.620 192.000 232.821 192.000 L 245.021 192.000 247.800 194.800 L 250.579 197.600 247.793 200.500 L 245.007 203.400 247.997 200.503 L 250.987 197.607 248.003 194.603 L 245.020 191.600 232.799 191.600 L 220.579 191.600 217.789 194.500 M214.581 194.100 L 213.000 195.800 214.700 194.219 C 216.281 192.748,216.584 192.400,216.281 192.400 C 216.216 192.400,215.451 193.165,214.581 194.100 M250.400 193.800 C 251.146 194.570,251.847 195.200,251.957 195.200 C 252.067 195.200,251.546 194.570,250.800 193.800 C 250.054 193.030,249.353 192.400,249.243 192.400 C 249.133 192.400,249.654 193.030,250.400 193.800 M300.834 197.447 C 301.365 198.133,301.880 198.623,301.979 198.535 C 302.077 198.447,301.643 197.886,301.013 197.288 L 299.869 196.200 300.834 197.447 M1.062 198.500 C 1.164 198.665,23.366 198.800,50.400 198.800 C 77.434 198.800,99.636 198.665,99.738 198.500 C 99.840 198.335,77.638 198.200,50.400 198.200 C 23.162 198.200,0.960 198.335,1.062 198.500 M398.999 198.802 C 398.791 199.139,392.358 199.207,374.458 199.065 L 350.200 198.872 374.548 199.268 C 397.853 199.648,400.508 199.574,399.513 198.580 C 399.385 198.452,399.153 198.552,398.999 198.802 M149.281 202.118 L 147.190 204.235 147.300 219.018 L 147.410 233.800 147.505 218.985 L 147.600 204.170 149.514 202.285 C 151.873 199.961,151.705 199.954,154.387 202.500 L 156.600 204.600 154.414 202.300 C 151.754 199.502,151.861 199.505,149.281 202.118 M190.900 200.265 C 190.625 200.376,190.400 200.654,190.400 200.882 C 190.400 201.133,190.638 201.101,191.000 200.800 C 191.481 200.401,191.739 200.411,192.300 200.851 C 192.934 201.349,192.949 201.334,192.451 200.700 C 191.880 199.972,191.730 199.930,190.900 200.265 M254.624 202.058 L 256.800 204.116 256.895 219.158 L 256.990 234.200 257.100 219.218 L 257.210 204.235 255.119 202.118 C 253.968 200.953,252.897 200.000,252.738 200.000 C 252.578 200.000,253.427 200.926,254.624 202.058 M0.900 200.665 C 0.625 200.776,0.400 201.054,0.400 201.282 C 0.400 201.552,0.591 201.539,0.945 201.246 C 1.345 200.914,14.409 200.821,50.107 200.897 C 76.846 200.954,98.640 200.865,98.538 200.700 C 98.335 200.372,1.712 200.337,0.900 200.665 M307.900 201.099 C 311.035 201.167,316.165 201.167,319.300 201.099 C 322.435 201.032,319.870 200.976,313.600 200.976 C 307.330 200.976,304.765 201.032,307.900 201.099 M383.700 201.499 C 386.505 201.568,391.095 201.568,393.900 201.499 C 396.705 201.430,394.410 201.374,388.800 201.374 C 383.190 201.374,380.895 201.430,383.700 201.499 M195.510 218.736 L 195.619 233.796 192.910 231.198 L 190.200 228.600 192.769 231.281 C 194.183 232.755,195.488 233.870,195.669 233.757 C 196.082 233.502,196.112 204.116,195.700 203.862 C 195.535 203.759,195.449 210.453,195.510 218.736 M158.968 215.000 C 158.968 219.400,159.026 221.255,159.098 219.121 C 159.170 216.988,159.170 213.388,159.099 211.121 C 159.027 208.855,158.968 210.600,158.968 215.000 M245.291 215.010 L 245.200 223.020 248.300 226.010 L 251.400 229.000 248.509 225.999 L 245.618 222.999 245.500 214.999 L 245.382 207.000 245.291 215.010 M184.167 215.000 C 184.167 219.180,184.226 220.836,184.298 218.679 C 184.371 216.523,184.370 213.103,184.298 211.079 C 184.225 209.056,184.166 210.820,184.167 215.000 M294.975 208.900 L 293.800 210.200 295.100 209.025 C 295.815 208.379,296.400 207.794,296.400 207.725 C 296.400 207.416,296.070 207.688,294.975 208.900 M187.807 230.400 C 190.883 233.590,193.482 236.148,193.582 236.084 C 193.683 236.021,191.166 233.411,187.989 230.284 L 182.214 224.600 187.807 230.400 M268.378 235.500 L 267.000 237.000 268.500 235.622 C 269.896 234.338,270.184 234.000,269.878 234.000 C 269.812 234.000,269.137 234.675,268.378 235.500 M255.178 248.700 L 253.800 250.200 255.300 248.822 C 256.696 247.538,256.984 247.200,256.678 247.200 C 256.612 247.200,255.937 247.875,255.178 248.700 M202.567 301.342 C 202.452 301.640,202.415 303.035,202.485 304.442 L 202.611 307.000 202.805 303.899 C 203.000 300.796,202.956 300.327,202.567 301.342 M199.717 301.916 C 200.192 302.666,200.270 304.474,200.149 311.916 C 200.067 316.912,200.075 320.820,200.168 320.600 C 200.871 318.924,200.658 302.719,199.922 301.888 L 199.136 301.000 199.717 301.916 M202.148 330.800 C 202.148 333.110,202.214 334.055,202.295 332.900 C 202.376 331.745,202.376 329.855,202.295 328.700 C 202.214 327.545,202.148 328.490,202.148 330.800 M201.778 347.600 C 201.778 354.530,201.833 357.365,201.899 353.900 C 201.966 350.435,201.966 344.765,201.899 341.300 C 201.833 337.835,201.778 340.670,201.778 347.600 M199.757 344.400 C 199.757 347.370,199.820 348.585,199.897 347.100 C 199.974 345.615,199.974 343.185,199.897 341.700 C 199.820 340.215,199.757 341.430,199.757 344.400 M199.290 372.000 C 199.240 376.290,199.121 383.760,199.027 388.600 L 198.856 397.400 199.227 389.000 C 199.431 384.380,199.550 376.910,199.490 372.400 L 199.383 364.200 199.290 372.000 M201.359 374.800 C 201.359 377.990,201.421 379.295,201.497 377.700 C 201.573 376.105,201.573 373.495,201.497 371.900 C 201.421 370.305,201.359 371.610,201.359 374.800 " stroke="none" fill="#0f4e4c" fill-rule="evenodd"></path></g></svg>