<svg id="svg" version="1.1" xmlns="http://www.w3.org/2000/svg" xmlns:xlink="http://www.w3.org/1999/xlink" width="400" height="400" viewBox="0, 0, 400,400"><g id="svgg"><path id="path0" d="M100.229 100.225 C 45.543 154.908,0.804 199.863,0.809 200.125 C 0.825 200.986,199.482 399.282,200.182 399.136 C 201.121 398.939,399.201 200.752,399.193 200.017 C 399.186 199.319,200.793 0.800,200.103 0.800 C 199.858 0.800,154.914 45.541,100.229 100.225 M195.994 55.802 L 196.000 96.203 181.586 110.602 C 173.659 118.521,151.204 140.974,131.686 160.497 L 96.200 195.994 55.524 195.997 C 30.675 195.999,14.757 195.854,14.616 195.625 C 14.488 195.419,55.092 154.542,104.845 104.788 C 170.614 39.017,195.399 14.471,195.647 14.862 C 195.834 15.158,195.991 33.581,195.994 55.802 M202.304 98.300 C 204.180 99.723,301.112 196.682,302.300 198.324 C 303.408 199.855,303.428 200.470,302.400 201.400 C 301.960 201.798,301.600 202.281,301.600 202.472 C 301.600 202.877,203.329 301.153,202.174 301.903 C 199.928 303.361,205.745 308.823,147.209 250.289 C 99.786 202.867,98.000 201.034,98.000 199.792 C 98.000 198.554,199.150 97.372,200.527 97.233 C 200.706 97.215,201.506 97.695,202.304 98.300 M153.910 165.000 L 159.389 170.400 169.898 170.400 L 180.407 170.400 185.807 165.000 L 191.207 159.600 169.819 159.600 L 148.431 159.600 153.910 165.000 M245.700 167.314 L 240.400 172.666 240.400 180.189 L 240.400 187.711 243.759 191.131 L 247.118 194.551 248.484 193.375 C 251.391 190.876,251.222 191.985,251.105 176.199 L 251.000 161.961 245.700 167.314 M146.000 176.421 L 146.000 190.630 148.003 192.603 L 150.006 194.576 153.403 191.197 L 156.800 187.818 156.800 180.403 L 156.800 172.989 151.400 167.600 L 146.000 162.211 146.000 176.421 M192.953 162.948 C 192.707 163.196,190.322 165.533,187.653 168.141 L 182.800 172.882 182.800 180.366 L 182.800 187.849 186.234 191.186 L 189.667 194.523 191.639 192.552 L 193.610 190.580 193.505 176.538 C 193.428 166.189,193.282 162.614,192.953 162.948 M147.885 201.914 L 146.000 203.827 146.000 218.114 C 146.000 225.971,146.074 232.400,146.164 232.400 C 146.254 232.400,148.684 230.076,151.564 227.236 L 156.800 222.072 156.800 214.425 L 156.800 206.779 153.520 203.389 C 149.653 199.393,150.221 199.542,147.885 201.914 M186.248 203.246 L 182.800 206.585 182.800 214.367 L 182.800 222.150 188.100 227.252 L 193.400 232.354 193.505 218.087 L 193.610 203.820 191.654 201.863 L 189.697 199.907 186.248 203.246 M243.648 203.500 L 240.420 207.000 240.417 214.600 L 240.415 222.200 245.807 227.653 L 251.200 233.107 251.200 218.414 L 251.200 203.721 249.313 201.860 C 246.949 199.530,247.439 199.389,243.648 203.500 M146.766 254.608 C 174.797 282.654,197.579 305.600,197.392 305.600 C 197.205 305.600,196.635 305.209,196.126 304.730 L 195.200 303.861 195.200 344.530 C 195.200 366.899,195.065 385.200,194.900 385.200 C 194.333 385.200,13.567 204.167,13.850 203.883 C 14.006 203.727,32.508 203.604,54.967 203.608 L 95.800 203.616 146.766 254.608 M385.556 204.622 C 385.865 204.931,203.506 387.189,203.124 386.953 C 202.946 386.843,202.800 368.662,202.800 346.552 L 202.800 306.351 253.962 255.275 L 305.124 204.200 345.234 204.306 C 367.295 204.364,385.440 204.506,385.556 204.622 M153.845 230.000 L 148.235 235.600 169.812 235.600 L 191.389 235.600 185.800 230.000 L 180.211 224.400 169.833 224.400 L 159.456 224.400 153.845 230.000 " stroke="none" fill="#0cb39b" fill-rule="evenodd"></path><path id="path1" d="M105.000 105.600 L 15.001 195.600 55.296 195.600 L 95.591 195.600 145.396 145.863 L 195.200 96.126 195.200 55.863 C 195.200 33.718,195.155 15.600,195.100 15.600 C 195.044 15.600,154.500 56.100,105.000 105.600 M198.883 99.205 C 197.938 100.082,197.074 100.800,196.964 100.800 C 196.776 100.800,195.910 101.689,194.364 103.468 C 194.014 103.871,193.069 104.770,192.264 105.466 C 191.459 106.162,190.800 106.850,190.800 106.994 C 190.800 107.345,189.731 108.400,189.376 108.400 C 188.969 108.400,186.400 111.188,186.400 111.628 C 186.400 111.833,186.235 112.000,186.032 112.000 C 185.547 112.000,178.800 118.740,178.800 119.225 C 178.800 119.431,178.665 119.601,178.500 119.602 C 178.018 119.605,175.200 122.318,175.200 122.780 C 175.200 123.011,175.038 123.200,174.840 123.200 C 174.388 123.200,170.800 126.812,170.800 127.266 C 170.800 127.450,170.619 127.600,170.398 127.600 C 169.900 127.600,163.200 134.336,163.200 134.836 C 163.200 135.036,163.065 135.201,162.900 135.202 C 162.525 135.204,159.600 137.869,159.600 138.208 C 159.600 138.531,158.531 139.600,158.208 139.600 C 157.869 139.600,155.204 142.525,155.202 142.900 C 155.201 143.065,155.014 143.200,154.787 143.200 C 154.269 143.200,152.000 145.491,152.000 146.014 C 152.000 146.226,151.861 146.400,151.691 146.400 C 151.175 146.400,147.600 149.840,147.600 150.336 C 147.600 150.591,147.465 150.801,147.300 150.802 C 146.925 150.804,144.000 153.469,144.000 153.808 C 144.000 154.120,142.936 155.200,142.629 155.200 C 142.285 155.200,140.941 156.612,140.181 157.773 C 139.811 158.338,139.343 158.800,139.141 158.800 C 138.657 158.800,136.400 161.117,136.400 161.614 C 136.400 161.826,136.258 162.000,136.085 162.000 C 135.600 162.000,132.000 165.508,132.000 165.981 C 132.000 166.211,131.833 166.400,131.628 166.400 C 131.084 166.400,128.400 169.017,128.400 169.547 C 128.400 169.796,128.248 170.000,128.061 170.000 C 127.720 170.000,125.708 171.878,124.161 173.643 C 123.699 174.169,122.762 175.050,122.078 175.600 C 121.394 176.150,120.826 176.748,120.817 176.929 C 120.795 177.354,119.749 178.400,119.346 178.400 C 118.974 178.400,116.419 181.270,116.408 181.700 C 116.403 181.865,116.231 182.000,116.026 182.000 C 115.724 182.000,109.992 187.600,108.153 189.692 C 107.907 189.971,107.150 190.650,106.470 191.200 C 105.790 191.750,105.226 192.425,105.217 192.700 C 105.208 192.975,105.034 193.200,104.832 193.200 C 104.463 193.200,102.539 195.145,99.804 198.284 L 98.336 199.968 99.668 201.666 C 101.245 203.677,197.435 300.000,197.866 300.000 C 198.029 300.000,198.767 300.585,199.507 301.300 C 200.723 302.476,200.889 302.533,201.246 301.900 C 201.462 301.515,201.819 301.200,202.037 301.200 C 202.439 301.200,299.266 204.467,301.306 202.027 C 301.915 201.299,302.515 200.538,302.640 200.335 C 303.154 199.504,201.812 97.441,200.636 97.605 C 200.616 97.608,199.827 98.328,198.883 99.205 M191.747 159.481 C 191.902 159.635,189.549 162.245,186.519 165.281 L 181.011 170.800 169.908 170.800 L 158.805 170.800 153.228 165.242 C 150.160 162.184,147.759 159.574,147.892 159.442 C 148.233 159.101,191.406 159.139,191.747 159.481 M252.000 175.911 L 252.000 190.622 249.800 192.911 C 247.077 195.745,247.632 195.852,243.492 191.692 L 240.000 188.184 240.000 180.197 L 240.000 172.210 245.495 166.705 C 248.517 163.677,251.217 161.200,251.495 161.200 C 251.893 161.200,252.000 164.326,252.000 175.911 M151.975 167.272 L 157.600 172.743 157.600 180.264 L 157.600 187.785 153.908 191.492 C 149.562 195.857,150.167 195.698,147.524 193.164 L 145.400 191.129 145.279 177.664 C 145.161 164.441,145.296 161.424,145.998 161.674 C 146.191 161.743,148.881 164.262,151.975 167.272 M194.305 176.293 L 194.410 190.720 192.188 192.960 C 189.463 195.707,190.157 195.847,185.950 191.707 L 182.400 188.213 182.400 180.334 L 182.400 172.455 187.900 167.037 C 190.925 164.057,193.580 161.674,193.800 161.742 C 194.054 161.821,194.238 167.117,194.305 176.293 M153.926 202.946 L 157.600 206.692 157.600 214.419 L 157.600 222.146 151.822 227.961 C 148.644 231.160,145.899 233.633,145.722 233.456 C 145.357 233.091,145.046 205.485,145.392 204.098 C 145.636 203.118,149.132 199.282,149.826 199.231 C 150.061 199.214,151.906 200.886,153.926 202.946 M192.148 201.470 L 194.400 203.740 194.400 218.470 C 194.400 231.101,194.317 233.200,193.817 233.200 C 193.497 233.200,190.797 230.807,187.817 227.882 L 182.400 222.564 182.400 214.389 L 182.400 206.215 185.900 202.720 C 190.066 198.560,189.395 198.695,192.148 201.470 M249.800 201.489 L 252.000 203.778 252.000 218.889 C 252.000 229.821,251.875 234.000,251.550 234.000 C 251.302 234.000,248.602 231.438,245.550 228.306 L 240.000 222.612 240.000 214.470 L 240.000 206.329 243.479 202.764 C 247.601 198.541,247.070 198.648,249.800 201.489 M15.070 204.639 C 15.384 205.458,19.117 209.200,19.619 209.200 C 19.829 209.200,20.000 209.356,20.000 209.547 C 20.000 210.016,25.563 215.600,26.030 215.600 C 26.234 215.600,26.400 215.769,26.400 215.976 C 26.400 216.485,29.892 220.000,30.398 220.000 C 30.619 220.000,30.800 220.174,30.800 220.387 C 30.800 220.882,33.506 223.600,33.999 223.600 C 34.204 223.600,34.564 223.958,34.798 224.397 C 35.354 225.435,41.553 231.600,42.042 231.600 C 42.248 231.600,42.613 232.030,42.853 232.556 C 43.092 233.082,43.718 233.708,44.244 233.947 C 44.770 234.187,45.200 234.560,45.200 234.776 C 45.200 235.277,51.539 241.600,52.042 241.600 C 52.248 241.600,52.622 242.050,52.873 242.600 C 53.123 243.150,53.563 243.600,53.850 243.600 C 54.137 243.600,54.562 243.955,54.794 244.389 C 55.352 245.431,59.132 249.200,59.619 249.200 C 59.829 249.200,60.000 249.356,60.000 249.547 C 60.000 250.016,65.563 255.600,66.030 255.600 C 66.234 255.600,66.400 255.769,66.400 255.976 C 66.400 256.485,69.892 260.000,70.398 260.000 C 70.619 260.000,70.800 260.174,70.800 260.387 C 70.800 260.882,73.506 263.600,73.999 263.600 C 74.204 263.600,74.564 263.958,74.798 264.397 C 75.354 265.435,81.553 271.600,82.042 271.600 C 82.248 271.600,82.622 272.050,82.873 272.600 C 83.123 273.150,83.563 273.600,83.850 273.600 C 84.137 273.600,84.558 273.947,84.785 274.372 C 85.350 275.428,89.915 280.000,90.405 280.000 C 90.622 280.000,90.800 280.180,90.800 280.400 C 90.800 280.764,91.760 281.767,95.065 284.862 C 95.689 285.447,96.434 286.167,96.720 286.462 C 97.006 286.758,97.546 287.311,97.920 287.690 C 98.294 288.070,99.797 289.600,101.260 291.090 C 102.723 292.581,104.433 294.278,105.060 294.862 C 105.687 295.447,106.380 296.113,106.600 296.342 C 106.820 296.572,107.360 297.124,107.800 297.569 C 108.240 298.014,110.194 300.003,112.143 301.989 C 114.091 303.975,115.846 305.600,116.043 305.600 C 116.239 305.600,116.400 305.774,116.400 305.987 C 116.400 306.490,119.110 309.200,119.613 309.200 C 119.826 309.200,120.000 309.356,120.000 309.547 C 120.000 310.016,125.563 315.600,126.030 315.600 C 126.234 315.600,126.400 315.776,126.400 315.991 C 126.400 316.487,131.544 321.600,132.044 321.600 C 132.249 321.600,132.622 322.050,132.873 322.600 C 133.123 323.150,133.563 323.600,133.850 323.600 C 134.137 323.600,134.562 323.955,134.794 324.389 C 135.352 325.431,139.132 329.200,139.619 329.200 C 139.829 329.200,140.000 329.356,140.000 329.547 C 140.000 330.016,145.563 335.600,146.030 335.600 C 146.234 335.600,146.400 335.769,146.400 335.976 C 146.400 336.485,149.892 340.000,150.398 340.000 C 150.619 340.000,150.800 340.174,150.800 340.387 C 150.800 340.882,153.506 343.600,153.999 343.600 C 154.204 343.600,154.564 343.958,154.798 344.397 C 155.354 345.435,161.553 351.600,162.042 351.600 C 162.248 351.600,162.622 352.050,162.873 352.600 C 163.123 353.150,163.563 353.600,163.850 353.600 C 164.137 353.600,164.558 353.947,164.785 354.372 C 165.350 355.428,169.915 360.000,170.405 360.000 C 170.622 360.000,170.800 360.180,170.800 360.400 C 170.800 360.764,171.760 361.767,175.065 364.862 C 175.689 365.447,176.407 366.140,176.660 366.402 C 176.913 366.665,177.453 367.218,177.860 367.630 C 178.267 368.043,179.797 369.600,181.260 371.090 C 182.723 372.581,184.433 374.278,185.060 374.862 C 185.687 375.447,186.407 376.140,186.660 376.402 C 187.156 376.917,187.135 376.896,191.600 381.441 L 194.600 384.495 194.702 344.052 L 194.804 303.608 145.011 253.804 L 95.219 204.000 55.022 204.000 C 18.378 204.000,14.847 204.056,15.070 204.639 M254.264 255.859 L 203.200 306.918 203.200 346.839 L 203.200 386.760 294.000 295.960 C 343.940 246.020,384.800 205.079,384.800 204.980 C 384.800 204.881,366.919 204.800,345.064 204.800 L 305.328 204.800 254.264 255.859 M186.319 229.719 C 189.459 232.865,191.902 235.565,191.747 235.719 C 191.387 236.079,148.223 236.090,147.863 235.730 C 147.714 235.581,150.159 232.883,153.296 229.735 L 159.000 224.010 169.805 224.005 L 180.610 224.000 186.319 229.719 " stroke="none" fill="#041c1c" fill-rule="evenodd"></path><path id="path2" d="M196.993 2.272 C 196.007 3.301,195.200 4.291,195.200 4.472 C 195.200 4.652,195.028 4.800,194.818 4.800 C 194.220 4.800,192.400 6.771,192.400 7.418 C 192.400 7.738,192.106 8.000,191.747 8.000 C 191.020 8.000,187.200 11.698,187.200 12.401 C 187.200 12.646,187.020 12.736,186.800 12.600 C 186.580 12.464,186.400 12.543,186.400 12.776 C 186.400 13.009,186.040 13.560,185.600 14.000 C 185.160 14.440,184.800 14.998,184.800 15.240 C 184.800 15.482,188.143 12.332,192.230 8.240 C 196.316 4.148,199.859 0.800,200.104 0.800 C 200.793 0.800,399.186 199.320,399.193 200.017 C 399.201 200.752,201.121 398.939,200.182 399.136 C 199.460 399.287,0.824 200.972,0.809 200.085 C 0.804 199.802,1.633 198.760,2.652 197.770 C 3.670 196.780,4.366 195.842,4.197 195.685 C 4.028 195.528,3.810 195.625,3.712 195.900 C 3.614 196.175,3.367 196.400,3.163 196.400 C 2.166 196.400,0.400 198.736,0.400 200.054 C 0.400 201.366,1.447 202.800,2.405 202.800 C 2.622 202.800,2.800 202.995,2.800 203.234 C 2.800 203.794,31.817 232.800,32.377 232.800 C 32.610 232.800,32.800 232.993,32.800 233.230 C 32.800 233.791,41.809 242.800,42.370 242.800 C 42.607 242.800,42.800 242.995,42.800 243.233 C 42.800 243.793,71.816 272.800,72.376 272.800 C 72.609 272.800,72.800 272.994,72.800 273.232 C 72.800 273.789,96.454 297.432,96.879 297.300 C 97.056 297.245,97.200 297.384,97.200 297.609 C 97.200 298.156,106.452 307.427,106.871 307.300 C 107.052 307.245,107.200 307.395,107.200 307.633 C 107.200 308.201,121.796 322.800,122.364 322.800 C 122.604 322.800,122.800 322.997,122.800 323.238 C 122.800 323.798,151.821 352.800,152.381 352.800 C 152.612 352.800,152.800 352.992,152.800 353.227 C 152.800 353.780,176.459 377.432,176.880 377.300 C 177.056 377.245,177.200 377.384,177.200 377.609 C 177.200 378.156,186.452 387.427,186.871 387.300 C 187.052 387.245,187.200 387.389,187.200 387.621 C 187.200 388.455,198.577 399.473,199.729 399.754 C 201.093 400.087,400.000 201.730,400.000 200.037 C 400.000 199.151,394.068 192.800,393.241 192.800 C 392.999 192.800,392.800 192.605,392.800 192.366 C 392.800 191.799,363.802 162.800,363.234 162.800 C 362.996 162.800,362.800 162.611,362.800 162.380 C 362.800 161.838,358.155 157.200,357.612 157.200 C 357.386 157.200,357.245 157.058,357.300 156.885 C 357.435 156.460,345.802 144.800,345.243 144.800 C 344.999 144.800,344.800 144.599,344.800 144.353 C 344.800 143.788,328.185 127.200,327.619 127.200 C 327.389 127.200,327.245 127.054,327.300 126.875 C 327.432 126.446,303.796 102.800,303.234 102.800 C 302.995 102.800,302.800 102.607,302.800 102.370 C 302.800 101.809,293.791 92.800,293.230 92.800 C 292.993 92.800,292.800 92.606,292.800 92.369 C 292.800 91.805,268.198 67.200,267.633 67.200 C 267.395 67.200,267.245 67.052,267.300 66.871 C 267.427 66.452,258.156 57.200,257.609 57.200 C 257.384 57.200,257.245 57.056,257.300 56.880 C 257.433 56.455,238.192 37.200,237.634 37.200 C 237.395 37.200,237.245 37.055,237.300 36.877 C 237.432 36.452,208.187 7.200,207.630 7.200 C 207.393 7.200,207.245 7.055,207.300 6.877 C 207.355 6.700,206.022 5.170,204.337 3.477 C 200.497 -0.380,199.665 -0.517,196.993 2.272 M180.434 18.744 C 178.655 20.472,177.200 22.122,177.200 22.410 C 177.200 22.698,177.082 22.816,176.939 22.672 C 176.795 22.528,176.255 22.983,175.739 23.683 C 173.724 26.414,175.001 25.477,179.600 20.849 C 182.240 18.193,184.400 15.925,184.400 15.810 C 184.400 15.141,183.310 15.947,180.434 18.744 M171.639 27.563 C 170.451 28.684,169.738 29.638,169.976 29.785 C 170.345 30.013,174.400 26.378,174.400 25.819 C 174.400 25.228,173.531 25.777,171.639 27.563 M166.994 32.227 C 166.117 33.231,165.340 34.221,165.267 34.427 C 165.193 34.632,164.890 34.800,164.594 34.800 C 164.297 34.800,163.940 35.160,163.800 35.600 C 163.660 36.040,163.288 36.400,162.973 36.400 C 162.658 36.400,162.400 36.760,162.400 37.200 C 162.400 37.674,162.133 38.000,161.747 38.000 C 161.020 38.000,157.200 41.698,157.200 42.401 C 157.200 42.646,157.059 42.760,156.887 42.654 C 156.564 42.454,154.561 45.106,154.842 45.361 C 154.929 45.440,158.391 42.106,162.535 37.952 C 167.438 33.039,169.812 30.400,169.329 30.400 C 168.921 30.400,167.870 31.222,166.994 32.227 M153.600 46.000 C 153.600 46.220,153.413 46.400,153.184 46.400 C 152.497 46.400,149.558 49.527,149.992 49.795 C 150.213 49.932,151.296 49.142,152.397 48.041 C 154.444 45.994,154.703 45.600,154.000 45.600 C 153.780 45.600,153.600 45.780,153.600 46.000 M147.642 51.560 C 146.959 52.199,146.400 52.829,146.400 52.960 C 146.400 53.239,144.888 54.800,144.618 54.800 C 144.174 54.800,142.400 56.894,142.400 57.418 C 142.400 57.738,142.080 58.000,141.689 58.000 C 140.804 58.000,139.468 59.471,140.034 59.821 C 140.256 59.958,142.601 57.894,145.247 55.235 C 149.364 51.096,151.271 48.171,147.642 51.560 M137.500 61.614 C 136.895 62.274,136.400 62.901,136.400 63.007 C 136.400 63.252,134.862 64.800,134.618 64.800 C 134.174 64.800,132.400 66.894,132.400 67.418 C 132.400 67.738,132.106 68.000,131.747 68.000 C 131.020 68.000,127.200 71.698,127.200 72.401 C 127.200 72.646,127.059 72.760,126.887 72.654 C 126.564 72.454,124.561 75.106,124.842 75.361 C 124.929 75.440,128.391 72.106,132.535 67.952 C 137.339 63.138,139.804 60.403,139.335 60.408 C 138.931 60.412,138.105 60.955,137.500 61.614 M121.639 77.563 C 120.451 78.684,119.738 79.638,119.976 79.785 C 120.345 80.013,124.400 76.378,124.400 75.819 C 124.400 75.228,123.531 75.777,121.639 77.563 M116.994 82.227 C 116.117 83.231,115.340 84.221,115.267 84.427 C 115.193 84.632,114.890 84.800,114.594 84.800 C 114.297 84.800,113.940 85.160,113.800 85.600 C 113.660 86.040,113.288 86.400,112.973 86.400 C 112.658 86.400,112.400 86.760,112.400 87.200 C 112.400 87.674,112.133 88.000,111.747 88.000 C 111.020 88.000,107.200 91.698,107.200 92.401 C 107.200 92.646,107.059 92.760,106.887 92.654 C 106.564 92.454,104.561 95.106,104.842 95.361 C 104.929 95.440,108.391 92.106,112.535 87.952 C 117.438 83.039,119.812 80.400,119.329 80.400 C 118.921 80.400,117.870 81.222,116.994 82.227 M103.600 96.000 C 103.600 96.220,103.409 96.400,103.175 96.400 C 102.622 96.400,97.200 101.864,97.200 102.421 C 97.200 102.655,97.020 102.736,96.800 102.600 C 96.580 102.464,96.400 102.543,96.400 102.776 C 96.400 103.009,96.040 103.560,95.600 104.000 C 95.160 104.440,94.800 104.998,94.800 105.239 C 94.800 105.481,96.960 103.505,99.600 100.849 C 104.396 96.024,104.751 95.600,104.000 95.600 C 103.780 95.600,103.600 95.780,103.600 96.000 M91.639 107.563 C 90.451 108.684,89.738 109.638,89.976 109.785 C 90.345 110.013,94.400 106.378,94.400 105.819 C 94.400 105.228,93.531 105.777,91.639 107.563 M87.500 111.614 C 86.895 112.274,86.400 112.901,86.400 113.007 C 86.400 113.252,84.862 114.800,84.618 114.800 C 84.174 114.800,82.400 116.894,82.400 117.418 C 82.400 117.738,82.109 118.000,81.753 118.000 C 80.913 118.000,78.000 120.913,78.000 121.753 C 78.000 122.109,77.761 122.400,77.468 122.400 C 76.689 122.400,70.322 128.723,70.472 129.348 C 70.543 129.640,74.983 125.496,80.340 120.139 C 86.502 113.977,89.808 110.403,89.340 110.408 C 88.933 110.412,88.105 110.955,87.500 111.614 M67.500 131.693 C 65.764 133.555,65.240 134.400,65.819 134.400 C 66.396 134.400,70.057 130.298,69.750 129.996 C 69.553 129.804,68.568 130.547,67.500 131.693 M160.575 131.300 L 159.400 132.600 160.700 131.425 C 161.415 130.779,162.000 130.194,162.000 130.125 C 162.000 129.816,161.670 130.088,160.575 131.300 M63.907 135.600 C 63.632 136.040,63.170 136.400,62.880 136.400 C 62.590 136.400,62.464 136.580,62.600 136.800 C 62.736 137.020,62.631 137.200,62.367 137.200 C 61.817 137.200,55.600 143.478,55.600 144.034 C 55.600 144.747,56.069 144.350,60.849 139.600 C 63.505 136.960,65.393 134.800,65.043 134.800 C 64.693 134.800,64.182 135.160,63.907 135.600 M150.975 140.900 L 149.800 142.200 151.100 141.025 C 152.312 139.930,152.584 139.600,152.275 139.600 C 152.206 139.600,151.621 140.185,150.975 140.900 M53.907 145.600 C 53.632 146.040,53.170 146.400,52.880 146.400 C 52.590 146.400,52.464 146.580,52.600 146.800 C 52.736 147.020,52.639 147.200,52.384 147.200 C 51.711 147.200,48.000 151.096,48.000 151.802 C 48.000 152.133,47.643 152.400,47.200 152.400 C 46.756 152.400,46.400 152.667,46.400 153.000 C 46.400 153.330,46.260 153.600,46.088 153.600 C 45.446 153.600,40.343 158.801,40.469 159.326 C 40.543 159.638,43.841 156.632,48.136 152.337 C 52.280 148.192,55.387 144.800,55.039 144.800 C 54.691 144.800,54.182 145.160,53.907 145.600 M135.389 156.500 L 132.600 159.400 135.500 156.611 C 138.194 154.020,138.583 153.600,138.289 153.600 C 138.228 153.600,136.923 154.905,135.389 156.500 M38.300 160.794 C 37.695 161.429,37.200 162.151,37.200 162.398 C 37.200 162.645,37.020 162.736,36.800 162.600 C 36.580 162.464,36.400 162.543,36.400 162.776 C 36.400 163.009,36.040 163.560,35.600 164.000 C 35.160 164.440,34.800 164.997,34.800 165.237 C 34.800 165.477,35.970 164.504,37.400 163.074 C 39.754 160.720,40.522 159.566,39.700 159.619 C 39.535 159.630,38.905 160.158,38.300 160.794 M127.775 164.100 L 126.600 165.400 127.900 164.225 C 129.112 163.130,129.384 162.800,129.075 162.800 C 129.006 162.800,128.421 163.385,127.775 164.100 M31.639 167.563 C 30.451 168.684,29.738 169.638,29.976 169.785 C 30.345 170.013,34.400 166.378,34.400 165.819 C 34.400 165.228,33.531 165.777,31.639 167.563 M26.994 172.227 C 26.117 173.231,25.340 174.221,25.267 174.427 C 25.193 174.632,24.985 174.800,24.805 174.800 C 24.156 174.800,19.590 179.547,19.997 179.798 C 20.225 179.939,22.583 177.882,25.238 175.227 C 28.458 172.007,29.819 170.400,29.326 170.400 C 28.920 170.400,27.870 171.222,26.994 172.227 M112.985 178.900 L 111.000 181.000 113.100 179.015 C 114.255 177.923,115.200 176.978,115.200 176.915 C 115.200 176.617,114.829 176.949,112.985 178.900 M16.994 182.227 C 16.117 183.231,15.340 184.221,15.267 184.427 C 15.193 184.632,14.890 184.800,14.594 184.800 C 14.297 184.800,13.940 185.160,13.800 185.600 C 13.660 186.040,13.288 186.400,12.973 186.400 C 12.658 186.400,12.400 186.760,12.400 187.200 C 12.400 187.674,12.133 188.000,11.747 188.000 C 11.020 188.000,7.200 191.698,7.200 192.401 C 7.200 192.646,7.059 192.760,6.887 192.654 C 6.564 192.454,4.561 195.106,4.842 195.361 C 4.929 195.440,8.391 192.106,12.535 187.952 C 17.438 183.039,19.812 180.400,19.329 180.400 C 18.921 180.400,17.870 181.222,16.994 182.227 M107.775 184.100 L 106.600 185.400 107.900 184.225 C 109.112 183.130,109.384 182.800,109.075 182.800 C 109.006 182.800,108.421 183.385,107.775 184.100 M104.778 187.100 L 103.400 188.600 104.900 187.222 C 105.725 186.463,106.400 185.788,106.400 185.722 C 106.400 185.416,106.062 185.704,104.778 187.100 M96.678 195.013 C 96.060 195.556,95.714 196.000,95.908 196.000 C 96.102 196.000,96.683 195.550,97.200 195.000 C 98.395 193.728,98.131 193.734,96.678 195.013 M302.386 206.700 L 300.200 209.000 302.500 206.814 C 303.765 205.611,304.800 204.576,304.800 204.514 C 304.800 204.217,304.418 204.563,302.386 206.700 M124.800 233.000 C 125.546 233.770,126.247 234.400,126.357 234.400 C 126.467 234.400,125.946 233.770,125.200 233.000 C 124.454 232.230,123.753 231.600,123.643 231.600 C 123.533 231.600,124.054 232.230,124.800 233.000 M132.400 240.600 C 133.146 241.370,133.847 242.000,133.957 242.000 C 134.067 242.000,133.546 241.370,132.800 240.600 C 132.054 239.830,131.353 239.200,131.243 239.200 C 131.133 239.200,131.654 239.830,132.400 240.600 M140.000 248.200 C 140.746 248.970,141.447 249.600,141.557 249.600 C 141.667 249.600,141.146 248.970,140.400 248.200 C 139.654 247.430,138.953 246.800,138.843 246.800 C 138.733 246.800,139.254 247.430,140.000 248.200 M148.000 256.200 C 148.746 256.970,149.447 257.600,149.557 257.600 C 149.667 257.600,149.146 256.970,148.400 256.200 C 147.654 255.430,146.953 254.800,146.843 254.800 C 146.733 254.800,147.254 255.430,148.000 256.200 M155.800 264.000 C 156.659 264.880,157.452 265.600,157.562 265.600 C 157.672 265.600,157.059 264.880,156.200 264.000 C 155.341 263.120,154.548 262.400,154.438 262.400 C 154.328 262.400,154.941 263.120,155.800 264.000 M163.600 271.800 C 164.346 272.570,165.047 273.200,165.157 273.200 C 165.267 273.200,164.746 272.570,164.000 271.800 C 163.254 271.030,162.553 270.400,162.443 270.400 C 162.333 270.400,162.854 271.030,163.600 271.800 M171.200 279.400 C 171.946 280.170,172.647 280.800,172.757 280.800 C 172.867 280.800,172.346 280.170,171.600 279.400 C 170.854 278.630,170.153 278.000,170.043 278.000 C 169.933 278.000,170.454 278.630,171.200 279.400 M210.796 298.300 L 202.600 306.600 210.900 298.404 C 215.465 293.896,219.200 290.161,219.200 290.104 C 219.200 289.819,218.412 290.588,210.796 298.300 M195.200 303.464 C 195.200 303.939,197.124 305.809,197.365 305.568 C 197.458 305.476,197.008 304.875,196.367 304.233 C 195.725 303.592,195.200 303.245,195.200 303.464 " stroke="none" fill="#828887" fill-rule="evenodd"></path><path id="path3" d="M105.000 105.300 L 14.600 195.800 104.900 105.600 L 195.200 15.401 195.200 55.777 L 195.200 96.154 181.675 109.677 C 174.236 117.115,168.252 123.200,168.377 123.200 C 168.502 123.200,174.679 117.123,182.104 109.696 L 195.604 96.192 195.502 55.496 L 195.400 14.799 105.000 105.300 M201.200 98.106 C 201.200 98.194,201.965 98.874,202.900 99.617 C 203.835 100.360,204.346 100.652,204.036 100.265 C 203.451 99.537,201.200 97.823,201.200 98.106 M193.578 103.863 C 192.486 105.023,192.420 105.168,193.262 104.563 C 194.180 103.903,195.445 102.400,195.082 102.400 C 195.013 102.400,194.337 103.058,193.578 103.863 M208.121 104.589 C 208.958 105.415,209.731 106.002,209.840 105.894 C 209.948 105.785,209.264 105.110,208.318 104.392 L 206.600 103.088 208.121 104.589 M210.400 106.752 C 210.400 107.142,211.955 108.598,212.123 108.364 C 212.187 108.274,211.826 107.801,211.320 107.314 C 210.814 106.827,210.400 106.574,210.400 106.752 M189.802 107.598 C 189.403 108.039,189.207 108.400,189.367 108.400 C 189.788 108.400,190.928 107.195,190.712 106.979 C 190.611 106.878,190.202 107.156,189.802 107.598 M177.570 119.868 L 176.600 120.936 177.687 120.168 C 178.286 119.746,178.781 119.265,178.787 119.100 C 178.808 118.607,178.589 118.746,177.570 119.868 M226.000 122.352 C 226.000 122.742,227.555 124.198,227.723 123.964 C 227.787 123.874,227.426 123.401,226.920 122.914 C 226.414 122.427,226.000 122.174,226.000 122.352 M228.400 124.567 C 228.400 124.988,229.605 126.128,229.821 125.912 C 229.922 125.811,229.644 125.402,229.202 125.002 C 228.761 124.603,228.400 124.407,228.400 124.567 M170.800 126.600 C 170.283 127.150,170.027 127.594,170.230 127.587 C 170.572 127.576,172.221 125.600,171.888 125.600 C 171.806 125.600,171.317 126.050,170.800 126.600 M163.326 127.829 C 162.850 128.363,162.599 128.800,162.768 128.800 C 163.177 128.800,164.575 127.242,164.360 127.026 C 164.267 126.933,163.801 127.295,163.326 127.829 M166.232 131.113 L 165.464 132.200 166.532 131.230 C 167.654 130.211,167.793 129.992,167.300 130.013 C 167.135 130.019,166.654 130.514,166.232 131.113 M161.970 135.468 L 161.000 136.536 162.087 135.768 C 162.686 135.346,163.181 134.865,163.187 134.700 C 163.208 134.207,162.989 134.346,161.970 135.468 M155.467 135.700 C 155.063 136.122,154.809 136.543,154.902 136.636 C 154.995 136.729,155.399 136.443,155.800 136.000 C 156.739 134.962,156.435 134.688,155.467 135.700 M158.602 138.798 C 158.203 139.239,158.007 139.600,158.167 139.600 C 158.588 139.600,159.728 138.395,159.512 138.179 C 159.411 138.078,159.002 138.356,158.602 138.798 M155.200 142.200 C 154.683 142.750,154.427 143.194,154.630 143.187 C 154.972 143.176,156.621 141.200,156.288 141.200 C 156.206 141.200,155.717 141.650,155.200 142.200 M248.400 144.535 C 248.400 144.944,250.727 147.424,250.886 147.186 C 250.954 147.083,250.423 146.376,249.705 145.614 C 248.987 144.851,248.400 144.366,248.400 144.535 M150.843 146.444 C 150.317 146.871,149.957 147.290,150.043 147.376 C 150.130 147.461,150.630 147.182,151.157 146.756 C 151.683 146.329,152.043 145.910,151.957 145.824 C 151.870 145.739,151.370 146.018,150.843 146.444 M146.370 151.068 L 145.400 152.136 146.487 151.368 C 147.086 150.946,147.581 150.465,147.587 150.300 C 147.608 149.807,147.389 149.946,146.370 151.068 M139.900 151.233 C 139.515 151.655,139.352 152.000,139.538 152.000 C 139.724 152.000,140.202 151.640,140.600 151.200 C 140.998 150.760,141.161 150.415,140.962 150.433 C 140.763 150.452,140.285 150.812,139.900 151.233 M257.200 153.590 C 257.200 153.951,259.622 156.111,259.813 155.921 C 259.893 155.841,259.338 155.221,258.579 154.544 C 257.821 153.866,257.200 153.437,257.200 153.590 M143.002 154.398 C 142.603 154.839,142.407 155.200,142.567 155.200 C 142.988 155.200,144.128 153.995,143.912 153.779 C 143.811 153.678,143.402 153.956,143.002 154.398 M139.600 157.800 C 139.083 158.350,138.851 158.800,139.084 158.800 C 139.317 158.800,139.803 158.350,140.163 157.800 C 140.524 157.250,140.756 156.800,140.679 156.800 C 140.602 156.800,140.117 157.250,139.600 157.800 M191.312 159.458 C 191.442 159.668,189.056 162.306,186.009 165.320 C 182.962 168.334,180.591 170.800,180.740 170.800 C 181.482 170.800,192.050 159.678,191.582 159.389 C 191.291 159.209,191.176 159.238,191.312 159.458 M149.200 160.892 C 149.200 161.285,158.817 170.917,159.013 170.721 C 159.101 170.633,156.929 168.322,154.186 165.586 C 151.444 162.850,149.200 160.738,149.200 160.892 M135.170 162.268 L 134.200 163.336 135.287 162.568 C 135.886 162.146,136.381 161.665,136.387 161.500 C 136.408 161.007,136.189 161.146,135.170 162.268 M245.395 166.900 L 239.800 172.600 245.405 167.100 C 248.488 164.075,251.143 161.600,251.305 161.600 C 251.467 161.600,251.600 168.139,251.600 176.130 L 251.600 190.661 250.602 191.599 C 250.052 192.114,249.683 192.617,249.781 192.714 C 249.879 192.812,250.413 192.377,250.967 191.746 L 251.975 190.600 251.987 175.900 C 251.997 164.317,251.893 161.200,251.495 161.200 C 251.217 161.200,248.472 163.765,245.395 166.900 M151.453 167.267 L 157.200 172.964 157.200 180.390 L 157.200 187.817 153.603 191.397 L 150.005 194.978 147.803 192.803 C 146.591 191.606,145.600 190.783,145.600 190.974 C 145.600 191.380,149.515 195.200,149.931 195.200 C 150.088 195.200,151.877 193.532,153.908 191.492 L 157.600 187.785 157.600 180.264 L 157.600 172.743 151.975 167.272 C 148.881 164.262,146.205 161.748,146.028 161.684 C 145.851 161.621,148.293 164.133,151.453 167.267 M188.539 166.409 C 185.865 169.044,183.798 171.200,183.945 171.200 C 184.093 171.200,186.268 169.140,188.779 166.621 C 191.290 164.103,193.492 162.133,193.672 162.245 C 193.853 162.356,194.000 168.788,194.000 176.537 L 194.000 190.627 191.888 192.713 C 189.803 194.772,189.764 194.790,188.788 194.127 L 187.800 193.455 188.562 194.328 C 189.605 195.522,189.671 195.497,192.188 192.960 L 194.410 190.720 194.305 176.293 C 194.238 167.117,194.054 161.821,193.800 161.742 C 193.580 161.674,191.212 163.774,188.539 166.409 M145.380 176.600 C 145.380 184.300,145.434 187.393,145.499 183.474 C 145.565 179.555,145.565 173.255,145.499 169.474 C 145.434 165.693,145.380 168.900,145.380 176.600 M123.578 173.848 C 122.820 174.645,122.560 175.078,123.000 174.810 C 123.722 174.371,125.437 172.400,125.097 172.400 C 125.020 172.400,124.337 173.052,123.578 173.848 M278.121 174.589 C 278.958 175.415,279.731 176.002,279.840 175.894 C 279.948 175.785,279.264 175.110,278.318 174.392 L 276.600 173.088 278.121 174.589 M280.400 176.752 C 280.400 177.142,281.955 178.598,282.123 178.364 C 282.187 178.274,281.826 177.801,281.320 177.314 C 280.814 176.827,280.400 176.574,280.400 176.752 M119.802 177.598 C 119.403 178.039,119.207 178.400,119.367 178.400 C 119.788 178.400,120.928 177.195,120.712 176.979 C 120.611 176.878,120.202 177.156,119.802 177.598 M116.281 181.013 C 115.886 181.556,115.706 181.994,115.881 181.987 C 116.057 181.981,116.523 181.531,116.919 180.987 C 117.314 180.444,117.494 180.006,117.319 180.013 C 117.143 180.019,116.677 180.469,116.281 181.013 M240.000 187.966 C 240.000 188.280,246.932 195.200,247.247 195.200 C 247.623 195.200,249.200 193.734,249.200 193.383 C 249.200 193.206,248.739 193.493,248.176 194.022 L 247.152 194.984 243.576 191.350 C 241.609 189.351,240.000 187.828,240.000 187.966 M184.200 190.000 C 185.283 191.100,186.260 192.000,186.370 192.000 C 186.480 192.000,185.683 191.100,184.600 190.000 C 183.517 188.900,182.540 188.000,182.430 188.000 C 182.320 188.000,183.117 188.900,184.200 190.000 M107.570 189.853 C 106.645 190.856,106.641 190.880,107.492 190.361 C 107.983 190.062,108.472 189.588,108.580 189.309 C 108.866 188.562,108.652 188.677,107.570 189.853 M101.067 190.100 C 100.663 190.522,100.409 190.943,100.502 191.036 C 100.595 191.129,100.999 190.843,101.400 190.400 C 102.339 189.362,102.035 189.088,101.067 190.100 M98.462 192.840 C 97.726 193.509,97.198 194.131,97.289 194.222 C 97.380 194.314,98.063 193.761,98.806 192.994 C 100.466 191.281,100.272 191.194,98.462 192.840 M296.000 192.352 C 296.000 192.742,297.555 194.198,297.723 193.964 C 297.787 193.874,297.426 193.401,296.920 192.914 C 296.414 192.427,296.000 192.174,296.000 192.352 M298.400 194.567 C 298.400 194.988,299.605 196.128,299.821 195.912 C 299.922 195.811,299.644 195.402,299.202 195.002 C 298.761 194.603,298.400 194.407,298.400 194.567 M99.815 197.803 L 97.933 200.005 98.928 201.188 C 99.476 201.838,100.006 202.602,100.107 202.885 C 100.208 203.168,100.400 203.300,100.534 203.178 C 100.668 203.055,100.220 202.278,99.537 201.450 L 98.296 199.945 99.461 198.672 C 101.275 196.690,102.144 195.600,101.911 195.600 C 101.793 195.600,100.850 196.591,99.815 197.803 M302.154 199.075 C 302.569 199.576,302.751 200.174,302.581 200.475 C 302.340 200.899,302.387 200.903,302.826 200.496 C 303.279 200.075,303.208 199.842,302.399 199.096 C 301.451 198.220,301.446 198.219,302.154 199.075 M147.777 200.939 C 145.241 203.534,145.226 204.053,147.758 201.600 L 150.028 199.400 153.638 203.086 L 157.248 206.772 157.124 214.535 L 157.000 222.298 151.336 227.949 C 148.221 231.057,145.799 233.600,145.954 233.600 C 146.109 233.600,148.793 231.021,151.918 227.869 L 157.600 222.138 157.600 214.415 L 157.600 206.692 153.926 202.946 C 149.730 198.668,149.933 198.734,147.777 200.939 M188.562 200.072 L 187.800 200.945 188.788 200.273 C 189.764 199.610,189.803 199.628,191.888 201.687 L 194.000 203.773 194.000 218.286 C 194.000 226.269,193.858 232.800,193.685 232.800 C 193.512 232.800,192.488 231.904,191.409 230.809 C 190.331 229.714,189.376 228.891,189.288 228.979 C 188.996 229.271,193.200 233.200,193.805 233.200 C 194.321 233.200,194.400 231.239,194.400 218.470 L 194.400 203.740 192.148 201.470 C 189.589 198.890,189.593 198.892,188.562 200.072 M244.587 201.700 L 242.200 204.200 244.699 201.813 L 247.199 199.426 249.399 201.599 L 251.600 203.773 251.600 218.486 C 251.600 226.807,251.445 233.200,251.244 233.200 C 251.049 233.200,248.406 230.725,245.372 227.700 C 242.338 224.675,240.293 222.711,240.828 223.336 C 243.146 226.044,251.149 234.000,251.555 234.000 C 251.874 234.000,252.000 229.722,252.000 218.889 L 252.000 203.778 249.800 201.489 C 247.113 198.693,247.473 198.678,244.587 201.700 M184.185 204.500 L 182.200 206.600 184.300 204.615 C 185.455 203.523,186.400 202.578,186.400 202.515 C 186.400 202.217,186.029 202.549,184.185 204.500 M14.617 203.972 C 14.491 204.177,14.598 204.475,14.855 204.634 C 15.147 204.815,15.216 204.750,15.039 204.464 C 14.826 204.119,24.771 203.978,54.878 203.900 L 95.000 203.796 54.924 203.698 C 30.507 203.638,14.757 203.745,14.617 203.972 M145.381 218.200 C 145.380 226.120,145.434 229.417,145.499 225.526 C 145.565 221.635,145.565 215.155,145.500 211.126 C 145.434 207.097,145.381 210.280,145.381 218.200 M298.147 205.501 C 297.238 206.325,295.910 207.720,295.196 208.600 L 293.898 210.200 295.430 208.600 C 296.273 207.720,297.691 206.332,298.581 205.516 C 299.471 204.700,300.110 204.026,300.000 204.017 C 299.890 204.008,299.056 204.676,298.147 205.501 M304.370 205.500 L 303.400 206.600 304.430 205.696 L 305.460 204.792 345.389 204.804 C 367.350 204.810,385.412 204.722,385.526 204.608 C 385.640 204.493,367.645 204.400,345.536 204.400 L 305.339 204.400 304.370 205.500 M98.616 207.162 C 99.910 208.751,105.275 214.058,105.430 213.903 C 105.510 213.824,103.833 212.058,101.703 209.979 C 99.574 207.901,98.185 206.633,98.616 207.162 M299.178 210.700 L 297.800 212.200 299.300 210.822 C 300.696 209.538,300.984 209.200,300.678 209.200 C 300.612 209.200,299.937 209.875,299.178 210.700 M291.032 212.713 L 290.264 213.800 291.332 212.830 C 292.454 211.811,292.593 211.592,292.100 211.613 C 291.935 211.619,291.454 212.114,291.032 212.713 M294.778 215.100 L 293.400 216.600 294.900 215.222 C 296.296 213.938,296.584 213.600,296.278 213.600 C 296.212 213.600,295.537 214.275,294.778 215.100 M106.000 214.493 C 106.000 214.631,106.630 215.411,107.400 216.227 C 108.170 217.044,108.800 217.542,108.800 217.334 C 108.800 217.127,108.170 216.346,107.400 215.600 C 106.630 214.854,106.000 214.356,106.000 214.493 M287.999 215.700 C 287.410 216.504,287.313 216.784,287.745 216.433 C 288.401 215.900,289.393 214.400,289.089 214.400 C 289.013 214.400,288.522 214.985,287.999 215.700 M285.400 218.235 L 284.200 219.266 285.500 218.406 C 286.215 217.933,286.800 217.468,286.800 217.373 C 286.800 217.073,286.631 217.178,285.400 218.235 M109.200 217.692 C 109.200 218.070,112.834 221.700,113.023 221.511 C 113.110 221.423,112.286 220.469,111.191 219.391 C 110.096 218.312,109.200 217.548,109.200 217.692 M290.378 219.500 L 289.000 221.000 290.500 219.622 C 291.896 218.338,292.184 218.000,291.878 218.000 C 291.812 218.000,291.137 218.675,290.378 219.500 M281.800 221.769 C 280.920 222.515,280.290 223.190,280.400 223.269 C 280.510 223.348,281.320 222.735,282.200 221.908 C 284.192 220.036,283.944 219.950,281.800 221.769 M113.600 222.079 C 113.600 222.417,116.476 225.258,116.646 225.087 C 116.723 225.011,116.069 224.248,115.193 223.393 C 114.317 222.537,113.600 221.946,113.600 222.079 M184.800 225.000 C 185.546 225.770,186.247 226.400,186.357 226.400 C 186.467 226.400,185.946 225.770,185.200 225.000 C 184.454 224.230,183.753 223.600,183.643 223.600 C 183.533 223.600,184.054 224.230,184.800 225.000 M284.778 225.100 L 283.400 226.600 284.900 225.222 C 286.296 223.938,286.584 223.600,286.278 223.600 C 286.212 223.600,285.537 224.275,284.778 225.100 M157.775 225.300 L 156.600 226.600 157.822 225.500 L 159.044 224.400 169.827 224.400 L 180.611 224.400 186.200 230.000 L 191.789 235.600 169.813 235.600 L 147.838 235.600 149.419 233.900 L 151.000 232.200 149.317 233.765 C 148.391 234.626,147.726 235.481,147.840 235.665 C 148.089 236.068,191.345 236.121,191.747 235.719 C 191.902 235.565,189.459 232.865,186.319 229.719 L 180.610 224.000 169.780 224.000 L 158.950 224.000 157.775 225.300 M118.227 227.000 C 119.044 227.770,119.812 228.400,119.934 228.400 C 120.057 228.400,119.546 227.770,118.800 227.000 C 118.054 226.230,117.286 225.600,117.093 225.600 C 116.901 225.600,117.411 226.230,118.227 227.000 M154.185 228.900 L 152.200 231.000 154.300 229.015 C 155.455 227.923,156.400 226.978,156.400 226.915 C 156.400 226.617,156.029 226.949,154.185 228.900 M274.153 229.502 C 272.859 230.768,271.442 232.253,271.005 232.802 C 270.567 233.351,271.690 232.360,273.499 230.600 C 275.308 228.840,276.791 227.355,276.794 227.300 C 276.813 226.979,276.265 227.436,274.153 229.502 M279.785 230.100 L 277.800 232.200 279.900 230.215 C 281.851 228.371,282.183 228.000,281.885 228.000 C 281.822 228.000,280.877 228.945,279.785 230.100 M41.600 231.717 C 41.930 232.003,42.447 232.498,42.749 232.818 C 43.219 233.316,43.235 233.277,42.860 232.547 C 42.619 232.078,42.102 231.583,41.711 231.446 C 41.092 231.230,41.078 231.265,41.600 231.717 M268.435 235.329 L 267.079 237.000 268.619 235.513 C 269.467 234.696,270.077 233.944,269.976 233.843 C 269.875 233.742,269.182 234.411,268.435 235.329 M274.778 235.100 L 273.400 236.600 274.900 235.222 C 276.296 233.938,276.584 233.600,276.278 233.600 C 276.212 233.600,275.537 234.275,274.778 235.100 M265.544 237.900 C 264.631 239.002,264.119 239.929,264.926 239.019 C 265.325 238.568,265.945 237.975,266.302 237.700 C 266.660 237.425,266.766 237.200,266.538 237.200 C 266.310 237.200,265.863 237.515,265.544 237.900 M270.378 239.500 L 269.000 241.000 270.500 239.622 C 271.896 238.338,272.184 238.000,271.878 238.000 C 271.812 238.000,271.137 238.675,270.378 239.500 M51.600 241.717 C 51.930 242.003,52.447 242.498,52.749 242.818 C 53.219 243.316,53.235 243.277,52.860 242.547 C 52.619 242.078,52.102 241.583,51.711 241.446 C 51.092 241.230,51.078 241.265,51.600 241.717 M264.778 245.100 L 263.400 246.600 264.900 245.222 C 266.296 243.938,266.584 243.600,266.278 243.600 C 266.212 243.600,265.537 244.275,264.778 245.100 M258.385 245.161 C 257.623 245.800,257.090 246.387,257.200 246.466 C 257.310 246.545,258.024 246.023,258.786 245.305 C 260.505 243.687,260.252 243.596,258.385 245.161 M255.033 248.617 C 254.172 249.377,253.641 250.000,253.855 250.000 C 254.068 250.000,254.854 249.370,255.600 248.600 C 257.324 246.821,257.058 246.829,255.033 248.617 M259.178 250.700 L 257.800 252.200 259.300 250.822 C 260.696 249.538,260.984 249.200,260.678 249.200 C 260.612 249.200,259.937 249.875,259.178 250.700 M251.600 252.057 C 250.610 252.962,250.160 253.515,250.600 253.286 C 251.364 252.888,253.940 250.394,253.575 250.406 C 253.479 250.409,252.590 251.152,251.600 252.057 M254.778 255.100 L 253.400 256.600 254.900 255.222 C 256.296 253.938,256.584 253.600,256.278 253.600 C 256.212 253.600,255.537 254.275,254.778 255.100 M249.200 254.519 C 248.870 254.791,248.244 255.460,247.809 256.007 C 247.339 256.595,247.624 256.439,248.509 255.622 C 249.849 254.382,250.202 253.974,249.900 254.013 C 249.845 254.020,249.530 254.248,249.200 254.519 M249.785 260.100 L 247.800 262.200 249.900 260.215 C 251.055 259.123,252.000 258.178,252.000 258.115 C 252.000 257.817,251.629 258.149,249.785 260.100 M241.566 262.100 C 240.851 263.035,240.699 263.350,241.229 262.800 C 241.759 262.250,242.530 261.485,242.941 261.100 C 243.352 260.715,243.504 260.400,243.278 260.400 C 243.052 260.400,242.282 261.165,241.566 262.100 M244.778 265.100 L 243.400 266.600 244.900 265.222 C 246.296 263.938,246.584 263.600,246.278 263.600 C 246.212 263.600,245.537 264.275,244.778 265.100 M238.000 265.600 C 237.530 266.260,237.236 266.800,237.346 266.800 C 237.456 266.800,237.930 266.260,238.400 265.600 C 238.870 264.940,239.164 264.400,239.054 264.400 C 238.944 264.400,238.470 264.940,238.000 265.600 M235.400 268.250 C 234.681 268.862,234.534 269.105,235.033 268.857 C 235.766 268.493,237.141 267.176,236.749 267.214 C 236.667 267.222,236.060 267.688,235.400 268.250 M239.178 270.700 L 237.800 272.200 239.300 270.822 C 240.696 269.538,240.984 269.200,240.678 269.200 C 240.612 269.200,239.937 269.875,239.178 270.700 M232.443 271.223 C 231.917 271.661,231.571 272.105,231.675 272.208 C 231.779 272.312,232.286 271.948,232.801 271.398 C 233.924 270.204,233.762 270.125,232.443 271.223 M81.600 271.717 C 81.930 272.003,82.447 272.498,82.749 272.818 C 83.219 273.316,83.235 273.277,82.860 272.547 C 82.619 272.078,82.102 271.583,81.711 271.446 C 81.092 271.230,81.078 271.265,81.600 271.717 M234.778 275.100 L 233.400 276.600 234.900 275.222 C 236.296 273.938,236.584 273.600,236.278 273.600 C 236.212 273.600,235.537 274.275,234.778 275.100 M227.344 276.300 C 226.054 277.565,224.733 278.960,224.409 279.400 C 224.085 279.840,225.209 278.850,226.905 277.200 C 228.602 275.550,229.993 274.155,229.995 274.100 C 230.011 273.772,229.443 274.243,227.344 276.300 M229.785 280.100 L 227.800 282.200 229.900 280.215 C 231.851 278.371,232.183 278.000,231.885 278.000 C 231.822 278.000,230.877 278.945,229.785 280.100 M221.032 282.713 L 220.264 283.800 221.332 282.830 C 222.454 281.811,222.593 281.592,222.100 281.613 C 221.935 281.619,221.454 282.114,221.032 282.713 M93.600 283.700 C 93.600 283.768,94.230 284.418,95.000 285.144 C 95.770 285.871,96.301 286.208,96.180 285.893 C 95.990 285.398,93.600 283.366,93.600 283.700 M218.391 285.282 L 217.085 287.000 218.564 285.455 C 219.377 284.605,219.965 283.831,219.869 283.736 C 219.774 283.641,219.109 284.336,218.391 285.282 M224.778 285.100 L 223.400 286.600 224.900 285.222 C 225.725 284.463,226.400 283.788,226.400 283.722 C 226.400 283.416,226.062 283.704,224.778 285.100 M97.200 287.317 C 97.530 287.603,98.047 288.098,98.349 288.418 C 98.819 288.916,98.835 288.877,98.460 288.147 C 98.219 287.678,97.702 287.183,97.311 287.046 C 96.692 286.830,96.678 286.865,97.200 287.317 M215.783 287.909 C 215.333 288.289,214.707 288.960,214.390 289.400 C 214.074 289.840,214.485 289.570,215.303 288.800 C 216.122 288.030,216.793 287.355,216.796 287.300 C 216.804 287.099,216.583 287.232,215.783 287.909 M179.200 287.705 C 179.200 288.078,182.045 290.888,182.233 290.701 C 182.317 290.617,181.669 289.848,180.793 288.993 C 179.917 288.137,179.200 287.558,179.200 287.705 M220.378 289.500 L 219.000 291.000 220.500 289.622 C 221.896 288.338,222.184 288.000,221.878 288.000 C 221.812 288.000,221.137 288.675,220.378 289.500 M211.800 291.769 C 210.920 292.515,210.290 293.207,210.400 293.307 C 210.510 293.407,211.310 292.794,212.178 291.944 C 214.125 290.040,213.940 289.954,211.800 291.769 M183.600 292.105 C 183.600 292.478,186.445 295.288,186.633 295.101 C 186.717 295.017,186.069 294.248,185.193 293.393 C 184.317 292.537,183.600 291.958,183.600 292.105 M103.600 293.700 C 103.600 293.768,104.230 294.418,105.000 295.144 C 105.770 295.871,106.301 296.208,106.180 295.893 C 105.990 295.398,103.600 293.366,103.600 293.700 M214.778 295.100 L 213.400 296.600 214.900 295.222 C 215.725 294.463,216.400 293.788,216.400 293.722 C 216.400 293.416,216.062 293.704,214.778 295.100 M188.227 297.000 C 189.044 297.770,189.812 298.400,189.934 298.400 C 190.057 298.400,189.546 297.770,188.800 297.000 C 188.054 296.230,187.286 295.600,187.093 295.600 C 186.901 295.600,187.411 296.230,188.227 297.000 M107.200 297.317 C 107.530 297.603,108.047 298.098,108.349 298.418 C 108.819 298.916,108.835 298.877,108.460 298.147 C 108.219 297.678,107.702 297.183,107.311 297.046 C 106.692 296.830,106.678 296.865,107.200 297.317 M204.602 298.972 C 203.503 299.943,202.693 300.810,202.802 300.900 C 202.911 300.990,203.900 300.198,205.000 299.140 C 207.507 296.728,207.260 296.624,204.602 298.972 M190.400 298.905 C 190.400 299.282,194.040 302.893,194.229 302.704 C 194.313 302.620,193.486 301.669,192.391 300.591 C 191.296 299.512,190.400 298.754,190.400 298.905 M197.635 300.100 C 197.728 300.155,198.433 300.740,199.202 301.400 L 200.600 302.600 199.425 301.300 C 198.779 300.585,198.074 300.000,197.858 300.000 C 197.643 300.000,197.543 300.045,197.635 300.100 M194.898 343.749 C 194.805 382.483,194.765 384.472,194.100 383.971 C 193.436 383.471,193.436 383.483,194.090 384.198 C 194.470 384.613,194.876 384.857,194.992 384.741 C 195.109 384.625,195.157 366.185,195.100 343.765 L 194.996 303.000 194.898 343.749 M204.778 305.100 L 203.400 306.600 204.900 305.222 C 205.725 304.463,206.400 303.788,206.400 303.722 C 206.400 303.416,206.062 303.704,204.778 305.100 M131.600 321.717 C 131.930 322.003,132.447 322.498,132.749 322.818 C 133.219 323.316,133.235 323.277,132.860 322.547 C 132.619 322.078,132.102 321.583,131.711 321.446 C 131.092 321.230,131.078 321.265,131.600 321.717 M161.600 351.717 C 161.930 352.003,162.447 352.498,162.749 352.818 C 163.219 353.316,163.235 353.277,162.860 352.547 C 162.619 352.078,162.102 351.583,161.711 351.446 C 161.092 351.230,161.078 351.265,161.600 351.717 M173.600 363.700 C 173.600 363.768,174.230 364.418,175.000 365.144 C 175.770 365.871,176.301 366.208,176.180 365.893 C 175.990 365.398,173.600 363.366,173.600 363.700 M177.200 367.317 C 177.530 367.603,178.047 368.098,178.349 368.418 C 178.819 368.916,178.835 368.877,178.460 368.147 C 178.219 367.678,177.702 367.183,177.311 367.046 C 176.692 366.830,176.678 366.865,177.200 367.317 M183.600 373.700 C 183.600 373.768,184.230 374.418,185.000 375.144 C 185.770 375.871,186.301 376.208,186.180 375.893 C 185.990 375.398,183.600 373.366,183.600 373.700 M187.200 377.317 C 187.530 377.603,188.047 378.098,188.349 378.418 C 188.819 378.916,188.835 378.877,188.460 378.147 C 188.219 377.678,187.702 377.183,187.311 377.046 C 186.692 376.830,186.678 376.865,187.200 377.317 " stroke="none" fill="#063c3c" fill-rule="evenodd"></path><path id="path4" d="M184.458 14.607 C 183.796 15.305,183.688 15.600,184.094 15.600 C 184.412 15.600,184.877 15.150,185.127 14.600 C 185.690 13.365,185.635 13.366,184.458 14.607 M191.392 18.500 L 187.800 22.200 191.500 18.608 C 194.936 15.272,195.382 14.800,195.092 14.800 C 195.032 14.800,193.367 16.465,191.392 18.500 M195.793 55.600 C 195.793 77.930,195.841 87.065,195.900 75.900 C 195.959 64.735,195.959 46.465,195.900 35.300 C 195.841 24.135,195.793 33.270,195.793 55.600 M177.597 32.300 L 167.800 42.200 177.700 32.403 C 183.145 27.015,187.600 22.560,187.600 22.503 C 187.600 22.220,186.701 23.101,177.597 32.300 M174.458 24.607 C 173.796 25.305,173.688 25.600,174.094 25.600 C 174.412 25.600,174.877 25.150,175.127 24.600 C 175.690 23.365,175.635 23.366,174.458 24.607 M112.599 97.300 L 57.800 152.200 112.700 97.401 C 142.895 67.261,167.600 42.556,167.600 42.501 C 167.600 42.221,163.547 46.259,112.599 97.300 M154.458 44.607 C 153.796 45.305,153.688 45.600,154.094 45.600 C 154.412 45.600,154.877 45.150,155.127 44.600 C 155.690 43.365,155.635 43.366,154.458 44.607 M124.458 74.607 C 123.796 75.305,123.688 75.600,124.094 75.600 C 124.412 75.600,124.877 75.150,125.127 74.600 C 125.690 73.365,125.635 73.366,124.458 74.607 M104.458 94.607 C 103.796 95.305,103.688 95.600,104.094 95.600 C 104.412 95.600,104.877 95.150,105.127 94.600 C 105.690 93.365,105.635 93.366,104.458 94.607 M192.985 98.900 L 191.000 101.000 193.100 99.015 C 194.255 97.923,195.200 96.978,195.200 96.915 C 195.200 96.617,194.829 96.949,192.985 98.900 M200.400 97.484 C 200.730 97.605,201.360 97.996,201.800 98.352 C 202.593 98.994,202.594 98.992,201.838 98.100 C 201.419 97.605,200.789 97.214,200.438 97.232 C 199.896 97.258,199.891 97.297,200.400 97.484 M183.029 114.085 L 167.000 130.171 183.199 114.185 C 192.108 105.393,199.473 98.155,199.566 98.100 C 199.658 98.045,199.581 98.000,199.396 98.000 C 199.210 98.000,191.845 105.238,183.029 114.085 M203.771 99.897 C 204.415 100.609,205.030 101.104,205.138 100.996 C 205.245 100.888,205.258 100.755,205.167 100.700 C 205.075 100.645,204.460 100.151,203.800 99.601 L 202.600 98.603 203.771 99.897 M182.996 108.900 L 175.400 116.600 183.100 109.004 C 190.254 101.946,190.981 101.200,190.696 101.200 C 190.639 101.200,187.174 104.665,182.996 108.900 M94.458 104.607 C 93.796 105.305,93.688 105.600,94.094 105.600 C 94.412 105.600,94.877 105.150,95.127 104.600 C 95.690 103.365,95.635 103.366,94.458 104.607 M215.000 111.200 C 215.398 111.640,215.876 112.000,216.062 112.000 C 216.248 112.000,216.040 111.640,215.600 111.200 C 215.160 110.760,214.682 110.400,214.538 110.400 C 214.394 110.400,214.602 110.760,215.000 111.200 M171.791 120.100 L 168.600 123.400 171.900 120.209 C 173.715 118.455,175.200 116.970,175.200 116.909 C 175.200 116.618,174.754 117.035,171.791 120.100 M165.578 125.900 L 164.200 127.400 165.700 126.022 C 166.525 125.263,167.200 124.588,167.200 124.522 C 167.200 124.216,166.862 124.504,165.578 125.900 M161.178 130.300 L 159.800 131.800 161.300 130.422 C 162.696 129.138,162.984 128.800,162.678 128.800 C 162.612 128.800,161.937 129.475,161.178 130.300 M158.396 138.700 L 150.200 147.000 158.500 138.804 C 163.065 134.296,166.800 130.561,166.800 130.504 C 166.800 130.219,166.012 130.988,158.396 138.700 M242.770 138.932 C 243.789 140.054,244.008 140.193,243.987 139.700 C 243.981 139.535,243.486 139.054,242.887 138.632 L 241.800 137.864 242.770 138.932 M149.978 141.500 L 148.600 143.000 150.100 141.622 C 150.925 140.863,151.600 140.188,151.600 140.122 C 151.600 139.816,151.262 140.104,149.978 141.500 M133.398 163.700 L 117.000 180.200 133.500 163.802 C 148.836 148.561,150.180 147.200,149.898 147.200 C 149.842 147.200,142.417 154.625,133.398 163.700 M253.999 150.198 C 254.514 150.748,255.011 151.123,255.102 151.032 C 255.299 150.835,253.718 149.200,253.330 149.200 C 253.182 149.200,253.483 149.649,253.999 150.198 M137.978 153.500 L 136.600 155.000 138.100 153.622 C 138.925 152.863,139.600 152.188,139.600 152.122 C 139.600 151.816,139.262 152.104,137.978 153.500 M35.799 174.100 L 14.200 195.800 35.900 174.201 C 47.835 162.322,57.600 152.557,57.600 152.501 C 57.600 152.220,55.875 153.929,35.799 174.100 M261.200 157.152 C 261.200 157.542,262.755 158.998,262.923 158.764 C 262.987 158.674,262.626 158.201,262.120 157.714 C 261.614 157.227,261.200 156.974,261.200 157.152 M148.228 159.555 C 148.107 159.751,148.681 160.394,149.504 160.984 L 151.000 162.058 149.615 160.829 L 148.230 159.600 169.740 159.600 L 191.249 159.600 189.936 160.800 C 189.213 161.460,188.808 162.000,189.036 162.000 C 189.645 162.000,191.658 159.791,191.339 159.472 C 190.928 159.061,148.482 159.143,148.228 159.555 M130.000 161.400 C 129.254 162.170,128.813 162.787,129.022 162.771 C 129.382 162.744,131.854 160.000,131.518 160.000 C 131.429 160.000,130.746 160.630,130.000 161.400 M265.200 161.400 C 265.717 161.950,266.206 162.400,266.288 162.400 C 266.621 162.400,264.972 160.424,264.630 160.413 C 264.427 160.406,264.683 160.850,265.200 161.400 M245.495 167.105 L 240.000 172.610 240.000 180.157 L 240.000 187.703 243.472 191.252 C 245.382 193.203,247.058 194.800,247.197 194.800 C 247.335 194.800,245.863 193.214,243.924 191.276 L 240.400 187.751 240.400 180.205 L 240.400 172.658 245.796 167.229 L 251.192 161.800 251.196 176.169 C 251.200 189.273,251.138 190.610,250.500 191.369 C 249.801 192.199,249.801 192.199,250.700 191.438 L 251.600 190.676 251.600 176.138 C 251.600 168.142,251.463 161.600,251.295 161.600 C 251.127 161.600,248.517 164.077,245.495 167.105 M145.600 176.314 L 145.600 190.627 147.803 192.803 L 150.005 194.978 153.603 191.397 L 157.200 187.817 157.200 180.403 L 157.200 172.989 151.695 167.495 C 148.667 164.473,146.057 162.000,145.895 162.000 C 145.733 162.000,145.600 168.441,145.600 176.314 M188.972 166.521 L 184.600 171.000 188.785 167.000 C 191.087 164.800,193.109 162.820,193.279 162.600 C 193.449 162.380,193.591 168.576,193.594 176.369 C 193.599 189.284,193.538 190.611,192.900 191.369 C 192.201 192.199,192.201 192.199,193.100 191.438 L 194.000 190.676 194.000 176.562 C 194.000 168.799,193.852 162.356,193.672 162.245 C 193.492 162.133,191.377 164.058,188.972 166.521 M156.800 180.403 L 156.800 187.818 153.403 191.197 L 150.006 194.576 148.003 192.603 L 146.000 190.630 146.000 176.421 L 146.000 162.211 151.400 167.600 L 156.800 172.989 156.800 180.403 M34.458 164.607 C 33.796 165.305,33.688 165.600,34.094 165.600 C 34.412 165.600,34.877 165.150,35.127 164.600 C 35.690 163.365,35.635 163.366,34.458 164.607 M185.271 165.476 C 184.321 166.466,183.611 167.345,183.695 167.429 C 183.779 167.513,184.731 166.686,185.809 165.591 C 186.888 164.496,187.597 163.617,187.385 163.638 C 187.173 163.658,186.222 164.485,185.271 165.476 M122.406 168.994 C 121.663 169.761,121.132 170.450,121.227 170.525 C 121.322 170.600,122.006 169.973,122.746 169.131 C 124.429 167.218,124.212 167.131,122.406 168.994 M157.978 169.300 L 159.357 170.800 169.789 170.800 C 180.499 170.800,182.000 170.591,182.000 169.102 C 182.000 168.853,181.633 169.043,181.184 169.525 C 180.386 170.382,180.154 170.400,169.903 170.400 L 159.438 170.400 158.019 169.100 L 156.600 167.800 157.978 169.300 M273.970 170.132 C 274.989 171.254,275.208 171.393,275.187 170.900 C 275.181 170.735,274.686 170.254,274.087 169.832 L 273.000 169.064 273.970 170.132 M118.778 172.700 L 117.400 174.200 118.900 172.822 C 119.725 172.063,120.400 171.388,120.400 171.322 C 120.400 171.016,120.062 171.304,118.778 172.700 M182.667 172.667 C 182.520 172.813,182.400 176.282,182.400 180.375 L 182.400 187.818 185.900 191.209 L 189.400 194.600 186.083 191.174 L 182.766 187.749 182.883 180.074 C 182.947 175.853,182.985 172.399,182.967 172.400 C 182.948 172.400,182.813 172.520,182.667 172.667 M111.178 180.300 L 109.800 181.800 111.300 180.422 C 112.125 179.663,112.800 178.988,112.800 178.922 C 112.800 178.616,112.462 178.904,111.178 180.300 M108.200 188.800 C 103.584 193.420,99.897 197.200,100.007 197.200 C 100.117 197.200,103.984 193.420,108.600 188.800 C 113.216 184.180,116.903 180.400,116.793 180.400 C 116.683 180.400,112.816 184.180,108.200 188.800 M106.778 184.700 L 105.400 186.200 106.900 184.822 C 108.296 183.538,108.584 183.200,108.278 183.200 C 108.212 183.200,107.537 183.875,106.778 184.700 M190.575 193.700 L 189.400 195.000 190.700 193.825 C 191.912 192.730,192.184 192.400,191.875 192.400 C 191.806 192.400,191.221 192.985,190.575 193.700 M4.458 194.607 C 3.796 195.305,3.688 195.600,4.094 195.600 C 4.412 195.600,4.877 195.150,5.127 194.600 C 5.690 193.365,5.635 193.366,4.458 194.607 M35.330 195.900 C 46.512 195.959,64.692 195.959,75.730 195.900 C 86.769 195.841,77.620 195.792,55.400 195.792 C 33.180 195.792,24.149 195.841,35.330 195.900 M301.355 197.719 C 302.203 198.753,302.980 199.600,303.082 199.600 C 303.355 199.600,300.821 196.460,300.277 196.124 C 300.022 195.966,300.507 196.684,301.355 197.719 M147.686 201.713 L 145.600 203.825 145.600 218.513 C 145.600 232.081,145.747 234.180,146.600 232.800 C 146.736 232.580,146.657 232.400,146.424 232.400 C 146.133 232.400,146.000 227.893,146.000 218.085 L 146.000 203.770 148.001 201.799 L 150.001 199.829 152.301 202.014 L 154.600 204.200 152.414 201.900 C 149.780 199.129,150.220 199.147,147.686 201.713 M189.600 199.725 C 189.600 199.794,190.185 200.379,190.900 201.025 L 192.200 202.200 191.025 200.900 C 189.930 199.688,189.600 199.416,189.600 199.725 M243.457 203.186 L 240.000 206.772 240.000 214.516 L 240.000 222.261 241.100 223.230 L 242.200 224.200 241.300 223.174 C 240.434 222.187,240.400 221.860,240.400 214.522 L 240.400 206.895 243.900 203.244 C 245.825 201.237,247.291 199.595,247.157 199.597 C 247.023 199.599,245.358 201.214,243.457 203.186 M185.691 203.308 L 182.400 206.617 182.400 214.478 L 182.400 222.340 187.816 227.470 C 190.795 230.291,193.405 232.660,193.616 232.733 C 193.857 232.817,194.000 227.426,194.000 218.295 L 194.000 203.724 193.100 202.962 L 192.200 202.200 192.905 203.037 C 193.554 203.808,193.602 205.005,193.505 218.105 L 193.400 232.337 188.091 227.268 L 182.782 222.200 182.791 214.366 L 182.800 206.531 185.510 203.915 C 188.253 201.266,189.428 200.000,189.140 200.000 C 189.053 200.000,187.501 201.489,185.691 203.308 M98.799 201.500 C 99.322 202.215,99.813 202.800,99.889 202.800 C 100.193 202.800,99.201 201.300,98.545 200.767 C 98.113 200.416,98.210 200.696,98.799 201.500 M302.027 201.371 C 301.525 201.906,301.209 202.581,301.326 202.871 C 301.489 203.282,301.544 203.271,301.568 202.826 C 301.586 202.510,301.991 201.835,302.470 201.326 C 302.948 200.817,303.249 200.400,303.139 200.400 C 303.029 200.400,302.529 200.837,302.027 201.371 M250.495 203.026 C 251.123 203.772,251.201 205.278,251.300 218.626 L 251.410 233.400 251.505 218.562 L 251.600 203.724 250.700 202.962 C 249.802 202.202,249.802 202.202,250.495 203.026 M14.000 203.996 C 14.000 204.214,15.193 205.609,16.651 207.096 L 19.302 209.800 16.842 207.076 C 15.489 205.578,14.487 204.183,14.615 203.976 C 14.743 203.769,14.657 203.600,14.424 203.600 C 14.191 203.600,14.000 203.778,14.000 203.996 M94.833 203.700 C 94.925 203.755,95.540 204.250,96.200 204.800 L 97.400 205.800 96.430 204.700 C 95.897 204.095,95.282 203.600,95.064 203.600 C 94.845 203.600,94.742 203.645,94.833 203.700 M154.800 204.530 C 154.800 204.918,156.435 206.499,156.632 206.302 C 156.723 206.211,156.348 205.714,155.798 205.199 C 155.249 204.683,154.800 204.382,154.800 204.530 M302.388 207.100 L 299.800 209.800 302.500 207.212 C 303.985 205.788,305.200 204.573,305.200 204.512 C 305.200 204.217,304.793 204.592,302.388 207.100 M294.300 295.900 L 203.200 387.000 203.200 346.803 L 203.200 306.607 211.500 298.203 L 219.800 289.800 211.300 298.196 L 202.800 306.593 202.800 346.673 C 202.800 368.717,202.946 386.843,203.124 386.953 C 203.302 387.063,244.477 346.124,294.623 295.977 C 344.770 245.829,385.709 204.800,385.600 204.800 C 385.490 204.800,344.405 245.795,294.300 295.900 M156.967 214.200 C 156.967 218.380,157.026 220.036,157.098 217.879 C 157.171 215.723,157.170 212.303,157.098 210.279 C 157.025 208.256,156.966 210.020,156.967 214.200 M108.400 211.400 C 109.146 212.170,109.847 212.800,109.957 212.800 C 110.067 212.800,109.546 212.170,108.800 211.400 C 108.054 210.630,107.353 210.000,107.243 210.000 C 107.133 210.000,107.654 210.630,108.400 211.400 M293.064 210.729 C 292.699 211.133,292.400 211.618,292.400 211.807 C 292.400 211.996,292.778 211.745,293.240 211.249 C 293.702 210.753,294.001 210.268,293.904 210.171 C 293.808 210.074,293.430 210.325,293.064 210.729 M24.800 215.310 C 27.550 218.107,29.908 220.397,30.039 220.398 C 30.319 220.400,27.053 217.091,22.800 213.064 C 21.150 211.502,22.050 212.512,24.800 215.310 M103.600 211.800 C 104.346 212.570,105.047 213.200,105.157 213.200 C 105.267 213.200,104.746 212.570,104.000 211.800 C 103.254 211.030,102.553 210.400,102.443 210.400 C 102.333 210.400,102.854 211.030,103.600 211.800 M105.629 213.900 C 105.645 214.065,106.320 214.730,107.129 215.379 L 108.600 216.557 107.222 215.079 C 105.797 213.551,105.580 213.390,105.629 213.900 M108.841 217.300 C 108.937 217.355,109.912 218.210,111.007 219.200 L 113.000 221.000 111.217 219.100 C 110.236 218.055,109.261 217.200,109.050 217.200 C 108.839 217.200,108.745 217.245,108.841 217.300 M31.800 222.400 C 32.659 223.280,33.452 224.000,33.562 224.000 C 33.672 224.000,33.059 223.280,32.200 222.400 C 31.341 221.520,30.548 220.800,30.438 220.800 C 30.328 220.800,30.941 221.520,31.800 222.400 M113.238 221.700 C 113.332 221.755,114.127 222.430,115.004 223.200 L 116.600 224.600 115.222 223.100 C 114.463 222.275,113.668 221.600,113.455 221.600 C 113.241 221.600,113.144 221.645,113.238 221.700 M121.600 224.600 C 122.346 225.370,123.047 226.000,123.157 226.000 C 123.267 226.000,122.746 225.370,122.000 224.600 C 121.254 223.830,120.553 223.200,120.443 223.200 C 120.333 223.200,120.854 223.830,121.600 224.600 M34.000 224.241 C 34.000 224.447,35.755 226.322,37.900 228.408 L 41.800 232.200 38.000 228.213 C 35.910 226.019,34.155 224.144,34.100 224.046 C 34.045 223.947,34.000 224.035,34.000 224.241 M153.395 230.100 L 147.800 235.800 153.586 230.200 C 156.768 227.120,159.453 224.555,159.553 224.500 C 159.652 224.445,159.566 224.400,159.361 224.400 C 159.157 224.400,156.472 226.965,153.395 230.100 M185.800 230.000 C 188.874 233.080,191.479 235.600,191.589 235.600 C 191.699 235.600,189.274 233.080,186.200 230.000 C 183.126 226.920,180.521 224.400,180.411 224.400 C 180.301 224.400,182.726 226.920,185.800 230.000 M150.852 227.827 C 150.337 228.362,150.087 228.800,150.296 228.800 C 150.758 228.800,152.197 227.264,151.958 227.025 C 151.865 226.931,151.367 227.293,150.852 227.827 M246.000 228.200 C 246.746 228.970,247.447 229.600,247.557 229.600 C 247.667 229.600,247.146 228.970,246.400 228.200 C 245.654 227.430,244.953 226.800,244.843 226.800 C 244.733 226.800,245.254 227.430,246.000 228.200 M122.600 231.200 C 123.683 232.300,124.660 233.200,124.770 233.200 C 124.880 233.200,124.083 232.300,123.000 231.200 C 121.917 230.100,120.940 229.200,120.830 229.200 C 120.720 229.200,121.517 230.100,122.600 231.200 M128.400 231.400 C 129.146 232.170,129.847 232.800,129.957 232.800 C 130.067 232.800,129.546 232.170,128.800 231.400 C 128.054 230.630,127.353 230.000,127.243 230.000 C 127.133 230.000,127.654 230.630,128.400 231.400 M147.652 231.027 C 147.137 231.562,146.887 232.000,147.096 232.000 C 147.558 232.000,148.997 230.464,148.758 230.225 C 148.665 230.131,148.167 230.493,147.652 231.027 M46.789 237.322 C 49.313 239.895,51.461 242.000,51.562 242.000 C 51.830 242.000,44.808 234.806,43.400 233.639 C 42.740 233.092,44.265 234.749,46.789 237.322 M126.600 235.200 C 127.459 236.080,128.252 236.800,128.362 236.800 C 128.472 236.800,127.859 236.080,127.000 235.200 C 126.141 234.320,125.348 233.600,125.238 233.600 C 125.128 233.600,125.741 234.320,126.600 235.200 M272.378 237.100 L 271.000 238.600 272.500 237.222 C 273.896 235.938,274.184 235.600,273.878 235.600 C 273.812 235.600,273.137 236.275,272.378 237.100 M132.200 240.800 C 134.171 242.780,135.873 244.400,135.983 244.400 C 136.093 244.400,134.571 242.780,132.600 240.800 C 130.629 238.820,128.927 237.200,128.817 237.200 C 128.707 237.200,130.229 238.820,132.200 240.800 M261.798 242.002 C 260.775 243.132,261.210 243.237,262.286 242.120 C 262.773 241.614,263.026 241.200,262.848 241.200 C 262.670 241.200,262.197 241.561,261.798 242.002 M54.000 244.245 C 54.000 244.453,55.215 245.788,56.700 247.212 L 59.400 249.800 56.800 247.010 C 55.370 245.476,54.155 244.141,54.100 244.044 C 54.045 243.946,54.000 244.037,54.000 244.245 M140.200 248.800 C 142.171 250.780,143.873 252.400,143.983 252.400 C 144.093 252.400,142.571 250.780,140.600 248.800 C 138.629 246.820,136.927 245.200,136.817 245.200 C 136.707 245.200,138.229 246.820,140.200 248.800 M148.400 251.400 C 149.146 252.170,149.847 252.800,149.957 252.800 C 150.067 252.800,149.546 252.170,148.800 251.400 C 148.054 250.630,147.353 250.000,147.243 250.000 C 147.133 250.000,147.654 250.630,148.400 251.400 M64.800 255.310 C 67.550 258.107,69.908 260.397,70.039 260.398 C 70.319 260.400,67.053 257.091,62.800 253.064 C 61.150 251.502,62.050 252.512,64.800 255.310 M256.778 252.700 L 255.400 254.200 256.900 252.822 C 258.296 251.538,258.584 251.200,258.278 251.200 C 258.212 251.200,257.537 251.875,256.778 252.700 M147.800 256.400 C 149.771 258.380,151.473 260.000,151.583 260.000 C 151.693 260.000,150.171 258.380,148.200 256.400 C 146.229 254.420,144.527 252.800,144.417 252.800 C 144.307 252.800,145.829 254.420,147.800 256.400 M155.600 264.200 C 157.681 266.290,159.474 268.000,159.584 268.000 C 159.694 268.000,158.081 266.290,156.000 264.200 C 153.919 262.110,152.126 260.400,152.016 260.400 C 151.906 260.400,153.519 262.110,155.600 264.200 M71.800 262.400 C 72.659 263.280,73.452 264.000,73.562 264.000 C 73.672 264.000,73.059 263.280,72.200 262.400 C 71.341 261.520,70.548 260.800,70.438 260.800 C 70.328 260.800,70.941 261.520,71.800 262.400 M161.081 264.187 C 161.477 264.731,161.966 265.181,162.170 265.187 C 162.373 265.194,162.117 264.750,161.600 264.200 C 160.401 262.923,160.157 262.918,161.081 264.187 M74.000 264.241 C 74.000 264.447,75.755 266.322,77.900 268.408 L 81.800 272.200 78.000 268.213 C 75.910 266.019,74.155 264.144,74.100 264.046 C 74.045 263.947,74.000 264.035,74.000 264.241 M163.400 272.000 C 165.371 273.980,167.073 275.600,167.183 275.600 C 167.293 275.600,165.771 273.980,163.800 272.000 C 161.829 270.020,160.127 268.400,160.017 268.400 C 159.907 268.400,161.429 270.020,163.400 272.000 M168.400 271.400 C 169.146 272.170,169.847 272.800,169.957 272.800 C 170.067 272.800,169.546 272.170,168.800 271.400 C 168.054 270.630,167.353 270.000,167.243 270.000 C 167.133 270.000,167.654 270.630,168.400 271.400 M230.600 273.200 C 230.202 273.640,230.001 274.000,230.155 274.000 C 230.308 274.000,230.820 273.640,231.292 273.200 C 231.764 272.760,231.965 272.400,231.737 272.400 C 231.510 272.400,230.998 272.760,230.600 273.200 M84.000 274.378 C 84.000 274.725,89.954 280.593,90.088 280.378 C 90.150 280.280,88.805 278.836,87.100 277.168 C 85.395 275.501,84.000 274.245,84.000 274.378 M171.000 279.600 C 172.971 281.580,174.673 283.200,174.783 283.200 C 174.893 283.200,173.371 281.580,171.400 279.600 C 169.429 277.620,167.727 276.000,167.617 276.000 C 167.507 276.000,169.029 277.620,171.000 279.600 M178.400 281.400 C 179.146 282.170,179.847 282.800,179.957 282.800 C 180.067 282.800,179.546 282.170,178.800 281.400 C 178.054 280.630,177.353 280.000,177.243 280.000 C 177.133 280.000,177.654 280.630,178.400 281.400 M92.400 283.000 C 93.595 284.210,94.663 285.200,94.773 285.200 C 94.883 285.200,93.995 284.210,92.800 283.000 C 91.605 281.790,90.537 280.800,90.427 280.800 C 90.317 280.800,91.205 281.790,92.400 283.000 M175.600 284.125 C 175.600 284.194,176.185 284.779,176.900 285.425 L 178.200 286.600 177.025 285.300 C 175.930 284.088,175.600 283.816,175.600 284.125 M101.200 291.800 C 103.060 293.670,104.672 295.200,104.782 295.200 C 104.892 295.200,103.460 293.670,101.600 291.800 C 99.740 289.930,98.128 288.400,98.018 288.400 C 97.908 288.400,99.340 289.930,101.200 291.800 M183.238 291.700 C 183.332 291.755,184.127 292.430,185.004 293.200 L 186.600 294.600 185.222 293.100 C 184.463 292.275,183.668 291.600,183.455 291.600 C 183.241 291.600,183.144 291.645,183.238 291.700 M191.600 294.600 C 192.346 295.370,193.047 296.000,193.157 296.000 C 193.267 296.000,192.746 295.370,192.000 294.600 C 191.254 293.830,190.553 293.200,190.443 293.200 C 190.333 293.200,190.854 293.830,191.600 294.600 M188.801 296.996 C 189.570 297.873,190.245 298.668,190.300 298.762 C 190.355 298.856,190.487 298.847,190.593 298.741 C 190.699 298.635,190.024 297.840,189.093 296.974 L 187.401 295.400 188.801 296.996 M207.398 296.402 C 206.371 297.537,206.806 297.629,207.963 296.522 C 208.493 296.015,208.746 295.600,208.525 295.600 C 208.305 295.600,207.797 295.961,207.398 296.402 M108.000 298.431 C 108.000 298.531,110.558 301.130,113.684 304.206 C 116.811 307.283,118.640 308.990,117.750 308.000 C 115.797 305.828,108.000 298.176,108.000 298.431 M192.400 300.600 C 193.146 301.370,193.847 302.000,193.957 302.000 C 194.067 302.000,193.546 301.370,192.800 300.600 C 192.054 299.830,191.353 299.200,191.243 299.200 C 191.133 299.200,191.654 299.830,192.400 300.600 M197.200 300.111 C 197.200 300.187,197.785 300.678,198.500 301.201 C 199.304 301.790,199.584 301.887,199.233 301.455 C 198.700 300.799,197.200 299.807,197.200 300.111 M201.600 301.800 C 201.326 302.130,200.809 302.414,200.451 302.432 C 200.002 302.453,199.962 302.528,200.323 302.673 C 200.611 302.788,201.151 302.617,201.523 302.293 C 201.895 301.969,202.470 301.605,202.800 301.484 C 203.302 301.299,203.293 301.258,202.749 301.232 C 202.391 301.214,201.874 301.470,201.600 301.800 M125.600 316.110 C 128.790 319.349,131.475 321.999,131.568 321.999 C 131.824 322.000,126.337 316.400,122.879 313.132 C 121.186 311.531,122.410 312.871,125.600 316.110 M134.000 324.245 C 134.000 324.453,135.215 325.788,136.700 327.212 L 139.400 329.800 136.800 327.010 C 135.370 325.476,134.155 324.141,134.100 324.044 C 134.045 323.946,134.000 324.037,134.000 324.245 M144.800 335.310 C 147.550 338.107,149.908 340.397,150.039 340.398 C 150.319 340.400,147.053 337.091,142.800 333.064 C 141.150 331.502,142.050 332.512,144.800 335.310 M151.800 342.400 C 152.659 343.280,153.452 344.000,153.562 344.000 C 153.672 344.000,153.059 343.280,152.200 342.400 C 151.341 341.520,150.548 340.800,150.438 340.800 C 150.328 340.800,150.941 341.520,151.800 342.400 M154.000 344.241 C 154.000 344.447,155.755 346.322,157.900 348.408 L 161.800 352.200 158.000 348.213 C 155.910 346.019,154.155 344.144,154.100 344.046 C 154.045 343.947,154.000 344.035,154.000 344.241 M164.000 354.378 C 164.000 354.725,169.954 360.593,170.088 360.378 C 170.150 360.280,168.805 358.836,167.100 357.168 C 165.395 355.501,164.000 354.245,164.000 354.378 M172.400 363.000 C 173.595 364.210,174.663 365.200,174.773 365.200 C 174.883 365.200,173.995 364.210,172.800 363.000 C 171.605 361.790,170.537 360.800,170.427 360.800 C 170.317 360.800,171.205 361.790,172.400 363.000 M181.200 371.800 C 183.060 373.670,184.672 375.200,184.782 375.200 C 184.892 375.200,183.460 373.670,181.600 371.800 C 179.740 369.930,178.128 368.400,178.018 368.400 C 177.908 368.400,179.340 369.930,181.200 371.800 M191.285 381.793 C 193.201 383.757,194.823 385.282,194.889 385.182 C 194.955 385.082,193.386 383.475,191.404 381.611 L 187.800 378.222 191.285 381.793 " stroke="none" fill="#48746c" fill-rule="evenodd"></path></g></svg>