<svg id="svg" version="1.1" xmlns="http://www.w3.org/2000/svg" xmlns:xlink="http://www.w3.org/1999/xlink" width="400" height="400" viewBox="0, 0, 400,400"><g id="svgg"><path id="path0" d="M105.200 105.406 L 15.000 195.612 55.400 195.587 L 95.800 195.563 145.702 145.672 L 195.604 95.781 195.502 55.490 L 195.400 15.199 105.200 105.406 M198.631 99.320 C 195.834 101.706,102.157 195.405,100.091 197.883 L 98.382 199.933 99.577 201.666 C 100.515 203.025,195.923 298.544,198.949 301.154 C 199.672 301.777,199.688 302.624,199.394 325.400 C 198.713 378.052,198.600 399.400,199.000 399.694 C 199.220 399.856,199.686 399.991,200.035 399.994 C 200.800 400.001,201.200 376.058,201.200 330.167 C 201.200 302.855,201.253 301.200,202.127 301.200 C 202.710 301.200,301.191 202.734,301.196 202.146 C 301.212 200.346,300.072 200.384,351.593 200.495 C 388.304 200.575,400.000 200.487,400.000 200.133 C 400.000 198.547,401.678 198.596,351.043 198.705 L 302.494 198.809 253.345 149.705 C 210.803 107.202,201.008 97.518,200.667 97.620 C 200.630 97.631,199.714 98.396,198.631 99.320 M191.747 160.681 C 191.902 160.835,189.549 163.445,186.519 166.481 L 181.011 172.000 169.950 172.000 L 158.889 172.000 153.444 166.593 C 150.450 163.620,148.000 161.010,148.000 160.793 C 148.000 160.339,191.295 160.228,191.747 160.681 M252.550 160.719 C 252.659 160.895,250.275 163.505,247.252 166.519 L 241.757 172.000 230.710 172.000 L 219.663 172.000 214.231 166.609 C 211.244 163.644,208.800 161.034,208.800 160.809 C 208.800 160.316,252.245 160.226,252.550 160.719 M151.647 168.289 L 157.200 173.778 157.200 181.581 L 157.200 189.384 153.708 192.892 C 149.585 197.035,150.140 196.905,147.625 194.310 L 145.600 192.220 145.600 177.510 C 145.600 169.419,145.711 162.800,145.847 162.800 C 145.983 162.800,148.593 165.270,151.647 168.289 M255.200 177.559 L 255.200 191.872 253.100 194.139 C 250.468 196.981,250.832 197.052,246.692 192.892 L 243.200 189.384 243.200 181.558 L 243.200 173.732 248.800 168.243 C 251.880 165.223,254.580 162.864,254.800 163.000 C 255.055 163.157,255.200 168.447,255.200 177.559 M194.400 177.440 L 194.400 191.680 192.025 194.136 L 189.651 196.593 186.031 192.997 L 182.410 189.400 182.405 181.583 L 182.400 173.766 187.775 168.483 C 190.732 165.577,193.432 163.200,193.775 163.200 C 194.330 163.200,194.400 164.799,194.400 177.440 M245.290 195.089 C 248.587 198.361,248.586 197.990,245.311 201.290 L 242.621 204.000 230.358 204.000 L 218.094 204.000 215.547 201.381 C 212.302 198.044,212.323 198.476,215.250 195.206 L 217.763 192.400 230.171 192.400 L 242.580 192.400 245.290 195.089 M153.700 204.089 L 157.200 207.782 157.200 215.717 L 157.200 223.651 151.602 229.226 C 148.524 232.292,145.914 234.800,145.802 234.800 C 145.691 234.800,145.600 228.011,145.600 219.713 L 145.600 204.625 147.686 202.513 C 150.255 199.911,149.571 199.732,153.700 204.089 M194.305 219.665 C 194.228 230.291,194.076 234.200,193.740 234.200 C 193.487 234.200,190.832 231.874,187.840 229.031 L 182.400 223.861 182.400 215.712 L 182.400 207.562 186.070 203.931 L 189.740 200.299 192.075 202.715 L 194.410 205.131 194.305 219.665 M252.888 202.687 L 255.200 204.975 255.200 219.664 C 255.200 227.743,255.065 234.434,254.900 234.534 C 254.735 234.634,252.035 232.248,248.900 229.233 L 243.200 223.749 243.200 215.675 L 243.200 207.601 246.700 204.026 C 250.881 199.756,250.097 199.925,252.888 202.687 M186.543 231.143 C 190.858 235.466,191.928 236.742,191.405 236.943 C 190.243 237.389,148.000 237.245,148.000 236.795 C 148.000 236.573,150.385 233.973,153.300 231.018 L 158.600 225.645 169.805 225.622 L 181.011 225.600 186.543 231.143 M247.319 231.119 C 250.349 234.155,252.702 236.765,252.547 236.919 C 252.081 237.386,209.283 237.258,208.993 236.789 C 208.854 236.564,211.138 233.967,214.070 231.019 L 219.400 225.659 230.605 225.630 L 241.811 225.600 247.319 231.119 " stroke="none" fill="#041c1c" fill-rule="evenodd"></path><path id="path1" d="M100.222 100.220 C 45.540 154.902,0.801 199.857,0.803 200.120 C 0.805 200.384,45.158 244.947,99.366 299.150 L 197.926 397.700 198.151 395.150 C 198.869 387.024,198.867 301.277,198.148 300.875 C 197.230 300.361,100.727 203.913,99.159 201.942 C 98.522 201.141,98.000 200.173,98.000 199.792 C 98.000 198.507,199.344 97.200,200.630 97.200 C 201.414 97.200,208.775 104.432,253.042 148.700 L 302.342 198.000 350.061 198.000 L 397.779 198.000 299.190 99.404 C 244.965 45.176,200.385 0.806,200.122 0.804 C 199.859 0.802,154.904 45.539,100.222 100.220 M195.992 55.800 L 195.997 96.200 146.073 146.085 L 96.149 195.971 55.502 195.992 C 31.456 196.005,14.764 195.865,14.631 195.650 C 14.507 195.449,55.113 154.578,104.868 104.824 C 168.603 41.089,195.427 14.516,195.659 14.882 C 195.840 15.167,195.990 33.580,195.992 55.800 M153.837 166.200 L 159.277 171.600 169.941 171.600 L 180.605 171.600 185.985 166.200 L 191.365 160.800 169.880 160.800 L 148.396 160.800 153.837 166.200 M209.633 160.984 C 209.725 161.085,212.134 163.515,214.986 166.384 L 220.172 171.600 230.786 171.596 L 241.400 171.592 246.782 166.196 L 252.164 160.800 230.815 160.800 C 219.074 160.800,209.542 160.883,209.633 160.984 M146.000 177.621 L 146.000 191.830 148.003 193.803 L 150.006 195.776 153.403 192.397 L 156.800 189.018 156.800 181.603 L 156.800 174.189 151.400 168.800 L 146.000 163.411 146.000 177.621 M188.403 168.600 C 185.655 171.240,183.273 173.580,183.110 173.800 C 182.946 174.020,182.809 177.534,182.806 181.609 L 182.800 189.018 186.177 192.377 C 189.926 196.106,189.496 196.043,192.280 193.282 L 193.610 191.963 193.505 177.882 L 193.400 163.800 188.403 168.600 M249.339 168.500 C 246.811 170.975,244.576 173.060,244.372 173.133 C 244.159 173.210,244.000 176.728,244.000 181.343 L 244.000 189.419 247.109 192.509 C 250.774 196.153,250.464 196.083,252.660 193.758 L 254.400 191.916 254.400 177.958 C 254.400 170.281,254.295 164.000,254.167 164.000 C 254.039 164.000,251.866 166.025,249.339 168.500 M215.953 195.300 C 213.097 198.356,213.094 198.061,216.018 201.100 L 218.423 203.600 230.322 203.600 L 242.221 203.600 244.919 200.882 L 247.617 198.163 244.948 195.482 L 242.280 192.800 230.285 192.800 L 218.290 192.800 215.953 195.300 M147.885 203.114 L 146.000 205.027 146.000 219.590 L 146.000 234.154 151.393 228.777 L 156.786 223.400 156.793 215.749 L 156.800 208.097 153.532 204.649 C 149.682 200.587,150.228 200.735,147.885 203.114 M186.247 204.542 L 182.800 207.981 182.800 215.752 L 182.800 223.522 188.100 228.530 L 193.400 233.538 193.505 219.279 L 193.610 205.020 191.652 203.061 L 189.693 201.103 186.247 204.542 M247.257 204.464 L 244.000 207.708 244.000 215.731 L 244.000 223.754 249.100 228.658 L 254.200 233.562 254.305 219.363 C 254.421 203.673,254.574 204.709,251.782 202.310 L 250.514 201.221 247.257 204.464 M302.300 201.632 C 301.915 201.856,301.600 202.212,301.600 202.424 C 301.600 202.901,202.948 301.600,202.470 301.600 C 202.004 301.600,201.150 393.629,201.574 398.068 C 201.588 398.216,245.846 354.116,299.924 300.068 C 354.002 246.021,398.181 201.665,398.100 201.500 C 397.865 201.022,303.123 201.153,302.300 201.632 M153.649 231.428 L 148.298 236.800 169.843 236.800 L 191.389 236.800 186.000 231.400 L 180.611 226.000 169.806 226.028 L 159.000 226.056 153.649 231.428 M214.549 231.400 L 209.064 236.800 230.664 236.800 L 252.264 236.800 246.814 231.400 L 241.365 226.000 230.699 226.000 L 220.034 226.000 214.549 231.400 " stroke="none" fill="#0cb39b" fill-rule="evenodd"></path><path id="path2" d="M199.428 0.290 C 198.113 0.625,-0.000 199.019,-0.000 200.000 C 0.000 201.035,197.355 398.598,197.994 398.204 C 198.217 398.066,198.371 397.288,198.336 396.476 L 198.272 395.000 198.106 396.357 C 197.943 397.695,196.488 396.262,99.373 299.157 C 45.161 244.951,0.805 200.384,0.803 200.120 C 0.799 199.503,199.490 0.800,200.111 0.800 C 200.367 0.800,244.903 45.125,299.079 99.300 L 397.580 197.800 349.690 198.002 L 301.800 198.205 349.600 198.296 C 377.343 198.349,397.638 198.237,397.968 198.028 C 398.530 197.673,201.335 -0.066,200.531 0.046 C 200.349 0.072,199.853 0.181,199.428 0.290 M195.698 55.574 L 195.600 96.148 194.711 97.174 L 193.823 98.200 194.913 97.189 L 196.004 96.178 195.900 55.589 L 195.796 15.000 195.698 55.574 M163.578 128.300 L 162.200 129.800 163.700 128.422 C 164.525 127.663,165.200 126.988,165.200 126.922 C 165.200 126.616,164.862 126.904,163.578 128.300 M160.181 131.700 L 158.600 133.400 160.300 131.819 C 161.881 130.348,162.184 130.000,161.881 130.000 C 161.816 130.000,161.051 130.765,160.181 131.700 M155.781 136.100 L 154.200 137.800 155.900 136.219 C 157.481 134.748,157.784 134.400,157.481 134.400 C 157.416 134.400,156.651 135.165,155.781 136.100 M147.978 143.900 L 146.600 145.400 148.100 144.022 C 148.925 143.263,149.600 142.588,149.600 142.522 C 149.600 142.216,149.262 142.504,147.978 143.900 M144.185 147.700 L 142.200 149.800 144.300 147.815 C 145.455 146.723,146.400 145.778,146.400 145.715 C 146.400 145.417,146.029 145.749,144.185 147.700 M140.181 151.700 L 138.600 153.400 140.300 151.819 C 141.881 150.348,142.184 150.000,141.881 150.000 C 141.816 150.000,141.051 150.765,140.181 151.700 M132.985 158.900 L 131.000 161.000 133.100 159.015 C 134.255 157.923,135.200 156.978,135.200 156.915 C 135.200 156.617,134.829 156.949,132.985 158.900 M211.800 163.600 C 213.328 165.140,214.669 166.400,214.779 166.400 C 214.889 166.400,213.728 165.140,212.200 163.600 C 210.672 162.060,209.331 160.800,209.221 160.800 C 209.111 160.800,210.272 162.060,211.800 163.600 M128.585 163.300 L 126.600 165.400 128.700 163.415 C 130.651 161.571,130.983 161.200,130.685 161.200 C 130.622 161.200,129.677 162.145,128.585 163.300 M145.780 177.600 C 145.780 185.410,145.834 188.605,145.899 184.700 C 145.965 180.795,145.965 174.405,145.899 170.500 C 145.834 166.595,145.780 169.790,145.780 177.600 M253.762 164.062 C 253.586 164.346,253.652 164.415,253.933 164.241 C 254.271 164.033,254.418 167.575,254.500 177.880 L 254.611 191.800 254.705 177.700 C 254.794 164.515,254.662 162.606,253.762 164.062 M124.778 167.100 L 123.400 168.600 124.900 167.222 C 125.725 166.463,126.400 165.788,126.400 165.722 C 126.400 165.416,126.062 165.704,124.778 167.100 M217.400 169.200 C 218.706 170.520,219.865 171.600,219.975 171.600 C 220.085 171.600,219.106 170.520,217.800 169.200 C 216.494 167.880,215.335 166.800,215.225 166.800 C 215.115 166.800,216.094 167.880,217.400 169.200 M116.778 175.100 L 115.400 176.600 116.900 175.222 C 117.725 174.463,118.400 173.788,118.400 173.722 C 118.400 173.416,118.062 173.704,116.778 175.100 M243.767 181.600 C 243.767 185.890,243.826 187.645,243.898 185.500 C 243.970 183.355,243.970 179.845,243.898 177.700 C 243.826 175.555,243.767 177.310,243.767 181.600 M112.985 178.900 L 111.000 181.000 113.100 179.015 C 114.255 177.923,115.200 176.978,115.200 176.915 C 115.200 176.617,114.829 176.949,112.985 178.900 M109.178 182.700 L 107.800 184.200 109.300 182.822 C 110.125 182.063,110.800 181.388,110.800 181.322 C 110.800 181.016,110.462 181.304,109.178 182.700 M101.200 190.600 C 100.228 191.590,99.523 192.400,99.633 192.400 C 99.743 192.400,100.628 191.590,101.600 190.600 C 102.572 189.610,103.277 188.800,103.167 188.800 C 103.057 188.800,102.172 189.610,101.200 190.600 M147.583 193.700 C 149.241 195.466,149.600 195.784,149.600 195.483 C 149.600 195.419,148.745 194.564,147.700 193.583 L 145.800 191.800 147.583 193.700 M214.975 196.100 L 213.800 197.400 215.100 196.225 C 215.815 195.579,216.400 194.994,216.400 194.925 C 216.400 194.616,216.070 194.888,214.975 196.100 M398.100 201.500 C 398.290 201.887,201.706 398.373,201.417 398.084 C 201.298 397.965,201.200 398.047,201.200 398.267 C 201.200 398.487,201.315 398.782,201.455 398.922 C 201.779 399.245,399.172 201.906,398.931 201.500 C 398.833 201.335,398.573 201.200,398.353 201.200 C 398.133 201.200,398.019 201.335,398.100 201.500 M247.775 203.700 L 246.600 205.000 247.900 203.825 C 248.615 203.179,249.200 202.594,249.200 202.525 C 249.200 202.216,248.870 202.488,247.775 203.700 M145.781 219.600 C 145.781 227.630,145.834 230.915,145.899 226.900 C 145.965 222.885,145.965 216.315,145.899 212.300 C 145.834 208.285,145.781 211.570,145.781 219.600 M254.581 219.400 C 254.580 227.320,254.634 230.617,254.699 226.726 C 254.765 222.835,254.765 216.355,254.700 212.326 C 254.634 208.297,254.581 211.480,254.581 219.400 M244.040 207.351 C 243.722 207.735,243.618 210.315,243.700 215.851 L 243.818 223.800 243.909 215.780 C 243.972 210.184,244.145 207.615,244.480 207.280 C 244.744 207.016,244.856 206.800,244.729 206.800 C 244.602 206.800,244.292 207.048,244.040 207.351 M164.700 225.899 C 167.615 225.967,172.385 225.967,175.300 225.899 C 178.215 225.831,175.830 225.775,170.000 225.775 C 164.170 225.775,161.785 225.831,164.700 225.899 M225.500 225.899 C 228.415 225.967,233.185 225.967,236.100 225.899 C 239.015 225.831,236.630 225.775,230.800 225.775 C 224.970 225.775,222.585 225.831,225.500 225.899 M248.400 228.200 C 249.146 228.970,249.847 229.600,249.957 229.600 C 250.067 229.600,249.546 228.970,248.800 228.200 C 248.054 227.430,247.353 226.800,247.243 226.800 C 247.133 226.800,247.654 227.430,248.400 228.200 M201.772 320.000 C 201.772 325.170,201.829 327.285,201.899 324.700 C 201.968 322.115,201.968 317.885,201.899 315.300 C 201.829 312.715,201.772 314.830,201.772 320.000 M198.581 356.600 C 198.581 364.740,198.634 368.013,198.700 363.874 C 198.765 359.734,198.765 353.074,198.699 349.074 C 198.634 345.073,198.581 348.460,198.581 356.600 M201.377 383.000 C 201.377 389.600,201.432 392.356,201.499 389.125 C 201.566 385.893,201.566 380.493,201.499 377.125 C 201.432 373.756,201.377 376.400,201.377 383.000 " stroke="none" fill="#838484" fill-rule="evenodd"></path><path id="path3" d="M202.800 98.925 C 202.800 98.994,203.385 99.579,204.100 100.225 L 205.400 101.400 204.225 100.100 C 203.130 98.888,202.800 98.616,202.800 98.925 M193.392 103.700 L 189.800 107.400 193.500 103.808 C 196.936 100.472,197.382 100.000,197.092 100.000 C 197.032 100.000,195.367 101.665,193.392 103.700 M181.796 115.300 L 174.200 123.000 181.900 115.404 C 189.054 108.346,189.781 107.600,189.496 107.600 C 189.439 107.600,185.974 111.065,181.796 115.300 M172.378 124.700 L 171.000 126.200 172.500 124.822 C 173.325 124.063,174.000 123.388,174.000 123.322 C 174.000 123.016,173.662 123.304,172.378 124.700 M165.578 125.900 L 164.200 127.400 165.700 126.022 C 166.525 125.263,167.200 124.588,167.200 124.522 C 167.200 124.216,166.862 124.504,165.578 125.900 M168.400 128.600 C 167.428 129.590,166.723 130.400,166.833 130.400 C 166.943 130.400,167.828 129.590,168.800 128.600 C 169.772 127.610,170.477 126.800,170.367 126.800 C 170.257 126.800,169.372 127.610,168.400 128.600 M161.178 130.300 L 159.800 131.800 161.300 130.422 C 162.696 129.138,162.984 128.800,162.678 128.800 C 162.612 128.800,161.937 129.475,161.178 130.300 M160.595 136.500 L 155.000 142.200 160.700 136.605 C 165.995 131.408,166.581 130.800,166.295 130.800 C 166.237 130.800,163.672 133.365,160.595 136.500 M149.978 141.500 L 148.600 143.000 150.100 141.622 C 150.925 140.863,151.600 140.188,151.600 140.122 C 151.600 139.816,151.262 140.104,149.978 141.500 M152.800 144.200 C 151.828 145.190,151.123 146.000,151.233 146.000 C 151.343 146.000,152.228 145.190,153.200 144.200 C 154.172 143.210,154.877 142.400,154.767 142.400 C 154.657 142.400,153.772 143.210,152.800 144.200 M148.400 148.600 C 147.428 149.590,146.723 150.400,146.833 150.400 C 146.943 150.400,147.828 149.590,148.800 148.600 C 149.772 147.610,150.477 146.800,150.367 146.800 C 150.257 146.800,149.372 147.610,148.400 148.600 M144.378 152.700 L 143.000 154.200 144.500 152.822 C 145.325 152.063,146.000 151.388,146.000 151.322 C 146.000 151.016,145.662 151.304,144.378 152.700 M138.792 158.300 L 135.000 162.200 138.900 158.408 C 142.522 154.886,142.982 154.400,142.692 154.400 C 142.633 154.400,140.878 156.155,138.792 158.300 M169.991 160.700 L 191.382 160.807 185.996 166.204 L 180.611 171.600 169.837 171.600 C 160.159 171.600,158.978 171.529,158.231 170.900 C 157.401 170.201,157.401 170.201,158.162 171.100 C 158.918 171.992,159.015 172.000,169.767 172.000 L 180.611 172.000 186.119 166.481 C 189.149 163.445,191.502 160.835,191.347 160.681 C 191.193 160.526,181.512 160.443,169.833 160.496 L 148.600 160.593 169.991 160.700 M220.128 160.700 C 226.029 160.762,235.569 160.762,241.328 160.700 C 247.088 160.637,242.260 160.586,230.600 160.586 C 218.940 160.586,214.228 160.637,220.128 160.700 M213.994 166.100 C 216.961 169.125,219.436 171.600,219.494 171.600 C 219.781 171.600,219.209 171.006,214.100 165.994 L 208.600 160.600 213.994 166.100 M246.606 166.394 L 241.424 171.587 230.612 171.700 L 219.800 171.813 230.606 171.907 L 241.411 172.000 246.800 166.600 C 249.764 163.630,252.099 161.200,251.989 161.200 C 251.879 161.200,249.456 163.537,246.606 166.394 M130.992 166.100 L 127.400 169.800 131.100 166.208 C 134.536 162.872,134.982 162.400,134.692 162.400 C 134.632 162.400,132.967 164.065,130.992 166.100 M151.200 164.200 C 151.946 164.970,152.647 165.600,152.757 165.600 C 152.867 165.600,152.346 164.970,151.600 164.200 C 150.854 163.430,150.153 162.800,150.043 162.800 C 149.933 162.800,150.454 163.430,151.200 164.200 M145.645 163.300 C 145.744 163.355,147.439 164.930,149.412 166.800 L 153.000 170.200 149.609 166.700 C 147.744 164.775,146.049 163.200,145.842 163.200 C 145.636 163.200,145.547 163.245,145.645 163.300 M188.987 167.707 L 184.600 172.200 189.100 167.807 L 193.600 163.414 193.695 177.807 L 193.789 192.200 193.900 178.025 C 193.961 170.229,193.867 163.707,193.692 163.532 C 193.517 163.357,191.399 165.235,188.987 167.707 M249.166 168.204 C 246.618 170.732,244.641 172.800,244.773 172.800 C 244.905 172.800,247.077 170.730,249.600 168.200 C 252.123 165.670,254.100 163.602,253.993 163.604 C 253.887 163.607,251.715 165.677,249.166 168.204 M123.392 173.700 L 119.800 177.400 123.500 173.808 C 126.936 170.472,127.382 170.000,127.092 170.000 C 127.032 170.000,125.367 171.665,123.392 173.700 M118.778 172.700 L 117.400 174.200 118.900 172.822 C 119.725 172.063,120.400 171.388,120.400 171.322 C 120.400 171.016,120.062 171.304,118.778 172.700 M243.449 173.815 C 243.312 174.173,243.237 177.646,243.283 181.533 L 243.365 188.600 243.583 181.000 C 243.817 172.791,243.819 172.853,243.449 173.815 M182.667 173.867 C 182.520 174.013,182.400 177.482,182.400 181.575 L 182.400 189.017 185.908 192.508 C 187.837 194.429,189.524 196.000,189.656 196.000 C 189.789 196.000,188.293 194.430,186.333 192.512 L 182.768 189.024 182.884 181.312 C 182.948 177.070,182.985 173.599,182.967 173.600 C 182.948 173.600,182.813 173.720,182.667 173.867 M156.891 181.409 L 156.800 189.018 153.492 192.309 C 149.593 196.187,149.814 196.139,147.455 193.617 C 146.435 192.527,145.600 191.768,145.600 191.932 C 145.600 192.374,149.363 196.000,149.822 196.000 C 150.039 196.000,151.792 194.417,153.717 192.483 L 157.218 188.966 157.100 181.383 L 156.981 173.800 156.891 181.409 M117.775 179.300 L 116.600 180.600 117.900 179.425 C 119.112 178.330,119.384 178.000,119.075 178.000 C 119.006 178.000,118.421 178.585,117.775 179.300 M109.995 187.100 L 104.200 193.000 110.100 187.205 C 113.345 184.018,116.000 181.363,116.000 181.305 C 116.000 181.019,115.378 181.619,109.995 187.100 M106.778 184.700 L 105.400 186.200 106.900 184.822 C 108.296 183.538,108.584 183.200,108.278 183.200 C 108.212 183.200,107.537 183.875,106.778 184.700 M246.791 192.500 C 250.727 196.562,250.562 196.511,252.619 194.300 L 254.200 192.600 252.583 194.100 C 250.490 196.041,250.759 196.125,246.808 192.300 L 243.400 189.000 246.791 192.500 M216.778 193.900 L 215.400 195.400 216.831 194.088 L 218.262 192.777 230.493 192.888 C 237.220 192.950,242.641 192.865,242.538 192.700 C 242.436 192.535,236.909 192.400,230.255 192.400 L 218.157 192.400 216.778 193.900 M101.785 195.300 L 99.800 197.400 101.900 195.415 C 103.055 194.323,104.000 193.378,104.000 193.315 C 104.000 193.017,103.629 193.349,101.785 195.300 M34.530 195.900 C 45.272 195.959,62.732 195.959,73.330 195.900 C 83.929 195.841,75.140 195.792,53.800 195.792 C 32.460 195.792,23.789 195.841,34.530 195.900 M244.806 200.994 L 242.234 203.589 230.217 203.700 L 218.200 203.812 230.211 203.906 L 242.221 204.000 245.000 201.200 C 246.528 199.660,247.688 198.400,247.578 198.400 C 247.467 198.400,246.220 199.567,244.806 200.994 M147.586 203.100 L 145.400 205.400 147.700 203.214 L 150.000 201.027 152.300 203.214 L 154.600 205.400 152.414 203.100 C 151.211 201.835,150.125 200.800,150.000 200.800 C 149.875 200.800,148.789 201.835,147.586 203.100 M246.791 204.300 L 243.400 207.800 246.988 204.400 C 248.961 202.530,250.656 200.955,250.755 200.900 C 250.853 200.845,250.764 200.800,250.558 200.800 C 250.351 200.800,248.656 202.375,246.791 204.300 M316.200 201.094 C 351.505 201.366,399.600 201.369,399.600 201.100 C 399.600 200.935,377.775 200.843,351.100 200.895 C 324.425 200.947,308.720 201.036,316.200 201.094 M185.691 204.508 L 182.400 207.817 182.400 215.617 L 182.400 223.418 185.900 226.809 L 189.400 230.200 186.100 226.792 L 182.800 223.383 182.800 215.600 L 182.800 207.817 186.091 204.508 C 187.901 202.689,189.292 201.200,189.182 201.200 C 189.072 201.200,187.501 202.689,185.691 204.508 M101.600 204.600 C 102.346 205.370,103.047 206.000,103.157 206.000 C 103.267 206.000,102.746 205.370,102.000 204.600 C 101.254 203.830,100.553 203.200,100.443 203.200 C 100.333 203.200,100.854 203.830,101.600 204.600 M192.910 204.242 C 193.566 205.021,193.611 206.193,193.510 219.704 C 193.449 227.745,193.535 234.241,193.700 234.138 C 193.865 234.036,194.000 227.421,194.000 219.438 L 194.000 204.924 193.100 204.162 L 192.200 203.400 192.910 204.242 M105.200 208.200 C 105.946 208.970,106.647 209.600,106.757 209.600 C 106.867 209.600,106.346 208.970,105.600 208.200 C 104.854 207.430,104.153 206.800,104.043 206.800 C 103.933 206.800,104.454 207.430,105.200 208.200 M156.967 215.600 C 156.967 219.890,157.026 221.645,157.098 219.500 C 157.170 217.355,157.170 213.845,157.098 211.700 C 157.026 209.555,156.967 211.310,156.967 215.600 M243.366 215.600 C 243.366 219.670,243.425 221.335,243.498 219.300 C 243.571 217.265,243.571 213.935,243.498 211.900 C 243.425 209.865,243.366 211.530,243.366 215.600 M108.400 211.400 C 109.146 212.170,109.847 212.800,109.957 212.800 C 110.067 212.800,109.546 212.170,108.800 211.400 C 108.054 210.630,107.353 210.000,107.243 210.000 C 107.133 210.000,107.654 210.630,108.400 211.400 M111.600 214.600 C 112.346 215.370,113.047 216.000,113.157 216.000 C 113.267 216.000,112.746 215.370,112.000 214.600 C 111.254 213.830,110.553 213.200,110.443 213.200 C 110.333 213.200,110.854 213.830,111.600 214.600 M118.400 221.400 C 119.146 222.170,119.847 222.800,119.957 222.800 C 120.067 222.800,119.546 222.170,118.800 221.400 C 118.054 220.630,117.353 220.000,117.243 220.000 C 117.133 220.000,117.654 220.630,118.400 221.400 M121.600 224.600 C 122.346 225.370,123.047 226.000,123.157 226.000 C 123.267 226.000,122.746 225.370,122.000 224.600 C 121.254 223.830,120.553 223.200,120.443 223.200 C 120.333 223.200,120.854 223.830,121.600 224.600 M151.171 229.004 C 148.185 231.972,145.847 234.400,145.976 234.400 C 146.106 234.400,148.636 231.970,151.600 229.000 C 154.564 226.030,156.901 223.602,156.794 223.604 C 156.687 223.606,154.157 226.036,151.171 229.004 M245.400 225.600 C 246.483 226.700,247.460 227.600,247.570 227.600 C 247.680 227.600,246.883 226.700,245.800 225.600 C 244.717 224.500,243.740 223.600,243.630 223.600 C 243.520 223.600,244.317 224.500,245.400 225.600 M153.395 231.300 L 147.800 237.000 153.586 231.400 C 156.768 228.320,159.453 225.755,159.553 225.700 C 159.652 225.645,159.566 225.600,159.361 225.600 C 159.157 225.600,156.472 228.165,153.395 231.300 M185.800 231.200 C 188.874 234.280,191.479 236.800,191.589 236.800 C 191.699 236.800,189.274 234.280,186.200 231.200 C 183.126 228.120,180.521 225.600,180.411 225.600 C 180.301 225.600,182.726 228.120,185.800 231.200 M214.195 231.300 L 208.600 237.000 214.386 231.400 C 217.568 228.320,220.253 225.755,220.353 225.700 C 220.452 225.645,220.366 225.600,220.161 225.600 C 219.957 225.600,217.272 228.165,214.195 231.300 M246.394 230.900 C 251.406 236.009,252.000 236.581,252.000 236.294 C 252.000 236.236,249.525 233.761,246.500 230.794 L 241.000 225.400 246.394 230.900 M125.200 228.200 C 125.946 228.970,126.647 229.600,126.757 229.600 C 126.867 229.600,126.346 228.970,125.600 228.200 C 124.854 227.430,124.153 226.800,124.043 226.800 C 123.933 226.800,124.454 227.430,125.200 228.200 M128.400 231.400 C 129.146 232.170,129.847 232.800,129.957 232.800 C 130.067 232.800,129.546 232.170,128.800 231.400 C 128.054 230.630,127.353 230.000,127.243 230.000 C 127.133 230.000,127.654 230.630,128.400 231.400 M135.000 238.000 C 135.859 238.880,136.652 239.600,136.762 239.600 C 136.872 239.600,136.259 238.880,135.400 238.000 C 134.541 237.120,133.748 236.400,133.638 236.400 C 133.528 236.400,134.141 237.120,135.000 238.000 M138.400 241.400 C 139.146 242.170,139.847 242.800,139.957 242.800 C 140.067 242.800,139.546 242.170,138.800 241.400 C 138.054 240.630,137.353 240.000,137.243 240.000 C 137.133 240.000,137.654 240.630,138.400 241.400 M141.600 244.600 C 142.346 245.370,143.047 246.000,143.157 246.000 C 143.267 246.000,142.746 245.370,142.000 244.600 C 141.254 243.830,140.553 243.200,140.443 243.200 C 140.333 243.200,140.854 243.830,141.600 244.600 M145.200 248.200 C 145.946 248.970,146.647 249.600,146.757 249.600 C 146.867 249.600,146.346 248.970,145.600 248.200 C 144.854 247.430,144.153 246.800,144.043 246.800 C 143.933 246.800,144.454 247.430,145.200 248.200 M148.400 251.400 C 149.146 252.170,149.847 252.800,149.957 252.800 C 150.067 252.800,149.546 252.170,148.800 251.400 C 148.054 250.630,147.353 250.000,147.243 250.000 C 147.133 250.000,147.654 250.630,148.400 251.400 M151.600 254.600 C 152.346 255.370,153.047 256.000,153.157 256.000 C 153.267 256.000,152.746 255.370,152.000 254.600 C 151.254 253.830,150.553 253.200,150.443 253.200 C 150.333 253.200,150.854 253.830,151.600 254.600 M155.000 258.000 C 155.859 258.880,156.652 259.600,156.762 259.600 C 156.872 259.600,156.259 258.880,155.400 258.000 C 154.541 257.120,153.748 256.400,153.638 256.400 C 153.528 256.400,154.141 257.120,155.000 258.000 M158.400 261.400 C 159.146 262.170,159.847 262.800,159.957 262.800 C 160.067 262.800,159.546 262.170,158.800 261.400 C 158.054 260.630,157.353 260.000,157.243 260.000 C 157.133 260.000,157.654 260.630,158.400 261.400 M161.600 264.600 C 162.346 265.370,163.047 266.000,163.157 266.000 C 163.267 266.000,162.746 265.370,162.000 264.600 C 161.254 263.830,160.553 263.200,160.443 263.200 C 160.333 263.200,160.854 263.830,161.600 264.600 M165.000 268.000 C 165.859 268.880,166.652 269.600,166.762 269.600 C 166.872 269.600,166.259 268.880,165.400 268.000 C 164.541 267.120,163.748 266.400,163.638 266.400 C 163.528 266.400,164.141 267.120,165.000 268.000 M168.400 271.400 C 169.146 272.170,169.847 272.800,169.957 272.800 C 170.067 272.800,169.546 272.170,168.800 271.400 C 168.054 270.630,167.353 270.000,167.243 270.000 C 167.133 270.000,167.654 270.630,168.400 271.400 M171.600 274.600 C 172.346 275.370,173.047 276.000,173.157 276.000 C 173.267 276.000,172.746 275.370,172.000 274.600 C 171.254 273.830,170.553 273.200,170.443 273.200 C 170.333 273.200,170.854 273.830,171.600 274.600 M175.200 278.200 C 175.946 278.970,176.647 279.600,176.757 279.600 C 176.867 279.600,176.346 278.970,175.600 278.200 C 174.854 277.430,174.153 276.800,174.043 276.800 C 173.933 276.800,174.454 277.430,175.200 278.200 M178.400 281.400 C 179.146 282.170,179.847 282.800,179.957 282.800 C 180.067 282.800,179.546 282.170,178.800 281.400 C 178.054 280.630,177.353 280.000,177.243 280.000 C 177.133 280.000,177.654 280.630,178.400 281.400 M181.600 284.600 C 182.346 285.370,183.047 286.000,183.157 286.000 C 183.267 286.000,182.746 285.370,182.000 284.600 C 181.254 283.830,180.553 283.200,180.443 283.200 C 180.333 283.200,180.854 283.830,181.600 284.600 M188.400 291.400 C 189.146 292.170,189.847 292.800,189.957 292.800 C 190.067 292.800,189.546 292.170,188.800 291.400 C 188.054 290.630,187.353 290.000,187.243 290.000 C 187.133 290.000,187.654 290.630,188.400 291.400 M191.600 294.600 C 192.346 295.370,193.047 296.000,193.157 296.000 C 193.267 296.000,192.746 295.370,192.000 294.600 C 191.254 293.830,190.553 293.200,190.443 293.200 C 190.333 293.200,190.854 293.830,191.600 294.600 M195.200 298.200 C 195.946 298.970,196.647 299.600,196.757 299.600 C 196.867 299.600,196.346 298.970,195.600 298.200 C 194.854 297.430,194.153 296.800,194.043 296.800 C 193.933 296.800,194.454 297.430,195.200 298.200 M198.980 315.200 C 198.980 323.010,199.034 326.205,199.099 322.300 C 199.165 318.395,199.165 312.005,199.099 308.100 C 199.034 304.195,198.980 307.390,198.980 315.200 M201.773 301.726 C 201.662 302.015,201.630 304.220,201.701 306.626 L 201.830 311.000 201.915 306.333 C 201.975 303.041,202.147 301.607,202.500 301.465 C 202.892 301.307,202.889 301.256,202.487 301.232 C 202.206 301.214,201.884 301.437,201.773 301.726 M201.390 341.200 C 201.390 357.810,201.439 364.605,201.500 356.300 C 201.560 347.995,201.560 334.405,201.500 326.100 C 201.439 317.795,201.390 324.590,201.390 341.200 M198.489 384.200 C 198.434 391.460,198.296 397.850,198.183 398.400 L 197.977 399.400 198.394 398.451 C 198.663 397.838,198.771 392.807,198.700 384.251 L 198.589 371.000 198.489 384.200 M200.901 396.600 C 200.905 397.480,200.987 397.793,201.083 397.295 C 201.179 396.798,201.175 396.078,201.075 395.695 C 200.975 395.313,200.896 395.720,200.901 396.600 " stroke="none" fill="#0c645c" fill-rule="evenodd"></path><path id="path4" d="M105.000 105.300 L 14.600 195.800 105.100 105.400 C 189.242 21.351,195.779 14.800,195.500 14.800 C 195.444 14.800,154.719 55.525,105.000 105.300 M181.798 109.700 L 168.200 123.400 181.900 109.802 C 189.435 102.323,195.600 96.158,195.600 96.102 C 195.600 95.820,194.435 96.967,181.798 109.700 M226.000 122.352 C 226.000 122.742,227.555 124.198,227.723 123.964 C 227.787 123.874,227.426 123.401,226.920 122.914 C 226.414 122.427,226.000 122.174,226.000 122.352 M191.347 160.681 C 191.502 160.835,189.147 163.490,186.114 166.581 L 180.600 172.200 186.278 166.627 C 191.224 161.773,192.334 160.400,191.310 160.400 C 191.176 160.400,191.193 160.526,191.347 160.681 M251.933 160.676 C 252.320 160.830,252.156 161.231,251.333 162.144 L 250.200 163.400 251.486 162.239 C 252.720 161.125,252.884 160.365,251.876 160.432 C 251.564 160.452,251.584 160.536,251.933 160.676 M253.759 163.435 C 253.040 164.012,253.047 164.021,253.900 163.608 L 254.800 163.172 254.800 177.506 C 254.800 188.407,254.680 191.974,254.300 192.401 C 253.875 192.878,253.904 192.882,254.500 192.432 C 255.266 191.852,255.613 163.502,254.859 163.036 C 254.671 162.920,254.176 163.100,253.759 163.435 M193.902 172.500 C 193.958 177.615,194.054 184.050,194.115 186.800 C 194.176 189.550,194.265 185.365,194.313 177.500 C 194.361 169.635,194.265 163.200,194.100 163.200 C 193.935 163.199,193.846 167.384,193.902 172.500 M148.000 165.000 C 148.746 165.770,149.447 166.400,149.557 166.400 C 149.667 166.400,149.146 165.770,148.400 165.000 C 147.654 164.230,146.953 163.600,146.843 163.600 C 146.733 163.600,147.254 164.230,148.000 165.000 M246.591 166.900 L 243.400 170.200 246.700 167.009 C 248.515 165.255,250.000 163.770,250.000 163.709 C 250.000 163.418,249.554 163.835,246.591 166.900 M248.392 168.700 L 244.600 172.600 248.500 168.808 C 250.645 166.722,252.400 164.967,252.400 164.908 C 252.400 164.618,251.914 165.078,248.392 168.700 M187.978 168.300 L 186.600 169.800 188.100 168.422 C 188.925 167.663,189.600 166.988,189.600 166.922 C 189.600 166.616,189.262 166.904,187.978 168.300 M151.200 168.110 C 151.200 168.171,152.595 169.566,154.300 171.210 L 157.400 174.200 154.410 171.100 C 151.633 168.221,151.200 167.817,151.200 168.110 M184.185 172.100 L 182.200 174.200 184.300 172.215 C 185.455 171.123,186.400 170.178,186.400 170.115 C 186.400 169.817,186.029 170.149,184.185 172.100 M280.400 176.752 C 280.400 177.142,281.955 178.598,282.123 178.364 C 282.187 178.274,281.826 177.801,281.320 177.314 C 280.814 176.827,280.400 176.574,280.400 176.752 M243.225 188.808 C 243.197 189.489,249.964 196.400,250.659 196.400 C 250.903 196.400,251.349 196.101,251.651 195.736 C 252.153 195.128,252.124 195.119,251.303 195.630 C 250.373 196.209,244.510 191.170,243.590 189.000 C 243.360 188.457,243.243 188.395,243.225 188.808 M153.791 192.435 C 152.036 194.215,150.240 195.823,149.800 196.010 C 149.257 196.240,149.195 196.357,149.608 196.375 C 149.943 196.389,151.829 194.780,153.800 192.800 C 155.771 190.820,157.293 189.200,157.182 189.200 C 157.072 189.200,155.545 190.656,153.791 192.435 M183.600 190.600 C 184.346 191.370,185.047 192.000,185.157 192.000 C 185.267 192.000,184.746 191.370,184.000 190.600 C 183.254 189.830,182.553 189.200,182.443 189.200 C 182.333 189.200,182.854 189.830,183.600 190.600 M98.378 193.100 L 97.000 194.600 98.500 193.222 C 99.896 191.938,100.184 191.600,99.878 191.600 C 99.812 191.600,99.137 192.275,98.378 193.100 M188.093 194.994 C 189.336 196.308,189.672 196.482,190.093 196.028 C 190.504 195.586,190.499 195.540,190.065 195.786 C 189.726 195.979,188.997 195.603,188.065 194.753 L 186.600 193.415 188.093 194.994 M246.900 197.031 C 247.905 198.225,247.873 198.296,244.900 201.390 L 242.200 204.200 245.100 201.411 C 248.290 198.343,248.411 198.072,247.100 196.962 C 246.201 196.201,246.201 196.201,246.900 197.031 M300.975 197.500 L 302.150 198.800 350.451 198.800 C 377.017 198.800,398.836 198.665,398.938 198.500 C 399.040 198.335,377.328 198.247,350.689 198.305 L 302.254 198.410 301.027 197.305 L 299.800 196.200 300.975 197.500 M212.930 197.838 C 212.764 198.271,213.376 199.138,214.837 200.538 L 216.990 202.600 215.040 200.531 C 213.765 199.177,213.174 198.243,213.333 197.831 C 213.466 197.484,213.485 197.200,213.375 197.200 C 213.265 197.200,213.065 197.487,212.930 197.838 M147.586 202.700 L 145.400 205.000 147.700 202.814 C 149.837 200.782,150.183 200.400,149.886 200.400 C 149.824 200.400,148.789 201.435,147.586 202.700 M189.359 200.900 C 189.201 201.175,189.225 201.260,189.413 201.090 C 189.600 200.919,190.754 201.729,191.977 202.890 L 194.200 205.000 192.014 202.700 C 189.544 200.102,189.742 200.236,189.359 200.900 M302.662 200.700 C 302.494 200.971,336.096 200.969,382.000 200.695 C 391.570 200.638,377.676 200.548,351.124 200.496 C 324.572 200.443,302.764 200.535,302.662 200.700 M151.983 202.500 C 152.964 203.545,153.819 204.400,153.883 204.400 C 154.184 204.400,153.866 204.041,152.100 202.383 L 150.200 200.600 151.983 202.500 M254.300 204.399 C 254.995 205.179,255.033 234.591,254.338 234.162 C 254.050 233.984,253.985 234.052,254.166 234.345 C 255.028 235.740,255.200 233.292,255.200 219.625 C 255.200 206.068,255.144 204.856,254.500 204.368 C 253.904 203.918,253.875 203.922,254.300 204.399 M194.000 219.680 C 193.890 227.755,193.937 234.223,194.105 234.055 C 194.273 233.887,194.363 227.281,194.305 219.375 L 194.199 205.000 194.000 219.680 M183.600 225.000 C 184.346 225.770,185.047 226.400,185.157 226.400 C 185.267 226.400,184.746 225.770,184.000 225.000 C 183.254 224.230,182.553 223.600,182.443 223.600 C 182.333 223.600,182.854 224.230,183.600 225.000 M245.183 225.700 C 246.164 226.745,247.019 227.600,247.083 227.600 C 247.384 227.600,247.066 227.241,245.300 225.583 L 243.400 223.800 245.183 225.700 M186.200 231.200 C 189.274 234.280,191.879 236.800,191.989 236.800 C 192.099 236.800,189.674 234.280,186.600 231.200 C 183.526 228.120,180.921 225.600,180.811 225.600 C 180.701 225.600,183.126 228.120,186.200 231.200 M246.995 231.100 L 252.589 236.800 230.795 236.896 L 209.000 236.993 230.576 237.100 C 242.444 237.159,252.295 237.065,252.469 236.891 C 252.643 236.717,250.224 234.060,247.093 230.987 L 241.400 225.400 246.995 231.100 M158.700 237.100 C 164.695 237.162,174.505 237.162,180.500 237.100 C 186.495 237.038,181.590 236.987,169.600 236.987 C 157.610 236.987,152.705 237.038,158.700 237.100 M199.001 329.001 C 198.837 344.091,198.793 356.526,198.902 356.635 C 199.011 356.744,199.235 344.488,199.399 329.399 C 199.563 314.309,199.607 301.874,199.498 301.765 C 199.389 301.656,199.165 313.912,199.001 329.001 M201.353 306.600 C 201.353 309.240,201.418 310.268,201.497 308.884 C 201.575 307.501,201.574 305.341,201.495 304.084 C 201.416 302.828,201.352 303.960,201.353 306.600 M200.977 383.600 C 200.977 390.090,201.032 392.745,201.099 389.500 C 201.166 386.255,201.166 380.945,201.099 377.700 C 201.032 374.455,200.977 377.110,200.977 383.600 " stroke="none" fill="#134b4c" fill-rule="evenodd"></path></g></svg>