<svg id="svg" version="1.1" xmlns="http://www.w3.org/2000/svg" xmlns:xlink="http://www.w3.org/1999/xlink" width="400" height="400" viewBox="0, 0, 400,400"><g id="svgg"><path id="path0" d="M100.233 100.229 C 45.545 154.914,0.800 199.851,0.800 200.088 C 0.800 200.893,199.517 399.275,200.182 399.134 C 201.075 398.945,399.200 200.753,399.200 200.049 C 399.200 199.391,200.752 0.800,200.094 0.800 C 199.859 0.800,154.921 45.543,100.233 100.229 M295.300 104.700 C 345.405 154.804,386.400 195.934,386.400 196.100 C 386.400 196.265,368.210 196.400,345.977 196.400 L 305.554 196.400 254.577 145.443 L 203.600 94.487 203.600 54.043 C 203.600 31.800,203.735 13.600,203.900 13.600 C 204.064 13.600,245.194 54.595,295.300 104.700 M195.994 55.800 L 196.000 96.200 181.700 110.494 C 173.835 118.356,151.380 140.810,131.800 160.391 L 96.200 195.993 55.524 195.997 C 30.407 195.999,14.758 195.855,14.614 195.622 C 14.485 195.414,55.088 154.536,104.842 104.782 C 170.809 38.815,195.396 14.467,195.646 14.860 C 195.834 15.157,195.991 33.580,195.994 55.800 M202.309 98.300 C 204.171 99.708,302.000 197.508,302.000 197.962 C 302.000 198.149,302.270 198.526,302.600 198.800 C 303.431 199.489,303.350 200.540,302.400 201.400 C 301.960 201.798,301.600 202.282,301.600 202.475 C 301.600 202.886,203.335 301.156,202.178 301.903 C 200.682 302.869,200.433 302.863,199.324 301.835 C 198.710 301.266,198.100 300.800,197.968 300.800 C 197.622 300.800,99.200 202.332,99.200 201.986 C 99.200 201.828,98.930 201.474,98.600 201.200 C 97.340 200.154,98.072 199.099,104.777 192.286 C 119.096 177.737,197.460 99.593,198.600 98.727 C 199.260 98.225,199.860 97.676,199.933 97.507 C 200.171 96.960,200.824 97.178,202.309 98.300 M148.800 160.295 C 148.800 160.457,151.182 162.977,154.094 165.895 L 159.389 171.200 169.800 171.200 L 180.211 171.200 185.506 165.895 C 188.418 162.977,190.800 160.457,190.800 160.295 C 190.800 160.133,181.350 160.000,169.800 160.000 C 158.250 160.000,148.800 160.133,148.800 160.295 M215.000 165.600 L 220.589 171.200 231.000 171.200 L 241.411 171.200 246.720 165.881 C 249.639 162.955,251.902 160.435,251.747 160.281 C 251.593 160.126,242.004 160.000,230.439 160.000 L 209.411 160.000 215.000 165.600 M146.000 177.115 L 146.000 191.030 148.003 193.003 L 150.006 194.976 153.403 191.597 L 156.800 188.218 156.800 180.920 L 156.800 173.622 151.535 168.411 C 148.639 165.545,146.209 163.200,146.135 163.200 C 146.061 163.200,146.000 169.462,146.000 177.115 M192.800 163.937 C 192.470 164.233,190.085 166.499,187.500 168.972 L 182.800 173.470 182.800 180.844 L 182.800 188.218 186.108 191.509 C 189.971 195.352,189.751 195.292,191.922 193.080 L 193.610 191.359 193.505 177.379 C 193.412 164.985,193.332 163.461,192.800 163.937 M207.200 177.225 L 207.200 191.430 209.104 193.306 L 211.008 195.181 214.504 191.724 L 218.000 188.268 218.000 180.954 L 218.000 173.640 215.649 171.320 C 214.356 170.044,211.926 167.655,210.249 166.010 L 207.200 163.020 207.200 177.225 M249.300 168.257 L 244.000 173.432 244.000 180.847 L 244.000 188.261 247.204 191.531 C 250.973 195.377,250.517 195.272,252.905 192.836 L 254.810 190.893 254.705 176.988 L 254.600 163.082 249.300 168.257 M209.088 202.310 L 207.200 204.227 207.200 218.808 L 207.200 233.389 212.600 228.000 L 218.000 222.611 218.000 214.997 L 218.000 207.383 214.488 203.888 L 210.977 200.393 209.088 202.310 M147.885 202.714 L 146.000 204.627 146.000 219.008 L 146.000 233.389 151.400 228.000 L 156.800 222.611 156.800 214.997 L 156.800 207.382 153.492 204.091 C 149.585 200.204,150.206 200.357,147.885 202.714 M186.091 204.108 L 182.800 207.417 182.800 215.075 L 182.800 222.734 188.100 227.760 L 193.400 232.787 193.505 218.567 L 193.610 204.347 191.837 202.574 C 189.589 200.326,189.950 200.229,186.091 204.108 M247.247 204.099 L 244.000 207.399 244.000 215.042 L 244.000 222.685 249.300 227.949 L 254.600 233.213 254.705 218.952 L 254.810 204.690 252.782 202.745 C 250.320 200.385,251.086 200.197,247.247 204.099 M147.991 255.828 C 194.189 302.046,200.291 308.014,201.139 307.801 C 202.004 307.584,202.037 307.621,201.477 308.180 C 200.571 309.086,200.428 309.014,197.800 306.350 L 195.400 303.916 195.298 344.558 C 195.242 366.911,195.062 385.200,194.898 385.200 C 194.333 385.200,13.567 204.166,13.850 203.883 C 14.006 203.727,32.508 203.603,54.967 203.607 L 95.800 203.615 147.991 255.828 M385.556 204.622 C 385.865 204.931,203.506 387.189,203.124 386.953 C 202.946 386.843,202.800 368.663,202.800 346.552 L 202.800 306.352 253.957 255.276 L 305.113 204.200 345.229 204.306 C 367.293 204.364,385.440 204.506,385.556 204.622 M154.000 230.600 L 148.611 236.000 169.800 236.000 L 190.989 236.000 185.600 230.600 L 180.211 225.200 169.800 225.200 L 159.389 225.200 154.000 230.600 M216.364 229.356 C 214.074 231.642,211.671 234.072,211.025 234.756 L 209.850 236.000 231.020 236.000 L 252.189 236.000 246.800 230.600 L 241.411 225.200 230.970 225.200 L 220.528 225.200 216.364 229.356 " stroke="none" fill="#0cb39b" fill-rule="evenodd"></path><path id="path1" d="M198.700 0.676 C 198.315 0.776,198.000 1.126,198.000 1.453 C 198.000 1.800,197.808 1.929,197.538 1.762 C 197.252 1.585,197.185 1.652,197.362 1.938 C 197.531 2.212,197.393 2.400,197.024 2.400 C 196.681 2.400,196.400 2.580,196.400 2.800 C 196.400 3.540,197.253 3.209,198.462 2.000 C 199.122 1.340,199.855 0.800,200.092 0.800 C 200.752 0.800,399.200 199.390,399.200 200.049 C 399.200 200.753,201.075 398.945,200.182 399.134 C 199.509 399.277,0.800 200.888,0.800 200.073 C 0.800 199.828,1.340 199.075,2.000 198.400 C 2.660 197.725,3.200 196.999,3.200 196.786 C 3.200 195.384,0.593 198.375,0.452 199.938 C 0.333 201.259,1.373 202.800,2.383 202.800 C 2.612 202.800,2.800 202.995,2.800 203.232 C 2.800 203.791,9.416 210.400,9.975 210.400 C 10.209 210.400,10.400 210.611,10.400 210.870 C 10.400 211.442,17.014 218.000,17.591 218.000 C 17.816 218.000,18.000 218.205,18.000 218.455 C 18.000 219.026,27.006 228.000,27.579 228.000 C 27.810 228.000,28.000 228.204,28.000 228.453 C 28.000 229.022,31.805 232.800,32.377 232.800 C 32.610 232.800,32.800 232.995,32.800 233.232 C 32.800 233.791,39.416 240.400,39.975 240.400 C 40.209 240.400,40.400 240.630,40.400 240.911 C 40.400 241.485,41.796 242.800,42.405 242.800 C 42.622 242.800,42.800 242.995,42.800 243.232 C 42.800 243.791,49.416 250.400,49.975 250.400 C 50.209 250.400,50.405 250.625,50.410 250.900 C 50.423 251.523,54.133 255.200,54.748 255.200 C 54.997 255.200,55.200 255.379,55.200 255.597 C 55.200 256.218,56.885 258.000,57.472 258.000 C 57.762 258.000,58.000 258.202,58.000 258.448 C 58.000 259.026,64.983 266.000,65.562 266.000 C 65.803 266.000,66.000 266.274,66.000 266.609 C 66.000 266.943,66.450 267.422,67.000 267.673 C 67.550 267.923,68.000 268.304,68.000 268.518 C 68.000 269.041,71.843 272.800,72.377 272.800 C 72.610 272.800,72.800 272.991,72.800 273.225 C 72.800 273.761,80.981 282.000,81.513 282.000 C 81.730 282.000,82.004 282.373,82.124 282.830 C 82.243 283.286,82.714 283.757,83.170 283.876 C 83.627 283.996,84.000 284.266,84.000 284.476 C 84.000 285.029,88.580 289.600,89.134 289.600 C 89.390 289.600,89.600 289.791,89.600 290.025 C 89.600 290.581,96.447 297.430,96.873 297.300 C 97.053 297.245,97.200 297.378,97.200 297.595 C 97.200 298.204,98.515 299.600,99.089 299.600 C 99.370 299.600,99.600 299.791,99.600 300.025 C 99.600 300.581,106.447 307.430,106.873 307.300 C 107.053 307.245,107.200 307.390,107.200 307.623 C 107.200 308.168,110.965 312.000,111.500 312.000 C 111.724 312.000,112.004 312.373,112.124 312.830 C 112.243 313.286,112.714 313.757,113.170 313.876 C 113.627 313.996,114.000 314.271,114.000 314.488 C 114.000 315.031,119.411 320.400,119.959 320.400 C 120.201 320.400,120.400 320.630,120.400 320.911 C 120.400 321.485,121.796 322.800,122.405 322.800 C 122.622 322.800,122.800 322.995,122.800 323.232 C 122.800 323.791,129.416 330.400,129.975 330.400 C 130.209 330.400,130.400 330.610,130.400 330.866 C 130.400 331.420,134.971 336.000,135.524 336.000 C 135.734 336.000,136.004 336.373,136.124 336.830 C 136.243 337.286,136.714 337.757,137.170 337.876 C 137.627 337.996,138.000 338.270,138.000 338.487 C 138.000 339.040,144.187 345.200,144.743 345.200 C 144.994 345.200,145.200 345.404,145.200 345.654 C 145.200 346.188,147.070 348.000,147.621 348.000 C 147.829 348.000,148.000 348.204,148.000 348.453 C 148.000 349.022,151.805 352.800,152.377 352.800 C 152.610 352.800,152.800 352.991,152.800 353.225 C 152.800 353.790,160.996 362.000,161.560 362.000 C 161.802 362.000,162.000 362.171,162.000 362.379 C 162.000 362.930,163.812 364.800,164.346 364.800 C 164.596 364.800,164.805 365.025,164.810 365.300 C 164.823 365.923,168.533 369.600,169.148 369.600 C 169.397 369.600,169.600 369.791,169.600 370.025 C 169.600 370.554,174.998 376.000,175.523 376.000 C 175.734 376.000,176.006 376.378,176.126 376.840 C 176.247 377.303,176.538 377.562,176.773 377.417 C 177.008 377.272,177.200 377.341,177.200 377.572 C 177.200 378.199,178.504 379.600,179.089 379.600 C 179.370 379.600,179.600 379.791,179.600 380.025 C 179.600 380.581,186.447 387.430,186.873 387.300 C 187.053 387.245,187.200 387.390,187.200 387.623 C 187.200 388.195,190.978 392.000,191.547 392.000 C 191.796 392.000,192.000 392.184,192.000 392.409 C 192.000 393.213,198.599 399.489,199.729 399.759 C 201.094 400.086,400.000 201.725,400.000 200.037 C 400.000 199.151,394.068 192.800,393.241 192.800 C 392.999 192.800,392.800 192.610,392.800 192.377 C 392.800 191.805,389.022 188.000,388.453 188.000 C 388.204 188.000,388.000 187.762,388.000 187.472 C 388.000 186.885,386.218 185.200,385.597 185.200 C 385.379 185.200,385.200 184.994,385.200 184.743 C 385.200 184.159,379.026 178.000,378.440 178.000 C 378.198 178.000,378.000 177.762,378.000 177.472 C 378.000 176.885,376.218 175.200,375.597 175.200 C 375.379 175.200,375.195 174.975,375.190 174.700 C 375.177 174.077,371.467 170.400,370.852 170.400 C 370.603 170.400,370.400 170.209,370.400 169.975 C 370.400 169.416,363.791 162.800,363.232 162.800 C 362.995 162.800,362.800 162.606,362.800 162.369 C 362.800 162.132,362.274 161.412,361.631 160.769 C 360.988 160.126,360.268 159.600,360.031 159.600 C 359.794 159.600,359.600 159.370,359.600 159.089 C 359.600 158.504,358.199 157.200,357.572 157.200 C 357.341 157.200,357.272 157.008,357.417 156.773 C 357.562 156.538,357.303 156.247,356.840 156.126 C 356.378 156.006,356.000 155.734,356.000 155.523 C 356.000 154.998,350.554 149.600,350.025 149.600 C 349.791 149.600,349.595 149.375,349.590 149.100 C 349.577 148.477,345.867 144.800,345.252 144.800 C 345.003 144.800,344.800 144.621,344.800 144.403 C 344.800 143.782,343.115 142.000,342.528 142.000 C 342.238 142.000,342.000 141.798,342.000 141.552 C 342.000 140.974,335.017 134.000,334.438 134.000 C 334.197 134.000,334.000 133.726,334.000 133.391 C 334.000 133.057,333.550 132.578,333.000 132.327 C 332.450 132.077,332.000 131.696,332.000 131.482 C 332.000 130.959,328.157 127.200,327.623 127.200 C 327.390 127.200,327.245 127.056,327.300 126.880 C 327.427 126.473,319.017 118.000,318.487 118.000 C 318.270 118.000,317.996 117.627,317.876 117.170 C 317.757 116.714,317.286 116.243,316.830 116.124 C 316.373 116.004,316.000 115.734,316.000 115.524 C 316.000 114.971,311.420 110.400,310.866 110.400 C 310.610 110.400,310.400 110.209,310.400 109.975 C 310.400 109.416,303.791 102.800,303.232 102.800 C 302.995 102.800,302.800 102.622,302.800 102.405 C 302.800 101.796,301.485 100.400,300.911 100.400 C 300.630 100.400,300.400 100.209,300.400 99.975 C 300.400 99.416,293.791 92.800,293.232 92.800 C 292.995 92.800,292.800 92.610,292.800 92.377 C 292.800 91.832,289.035 88.000,288.500 88.000 C 288.276 88.000,287.996 87.627,287.876 87.170 C 287.757 86.714,287.286 86.243,286.830 86.124 C 286.373 86.004,286.000 85.729,286.000 85.512 C 286.000 84.969,280.589 79.600,280.041 79.600 C 279.799 79.600,279.600 79.390,279.600 79.134 C 279.600 78.580,275.029 74.000,274.476 74.000 C 274.266 74.000,273.996 73.627,273.876 73.170 C 273.757 72.714,273.286 72.243,272.830 72.124 C 272.373 72.004,272.000 71.724,272.000 71.500 C 272.000 70.965,268.168 67.200,267.623 67.200 C 267.390 67.200,267.245 67.053,267.300 66.873 C 267.430 66.447,260.581 59.600,260.025 59.600 C 259.791 59.600,259.600 59.370,259.600 59.089 C 259.600 58.515,258.204 57.200,257.595 57.200 C 257.378 57.200,257.245 57.053,257.300 56.873 C 257.430 56.447,250.581 49.600,250.025 49.600 C 249.791 49.600,249.600 49.390,249.600 49.134 C 249.600 48.580,245.029 44.000,244.476 44.000 C 244.266 44.000,243.996 43.627,243.876 43.170 C 243.757 42.714,243.286 42.243,242.830 42.124 C 242.373 42.004,242.000 41.724,242.000 41.500 C 242.000 40.965,238.168 37.200,237.623 37.200 C 237.390 37.200,237.245 37.053,237.300 36.873 C 237.430 36.447,230.581 29.600,230.025 29.600 C 229.791 29.600,229.595 29.375,229.590 29.100 C 229.577 28.477,225.867 24.800,225.252 24.800 C 225.003 24.800,224.800 24.621,224.800 24.403 C 224.800 23.808,223.126 22.000,222.575 22.000 C 222.310 22.000,221.999 21.640,221.884 21.200 C 221.769 20.760,221.388 20.400,221.037 20.400 C 220.687 20.400,220.400 20.207,220.400 19.970 C 220.400 19.384,215.848 14.800,215.266 14.800 C 215.010 14.800,214.800 14.596,214.800 14.346 C 214.800 13.812,212.930 12.000,212.379 12.000 C 212.171 12.000,212.000 11.796,212.000 11.547 C 212.000 10.978,208.195 7.200,207.623 7.200 C 207.390 7.200,207.245 7.055,207.300 6.877 C 207.355 6.700,206.022 5.170,204.337 3.477 C 201.299 0.425,200.734 0.144,198.700 0.676 M195.345 4.200 C 195.218 4.530,194.876 4.800,194.584 4.800 C 194.101 4.800,193.341 6.280,193.663 6.593 C 193.739 6.666,194.493 6.023,195.341 5.163 C 196.409 4.079,196.681 3.600,196.228 3.600 C 195.869 3.600,195.471 3.870,195.345 4.200 M192.400 7.172 C 192.400 7.666,192.075 7.994,191.500 8.082 C 191.005 8.157,190.641 8.429,190.692 8.685 C 190.742 8.941,190.427 9.264,189.992 9.403 C 189.556 9.541,189.200 9.922,189.200 10.251 C 189.200 10.579,189.008 10.728,188.773 10.583 C 188.538 10.438,188.248 10.696,188.128 11.155 C 188.007 11.615,187.745 11.890,187.545 11.766 C 187.344 11.642,187.230 11.779,187.290 12.070 C 187.351 12.362,187.175 12.555,186.900 12.500 C 186.625 12.445,186.400 12.580,186.400 12.800 C 186.400 13.741,187.498 13.018,190.258 10.258 C 193.018 7.498,193.741 6.400,192.800 6.400 C 192.580 6.400,192.400 6.747,192.400 7.172 M185.182 14.434 C 184.538 15.636,184.867 15.696,185.948 14.573 C 186.672 13.820,186.742 13.600,186.256 13.600 C 185.911 13.600,185.427 13.975,185.182 14.434 M181.600 17.514 C 181.050 18.099,180.641 18.707,180.692 18.865 C 180.742 19.022,180.427 19.264,179.992 19.403 C 179.556 19.541,179.200 19.922,179.200 20.251 C 179.200 20.579,179.008 20.728,178.773 20.583 C 178.538 20.438,178.248 20.696,178.128 21.155 C 178.007 21.615,177.745 21.890,177.545 21.766 C 177.344 21.642,177.230 21.779,177.290 22.070 C 177.351 22.362,177.175 22.555,176.900 22.500 C 176.625 22.445,176.400 22.580,176.400 22.800 C 176.400 23.779,177.576 22.985,180.284 20.178 C 182.959 17.406,183.688 16.360,182.900 16.424 C 182.735 16.438,182.150 16.928,181.600 17.514 M175.182 24.434 C 174.538 25.636,174.867 25.696,175.948 24.573 C 176.672 23.820,176.742 23.600,176.256 23.600 C 175.911 23.600,175.427 23.975,175.182 24.434 M171.600 27.511 C 171.050 28.096,170.660 28.650,170.734 28.742 C 170.808 28.835,170.633 29.056,170.346 29.234 C 170.058 29.411,169.951 29.684,170.106 29.840 C 170.413 30.146,173.200 27.382,173.200 26.772 C 173.200 26.144,172.646 26.400,171.600 27.511 M168.094 31.285 C 167.992 31.673,167.722 31.875,167.493 31.734 C 167.251 31.584,167.196 31.670,167.362 31.938 C 167.531 32.212,167.393 32.400,167.024 32.400 C 166.681 32.400,166.400 32.580,166.400 32.800 C 166.400 33.561,167.245 33.195,168.659 31.822 C 169.945 30.572,169.994 30.450,169.178 30.512 C 168.683 30.549,168.195 30.897,168.094 31.285 M165.345 34.200 C 165.218 34.530,164.876 34.800,164.584 34.800 C 164.101 34.800,163.341 36.280,163.663 36.593 C 163.739 36.666,164.493 36.023,165.341 35.163 C 166.409 34.079,166.681 33.600,166.228 33.600 C 165.869 33.600,165.471 33.870,165.345 34.200 M162.400 37.200 C 162.400 37.674,162.133 38.000,161.746 38.000 C 161.047 38.000,159.200 39.773,159.200 40.444 C 159.200 40.666,159.008 40.728,158.773 40.583 C 158.538 40.438,158.248 40.696,158.128 41.155 C 158.007 41.615,157.745 41.890,157.545 41.766 C 157.344 41.642,157.230 41.779,157.290 42.070 C 157.351 42.362,157.175 42.555,156.900 42.500 C 156.625 42.445,156.400 42.580,156.400 42.800 C 156.400 43.741,157.498 43.018,160.258 40.258 C 163.018 37.498,163.741 36.400,162.800 36.400 C 162.580 36.400,162.400 36.760,162.400 37.200 M155.182 44.434 C 154.538 45.636,154.867 45.696,155.948 44.573 C 156.672 43.820,156.742 43.600,156.256 43.600 C 155.911 43.600,155.427 43.975,155.182 44.434 M151.600 47.511 C 151.050 48.096,150.660 48.650,150.734 48.742 C 150.808 48.835,150.633 49.056,150.346 49.234 C 150.058 49.411,149.951 49.684,150.106 49.840 C 150.413 50.146,153.200 47.382,153.200 46.772 C 153.200 46.144,152.646 46.400,151.600 47.511 M148.700 50.676 C 148.315 50.776,148.000 51.126,148.000 51.453 C 148.000 51.800,147.808 51.929,147.538 51.762 C 147.252 51.585,147.185 51.652,147.362 51.938 C 147.531 52.212,147.393 52.400,147.024 52.400 C 146.681 52.400,146.400 52.580,146.400 52.800 C 146.400 53.564,147.248 53.192,148.681 51.800 C 150.098 50.424,150.100 50.310,148.700 50.676 M145.345 54.200 C 145.218 54.530,144.876 54.800,144.584 54.800 C 144.101 54.800,143.341 56.280,143.663 56.593 C 143.739 56.666,144.493 56.023,145.341 55.163 C 146.409 54.079,146.681 53.600,146.228 53.600 C 145.869 53.600,145.471 53.870,145.345 54.200 M142.400 57.200 C 142.400 57.729,142.133 58.000,141.614 58.000 C 141.182 58.000,140.627 58.375,140.382 58.834 C 139.643 60.214,140.277 60.181,141.782 58.761 C 143.158 57.464,143.616 56.400,142.800 56.400 C 142.580 56.400,142.400 56.760,142.400 57.200 M138.094 61.285 C 137.992 61.673,137.722 61.875,137.493 61.734 C 137.251 61.584,137.196 61.670,137.362 61.938 C 137.531 62.212,137.393 62.400,137.024 62.400 C 136.681 62.400,136.400 62.580,136.400 62.800 C 136.400 63.561,137.245 63.195,138.659 61.822 C 139.945 60.572,139.994 60.450,139.178 60.512 C 138.683 60.549,138.195 60.897,138.094 61.285 M135.345 64.200 C 135.218 64.530,134.876 64.800,134.584 64.800 C 134.101 64.800,133.341 66.280,133.663 66.593 C 133.739 66.666,134.493 66.023,135.341 65.163 C 136.409 64.079,136.681 63.600,136.228 63.600 C 135.869 63.600,135.471 63.870,135.345 64.200 M132.400 67.200 C 132.400 67.674,132.133 68.000,131.746 68.000 C 131.047 68.000,129.200 69.773,129.200 70.444 C 129.200 70.666,129.008 70.728,128.773 70.583 C 128.538 70.438,128.248 70.696,128.128 71.155 C 128.007 71.615,127.745 71.890,127.545 71.766 C 127.344 71.642,127.230 71.779,127.290 72.070 C 127.351 72.362,127.175 72.555,126.900 72.500 C 126.625 72.445,126.400 72.580,126.400 72.800 C 126.400 73.741,127.498 73.018,130.258 70.258 C 133.018 67.498,133.741 66.400,132.800 66.400 C 132.580 66.400,132.400 66.760,132.400 67.200 M125.182 74.434 C 124.538 75.636,124.867 75.696,125.948 74.573 C 126.672 73.820,126.742 73.600,126.256 73.600 C 125.911 73.600,125.427 73.975,125.182 74.434 M121.600 77.511 C 121.050 78.096,120.660 78.650,120.734 78.742 C 120.808 78.835,120.633 79.056,120.346 79.234 C 120.058 79.411,119.951 79.684,120.106 79.840 C 120.413 80.146,123.200 77.382,123.200 76.772 C 123.200 76.144,122.646 76.400,121.600 77.511 M118.094 81.285 C 117.992 81.673,117.722 81.875,117.493 81.734 C 117.251 81.584,117.196 81.670,117.362 81.938 C 117.531 82.212,117.393 82.400,117.024 82.400 C 116.681 82.400,116.400 82.580,116.400 82.800 C 116.400 83.561,117.245 83.195,118.659 81.822 C 119.945 80.572,119.994 80.450,119.178 80.512 C 118.683 80.549,118.195 80.897,118.094 81.285 M115.345 84.200 C 115.218 84.530,114.876 84.800,114.584 84.800 C 114.101 84.800,113.341 86.280,113.663 86.593 C 113.739 86.666,114.493 86.023,115.341 85.163 C 116.409 84.079,116.681 83.600,116.228 83.600 C 115.869 83.600,115.471 83.870,115.345 84.200 M112.400 87.172 C 112.400 87.666,112.075 87.994,111.500 88.082 C 111.005 88.157,110.641 88.429,110.692 88.685 C 110.742 88.941,110.427 89.264,109.992 89.403 C 109.556 89.541,109.200 89.922,109.200 90.251 C 109.200 90.579,109.008 90.728,108.773 90.583 C 108.538 90.438,108.248 90.696,108.128 91.155 C 108.007 91.615,107.745 91.890,107.545 91.766 C 107.344 91.642,107.230 91.779,107.290 92.070 C 107.351 92.362,107.175 92.555,106.900 92.500 C 106.625 92.445,106.400 92.580,106.400 92.800 C 106.400 93.741,107.498 93.018,110.258 90.258 C 113.018 87.498,113.741 86.400,112.800 86.400 C 112.580 86.400,112.400 86.747,112.400 87.172 M105.182 94.434 C 104.538 95.636,104.867 95.696,105.948 94.573 C 106.672 93.820,106.742 93.600,106.256 93.600 C 105.911 93.600,105.427 93.975,105.182 94.434 M206.000 97.000 C 206.746 97.770,207.447 98.400,207.557 98.400 C 207.667 98.400,207.146 97.770,206.400 97.000 C 205.654 96.230,204.953 95.600,204.843 95.600 C 204.733 95.600,205.254 96.230,206.000 97.000 M101.600 97.514 C 101.050 98.099,100.641 98.707,100.692 98.865 C 100.742 99.022,100.427 99.264,99.992 99.403 C 99.556 99.541,99.200 99.912,99.200 100.227 C 99.200 100.542,98.930 100.800,98.600 100.800 C 98.270 100.800,98.000 101.081,98.000 101.424 C 98.000 101.767,97.816 101.933,97.590 101.794 C 97.365 101.655,97.230 101.779,97.290 102.070 C 97.351 102.362,97.175 102.555,96.900 102.500 C 96.625 102.445,96.400 102.580,96.400 102.800 C 96.400 103.779,97.576 102.985,100.284 100.178 C 102.959 97.406,103.688 96.360,102.900 96.424 C 102.735 96.438,102.150 96.928,101.600 97.514 M95.182 104.434 C 94.538 105.636,94.867 105.696,95.948 104.573 C 96.672 103.820,96.742 103.600,96.256 103.600 C 95.911 103.600,95.427 103.975,95.182 104.434 M91.600 107.511 C 91.050 108.096,90.660 108.650,90.734 108.742 C 90.808 108.835,90.633 109.056,90.346 109.234 C 90.058 109.411,89.951 109.684,90.106 109.840 C 90.413 110.146,93.200 107.382,93.200 106.772 C 93.200 106.144,92.646 106.400,91.600 107.511 M88.094 111.285 C 87.992 111.673,87.722 111.875,87.493 111.734 C 87.251 111.584,87.196 111.670,87.362 111.938 C 87.531 112.212,87.393 112.400,87.024 112.400 C 86.681 112.400,86.400 112.580,86.400 112.800 C 86.400 113.561,87.245 113.195,88.659 111.822 C 89.945 110.572,89.994 110.450,89.178 110.512 C 88.683 110.549,88.195 110.897,88.094 111.285 M85.345 114.200 C 85.218 114.530,84.876 114.800,84.584 114.800 C 84.101 114.800,83.341 116.280,83.663 116.593 C 83.739 116.666,84.493 116.023,85.341 115.163 C 86.409 114.079,86.681 113.600,86.228 113.600 C 85.869 113.600,85.471 113.870,85.345 114.200 M82.400 117.172 C 82.400 117.666,82.075 117.994,81.500 118.082 C 81.005 118.157,80.615 118.395,80.633 118.609 C 80.674 119.087,79.117 120.600,78.585 120.600 C 78.373 120.600,78.142 121.005,78.072 121.500 C 77.990 122.078,77.668 122.400,77.172 122.400 C 76.747 122.400,76.400 122.580,76.400 122.800 C 76.400 123.741,77.498 123.018,80.258 120.258 C 83.018 117.498,83.741 116.400,82.800 116.400 C 82.580 116.400,82.400 116.747,82.400 117.172 M228.400 119.325 C 228.400 119.394,228.985 119.979,229.700 120.625 L 231.000 121.800 229.825 120.500 C 228.730 119.288,228.400 119.016,228.400 119.325 M75.300 123.865 C 75.025 123.976,74.800 124.257,74.800 124.489 C 74.800 124.722,74.505 125.127,74.145 125.391 C 73.785 125.654,73.560 126.056,73.645 126.284 C 73.730 126.512,74.480 126.001,75.311 125.149 C 76.678 123.748,76.674 123.310,75.300 123.865 M72.400 127.024 C 72.400 127.393,72.212 127.531,71.938 127.362 C 71.670 127.196,71.584 127.251,71.734 127.493 C 71.875 127.722,71.673 127.992,71.285 128.094 C 70.897 128.195,70.549 128.683,70.512 129.178 C 70.450 129.994,70.572 129.945,71.822 128.659 C 73.195 127.245,73.561 126.400,72.800 126.400 C 72.580 126.400,72.400 126.681,72.400 127.024 M69.200 130.400 C 69.200 130.620,69.058 130.755,68.885 130.700 C 68.564 130.598,66.400 132.585,66.400 132.982 C 66.400 133.535,67.265 133.085,68.572 131.853 C 70.039 130.469,70.299 130.000,69.600 130.000 C 69.380 130.000,69.200 130.180,69.200 130.400 M160.575 131.300 L 159.400 132.600 160.700 131.425 C 161.415 130.779,162.000 130.194,162.000 130.125 C 162.000 129.816,161.670 130.088,160.575 131.300 M244.800 135.800 C 245.546 136.570,246.247 137.200,246.357 137.200 C 246.467 137.200,245.946 136.570,245.200 135.800 C 244.454 135.030,243.753 134.400,243.643 134.400 C 243.533 134.400,244.054 135.030,244.800 135.800 M64.221 135.335 C 63.819 135.629,63.560 136.071,63.645 136.317 C 63.734 136.575,64.200 136.347,64.742 135.782 C 65.751 134.730,65.428 134.453,64.221 135.335 M62.500 136.900 C 62.555 137.175,62.362 137.351,62.070 137.290 C 61.779 137.230,61.642 137.344,61.766 137.545 C 61.890 137.745,61.615 138.007,61.155 138.128 C 60.696 138.248,60.438 138.538,60.583 138.773 C 60.728 139.008,60.579 139.200,60.251 139.200 C 59.922 139.200,59.541 139.556,59.403 139.992 C 59.264 140.427,59.020 140.742,58.860 140.692 C 58.556 140.596,56.400 142.603,56.400 142.982 C 56.400 143.658,57.484 142.885,60.178 140.284 C 62.985 137.576,63.779 136.400,62.800 136.400 C 62.580 136.400,62.445 136.625,62.500 136.900 M150.975 140.900 L 149.800 142.200 151.100 141.025 C 152.312 139.930,152.584 139.600,152.275 139.600 C 152.206 139.600,151.621 140.185,150.975 140.900 M54.221 145.335 C 53.819 145.629,53.560 146.071,53.645 146.317 C 53.734 146.575,54.200 146.347,54.742 145.782 C 55.751 144.730,55.428 144.453,54.221 145.335 M52.500 146.900 C 52.555 147.175,52.362 147.351,52.070 147.290 C 51.779 147.230,51.642 147.344,51.766 147.545 C 51.890 147.745,51.615 148.007,51.155 148.128 C 50.696 148.248,50.438 148.538,50.583 148.773 C 50.728 149.008,50.579 149.200,50.251 149.200 C 49.922 149.200,49.540 149.560,49.400 150.000 C 49.260 150.440,48.888 150.800,48.573 150.800 C 48.258 150.800,48.000 151.160,48.000 151.600 C 48.000 152.133,47.733 152.400,47.200 152.400 C 46.760 152.400,46.400 152.580,46.400 152.800 C 46.400 153.741,47.498 153.018,50.258 150.258 C 53.018 147.498,53.741 146.400,52.800 146.400 C 52.580 146.400,52.445 146.625,52.500 146.900 M45.300 153.865 C 45.025 153.976,44.800 154.257,44.800 154.489 C 44.800 154.722,44.505 155.127,44.145 155.391 C 43.785 155.654,43.560 156.056,43.645 156.284 C 43.730 156.512,44.480 156.001,45.311 155.149 C 46.678 153.748,46.674 153.310,45.300 153.865 M134.400 157.400 C 133.428 158.390,132.723 159.200,132.833 159.200 C 132.943 159.200,133.828 158.390,134.800 157.400 C 135.772 156.410,136.477 155.600,136.367 155.600 C 136.257 155.600,135.372 156.410,134.400 157.400 M42.400 157.024 C 42.400 157.393,42.212 157.531,41.938 157.362 C 41.670 157.196,41.584 157.251,41.734 157.493 C 41.875 157.722,41.673 157.992,41.285 158.094 C 40.897 158.195,40.549 158.683,40.512 159.178 C 40.450 159.994,40.572 159.945,41.822 158.659 C 43.195 157.245,43.561 156.400,42.800 156.400 C 42.580 156.400,42.400 156.681,42.400 157.024 M39.200 160.224 C 39.200 160.567,39.008 160.728,38.773 160.583 C 38.538 160.438,38.248 160.696,38.128 161.155 C 38.007 161.615,37.745 161.890,37.545 161.766 C 37.344 161.642,37.230 161.779,37.290 162.070 C 37.351 162.362,37.175 162.555,36.900 162.500 C 36.625 162.445,36.400 162.580,36.400 162.800 C 36.400 163.606,37.457 163.165,38.712 161.834 C 40.004 160.465,40.347 159.600,39.600 159.600 C 39.380 159.600,39.200 159.881,39.200 160.224 M271.600 162.525 C 271.600 162.594,272.185 163.179,272.900 163.825 L 274.200 165.000 273.025 163.700 C 271.930 162.488,271.600 162.216,271.600 162.525 M127.775 164.100 L 126.600 165.400 127.900 164.225 C 129.112 163.130,129.384 162.800,129.075 162.800 C 129.006 162.800,128.421 163.385,127.775 164.100 M35.182 164.434 C 34.538 165.636,34.867 165.696,35.948 164.573 C 36.672 163.820,36.742 163.600,36.256 163.600 C 35.911 163.600,35.427 163.975,35.182 164.434 M276.000 167.000 C 276.746 167.770,277.447 168.400,277.557 168.400 C 277.667 168.400,277.146 167.770,276.400 167.000 C 275.654 166.230,274.953 165.600,274.843 165.600 C 274.733 165.600,275.254 166.230,276.000 167.000 M31.600 167.511 C 31.050 168.096,30.660 168.650,30.734 168.742 C 30.808 168.835,30.633 169.056,30.346 169.234 C 30.058 169.411,29.951 169.684,30.106 169.840 C 30.413 170.146,33.200 167.382,33.200 166.772 C 33.200 166.144,32.646 166.400,31.600 167.511 M28.094 171.285 C 27.992 171.673,27.722 171.875,27.493 171.734 C 27.251 171.584,27.196 171.670,27.362 171.938 C 27.531 172.212,27.393 172.400,27.024 172.400 C 26.681 172.400,26.400 172.580,26.400 172.800 C 26.400 173.561,27.245 173.195,28.659 171.822 C 29.945 170.572,29.994 170.450,29.178 170.512 C 28.683 170.549,28.195 170.897,28.094 171.285 M282.800 173.455 C 282.800 173.668,283.475 174.463,284.300 175.222 L 285.800 176.600 284.400 175.004 C 283.630 174.127,282.955 173.332,282.900 173.238 C 282.845 173.144,282.800 173.241,282.800 173.455 M25.345 174.200 C 25.218 174.530,24.876 174.800,24.584 174.800 C 24.101 174.800,23.341 176.280,23.663 176.593 C 23.739 176.666,24.493 176.023,25.341 175.163 C 26.409 174.079,26.681 173.600,26.228 173.600 C 25.869 173.600,25.471 173.870,25.345 174.200 M22.400 177.024 C 22.400 177.393,22.212 177.531,21.938 177.362 C 21.670 177.196,21.584 177.251,21.734 177.493 C 21.875 177.722,21.615 178.007,21.155 178.128 C 20.696 178.248,20.429 178.523,20.562 178.739 C 20.696 178.955,20.579 179.212,20.302 179.311 C 20.026 179.410,19.934 179.634,20.097 179.809 C 20.261 179.985,21.026 179.478,21.797 178.684 C 23.192 177.248,23.564 176.400,22.800 176.400 C 22.580 176.400,22.400 176.681,22.400 177.024 M112.985 178.900 L 111.000 181.000 113.100 179.015 C 114.255 177.923,115.200 176.978,115.200 176.915 C 115.200 176.617,114.829 176.949,112.985 178.900 M18.094 181.285 C 17.992 181.673,17.722 181.875,17.493 181.734 C 17.251 181.584,17.196 181.670,17.362 181.938 C 17.531 182.212,17.393 182.400,17.024 182.400 C 16.681 182.400,16.400 182.580,16.400 182.800 C 16.400 183.561,17.245 183.195,18.659 181.822 C 19.945 180.572,19.994 180.450,19.178 180.512 C 18.683 180.549,18.195 180.897,18.094 181.285 M107.775 184.100 L 106.600 185.400 107.900 184.225 C 109.112 183.130,109.384 182.800,109.075 182.800 C 109.006 182.800,108.421 183.385,107.775 184.100 M15.345 184.200 C 15.218 184.530,14.876 184.800,14.584 184.800 C 14.101 184.800,13.341 186.280,13.663 186.593 C 13.739 186.666,14.493 186.023,15.341 185.163 C 16.409 184.079,16.681 183.600,16.228 183.600 C 15.869 183.600,15.471 183.870,15.345 184.200 M104.778 187.100 L 103.400 188.600 104.900 187.222 C 105.725 186.463,106.400 185.788,106.400 185.722 C 106.400 185.416,106.062 185.704,104.778 187.100 M12.400 187.172 C 12.400 187.666,12.075 187.994,11.500 188.082 C 11.005 188.157,10.641 188.429,10.692 188.685 C 10.742 188.941,10.427 189.264,9.992 189.403 C 9.556 189.541,9.200 189.922,9.200 190.251 C 9.200 190.579,9.008 190.728,8.773 190.583 C 8.538 190.438,8.248 190.696,8.128 191.155 C 8.007 191.615,7.745 191.890,7.545 191.766 C 7.344 191.642,7.230 191.779,7.290 192.070 C 7.351 192.362,7.175 192.555,6.900 192.500 C 6.625 192.445,6.400 192.580,6.400 192.800 C 6.400 193.741,7.498 193.018,10.258 190.258 C 13.018 187.498,13.741 186.400,12.800 186.400 C 12.580 186.400,12.400 186.747,12.400 187.172 M5.182 194.434 C 4.538 195.636,4.867 195.696,5.948 194.573 C 6.672 193.820,6.742 193.600,6.256 193.600 C 5.911 193.600,5.427 193.975,5.182 194.434 M96.678 195.013 C 96.060 195.556,95.714 196.000,95.908 196.000 C 96.102 196.000,96.683 195.550,97.200 195.000 C 98.395 193.728,98.131 193.734,96.678 195.013 M303.178 205.900 L 301.800 207.400 303.300 206.022 C 304.696 204.738,304.984 204.400,304.678 204.400 C 304.612 204.400,303.937 205.075,303.178 205.900 M124.800 233.000 C 125.546 233.770,126.247 234.400,126.357 234.400 C 126.467 234.400,125.946 233.770,125.200 233.000 C 124.454 232.230,123.753 231.600,123.643 231.600 C 123.533 231.600,124.054 232.230,124.800 233.000 M129.000 237.200 C 129.859 238.080,130.652 238.800,130.762 238.800 C 130.872 238.800,130.259 238.080,129.400 237.200 C 128.541 236.320,127.748 235.600,127.638 235.600 C 127.528 235.600,128.141 236.320,129.000 237.200 M132.400 240.600 C 133.146 241.370,133.847 242.000,133.957 242.000 C 134.067 242.000,133.546 241.370,132.800 240.600 C 132.054 239.830,131.353 239.200,131.243 239.200 C 131.133 239.200,131.654 239.830,132.400 240.600 M140.200 248.400 C 141.059 249.280,141.852 250.000,141.962 250.000 C 142.072 250.000,141.459 249.280,140.600 248.400 C 139.741 247.520,138.948 246.800,138.838 246.800 C 138.728 246.800,139.341 247.520,140.200 248.400 M148.000 256.200 C 148.746 256.970,149.447 257.600,149.557 257.600 C 149.667 257.600,149.146 256.970,148.400 256.200 C 147.654 255.430,146.953 254.800,146.843 254.800 C 146.733 254.800,147.254 255.430,148.000 256.200 M155.800 264.000 C 156.659 264.880,157.452 265.600,157.562 265.600 C 157.672 265.600,157.059 264.880,156.200 264.000 C 155.341 263.120,154.548 262.400,154.438 262.400 C 154.328 262.400,154.941 263.120,155.800 264.000 M163.600 271.800 C 164.346 272.570,165.047 273.200,165.157 273.200 C 165.267 273.200,164.746 272.570,164.000 271.800 C 163.254 271.030,162.553 270.400,162.443 270.400 C 162.333 270.400,162.854 271.030,163.600 271.800 M171.200 279.400 C 171.946 280.170,172.647 280.800,172.757 280.800 C 172.867 280.800,172.346 280.170,171.600 279.400 C 170.854 278.630,170.153 278.000,170.043 278.000 C 169.933 278.000,170.454 278.630,171.200 279.400 M210.796 298.300 L 202.600 306.600 210.900 298.404 C 215.465 293.896,219.200 290.161,219.200 290.104 C 219.200 289.819,218.412 290.588,210.796 298.300 M195.203 303.413 C 195.213 304.875,200.731 308.992,201.532 308.135 C 201.979 307.656,201.913 307.607,201.097 307.811 C 200.299 308.012,199.713 307.623,197.667 305.539 C 196.310 304.157,195.201 303.200,195.203 303.413 " stroke="none" fill="#828988" fill-rule="evenodd"></path><path id="path2" d="M204.000 54.034 L 204.000 94.201 254.903 145.103 L 305.805 196.004 345.868 195.902 L 385.931 195.800 294.965 104.833 L 204.000 13.866 204.000 54.034 M105.175 105.176 C 55.689 154.663,15.200 195.253,15.200 195.376 C 15.200 195.499,33.335 195.600,55.501 195.600 L 95.802 195.600 134.201 157.202 C 155.320 136.083,172.825 118.803,173.100 118.802 C 173.375 118.801,173.600 118.599,173.600 118.353 C 173.600 117.771,176.571 114.800,177.153 114.800 C 177.399 114.800,177.600 114.597,177.600 114.348 C 177.600 114.100,181.650 109.844,186.600 104.890 L 195.600 95.883 195.600 55.542 C 195.600 33.354,195.499 15.200,195.375 15.200 C 195.251 15.200,154.661 55.689,105.175 105.176 M199.400 98.614 C 198.960 99.152,198.420 99.594,198.199 99.596 C 197.666 99.601,100.000 197.284,100.000 197.812 C 100.000 198.037,99.640 198.530,99.200 198.907 C 98.243 199.726,98.202 200.145,99.000 200.943 C 99.330 201.273,99.600 201.691,99.600 201.872 C 99.600 202.318,197.708 300.400,198.155 300.400 C 198.349 300.400,198.954 300.881,199.499 301.469 C 200.313 302.348,200.608 302.454,201.145 302.067 C 201.505 301.807,202.013 301.491,202.273 301.365 C 202.861 301.079,301.200 202.765,301.200 202.463 C 301.200 202.342,301.665 201.758,302.233 201.165 C 303.246 200.108,303.252 200.068,302.540 199.143 C 300.742 196.808,201.319 97.602,200.792 97.618 C 200.466 97.629,199.840 98.077,199.400 98.614 M191.200 160.295 C 191.200 160.457,188.727 163.067,185.705 166.095 L 180.211 171.600 169.833 171.600 L 159.454 171.600 153.627 165.804 L 147.800 160.007 169.500 160.004 C 181.435 160.002,191.200 160.133,191.200 160.295 M252.400 160.318 C 252.400 160.494,249.911 163.104,246.868 166.118 L 241.336 171.600 230.995 171.600 L 220.654 171.600 214.827 165.804 L 209.000 160.007 230.700 160.004 C 242.635 160.002,252.400 160.143,252.400 160.318 M151.614 168.000 L 157.200 173.599 157.200 180.910 L 157.200 188.222 156.066 189.411 C 155.442 190.065,153.822 191.674,152.466 192.987 L 150.001 195.374 147.801 193.201 L 145.600 191.027 145.600 176.714 C 145.600 168.841,145.696 162.400,145.814 162.400 C 145.931 162.400,148.541 164.920,151.614 168.000 M212.811 167.983 L 218.400 173.566 218.400 180.964 L 218.400 188.362 215.649 191.081 C 214.136 192.576,212.443 194.220,211.888 194.733 L 210.878 195.667 208.839 193.639 L 206.800 191.610 206.800 177.005 C 206.800 168.972,206.895 162.400,207.011 162.400 C 207.127 162.400,209.737 164.912,212.811 167.983 M255.200 176.911 L 255.200 190.975 253.114 193.087 C 250.509 195.725,250.960 195.817,246.971 191.829 L 243.600 188.457 243.600 180.934 L 243.600 173.410 249.073 167.927 C 252.083 164.911,254.693 162.534,254.873 162.645 C 255.053 162.756,255.200 169.176,255.200 176.911 M194.000 177.286 L 194.000 191.373 192.115 193.286 C 189.664 195.775,189.658 195.773,185.745 191.825 L 182.400 188.450 182.400 180.931 L 182.400 173.413 186.893 168.906 C 189.365 166.428,191.538 164.400,191.722 164.400 C 191.906 164.400,192.327 164.130,192.657 163.800 C 193.923 162.534,194.000 163.304,194.000 177.286 M218.400 214.987 L 218.400 222.590 212.905 228.095 C 209.883 231.123,207.273 233.600,207.105 233.600 C 206.937 233.600,206.800 226.953,206.800 218.828 L 206.800 204.057 208.900 202.045 L 211.000 200.033 214.700 203.709 L 218.400 207.384 218.400 214.987 M153.728 203.948 L 157.200 207.497 157.200 215.021 L 157.200 222.546 151.404 228.373 L 145.607 234.200 145.604 219.413 L 145.600 204.625 147.686 202.513 C 150.260 199.906,149.624 199.755,153.728 203.948 M192.086 202.285 L 194.000 204.170 194.000 218.685 C 194.000 226.668,193.890 233.200,193.755 233.200 C 193.438 233.200,189.634 229.814,185.593 225.936 L 182.400 222.871 182.400 215.056 L 182.400 207.240 185.700 203.859 C 189.596 199.866,189.624 199.859,192.086 202.285 M253.103 202.538 L 255.200 204.676 255.200 219.138 C 255.200 227.750,255.050 233.600,254.829 233.600 C 254.625 233.600,252.015 231.186,249.029 228.236 L 243.600 222.872 243.600 215.066 L 243.600 207.260 246.900 203.857 C 250.834 199.800,250.490 199.874,253.103 202.538 M14.838 204.700 C 15.133 205.085,55.745 245.795,105.087 295.167 L 194.800 384.935 194.800 344.167 L 194.800 303.399 145.099 253.699 L 95.399 204.000 54.850 204.000 C 16.295 204.000,14.328 204.034,14.838 204.700 M254.298 255.523 L 203.196 306.628 203.298 346.714 L 203.400 386.801 294.600 295.600 L 385.799 204.400 345.600 204.409 L 305.400 204.418 254.298 255.523 M185.695 230.295 C 188.723 233.317,191.200 235.927,191.200 236.095 C 191.200 236.263,181.480 236.400,169.600 236.400 C 157.720 236.400,148.000 236.286,148.000 236.146 C 148.000 236.007,150.475 233.416,153.500 230.388 L 159.000 224.884 169.595 224.842 L 180.190 224.800 185.695 230.295 M246.895 230.295 C 249.923 233.317,252.400 235.927,252.400 236.095 C 252.400 236.263,242.680 236.400,230.800 236.400 C 218.920 236.400,209.200 236.296,209.200 236.168 C 209.200 236.041,211.675 233.444,214.700 230.398 L 220.200 224.859 230.795 224.830 L 241.390 224.800 246.895 230.295 " stroke="none" fill="#041c1c" fill-rule="evenodd"></path><path id="path3" d="M184.458 14.607 C 183.796 15.305,183.688 15.600,184.094 15.600 C 184.412 15.600,184.877 15.150,185.127 14.600 C 185.690 13.365,185.635 13.366,184.458 14.607 M195.793 55.600 C 195.793 77.930,195.841 87.065,195.900 75.900 C 195.959 64.735,195.959 46.465,195.900 35.300 C 195.841 24.135,195.793 33.270,195.793 55.600 M190.589 19.300 L 187.800 22.200 190.700 19.411 C 193.394 16.820,193.783 16.400,193.489 16.400 C 193.428 16.400,192.123 17.705,190.589 19.300 M184.786 25.100 L 182.600 27.400 184.900 25.214 C 186.165 24.011,187.200 22.976,187.200 22.914 C 187.200 22.617,186.818 22.963,184.786 25.100 M174.458 24.607 C 173.796 25.305,173.688 25.600,174.094 25.600 C 174.412 25.600,174.877 25.150,175.127 24.600 C 175.690 23.365,175.635 23.366,174.458 24.607 M179.781 30.100 L 178.200 31.800 179.900 30.219 C 180.835 29.349,181.600 28.584,181.600 28.519 C 181.600 28.216,181.252 28.519,179.781 30.100 M169.205 29.991 C 168.859 30.636,168.894 30.739,169.391 30.548 C 169.726 30.420,170.000 30.064,170.000 29.757 C 170.000 28.976,169.701 29.064,169.205 29.991 M175.381 34.500 L 173.800 36.200 175.500 34.619 C 176.435 33.749,177.200 32.984,177.200 32.919 C 177.200 32.616,176.852 32.919,175.381 34.500 M171.978 37.900 L 170.600 39.400 172.100 38.022 C 172.925 37.263,173.600 36.588,173.600 36.522 C 173.600 36.216,173.262 36.504,171.978 37.900 M168.975 40.900 L 167.800 42.200 169.100 41.025 C 170.312 39.930,170.584 39.600,170.275 39.600 C 170.206 39.600,169.621 40.185,168.975 40.900 M154.458 44.607 C 153.796 45.305,153.688 45.600,154.094 45.600 C 154.412 45.600,154.877 45.150,155.127 44.600 C 155.690 43.365,155.635 43.366,154.458 44.607 M159.781 50.100 L 158.200 51.800 159.900 50.219 C 160.835 49.349,161.600 48.584,161.600 48.519 C 161.600 48.216,161.252 48.519,159.781 50.100 M149.101 49.991 C 148.382 50.830,148.596 51.044,149.549 50.440 C 149.851 50.249,150.029 49.888,149.946 49.637 C 149.854 49.361,149.520 49.501,149.101 49.991 M155.381 54.500 L 153.800 56.200 155.500 54.619 C 157.081 53.148,157.384 52.800,157.081 52.800 C 157.016 52.800,156.251 53.565,155.381 54.500 M151.978 57.900 L 150.600 59.400 152.100 58.022 C 152.925 57.263,153.600 56.588,153.600 56.522 C 153.600 56.216,153.262 56.504,151.978 57.900 M139.205 59.991 C 138.859 60.636,138.894 60.739,139.391 60.548 C 139.726 60.420,140.000 60.064,140.000 59.757 C 140.000 58.976,139.701 59.064,139.205 59.991 M145.381 64.500 L 143.800 66.200 145.500 64.619 C 147.081 63.148,147.384 62.800,147.081 62.800 C 147.016 62.800,146.251 63.565,145.381 64.500 M141.978 67.900 L 140.600 69.400 142.100 68.022 C 142.925 67.263,143.600 66.588,143.600 66.522 C 143.600 66.216,143.262 66.504,141.978 67.900 M124.458 74.607 C 123.796 75.305,123.688 75.600,124.094 75.600 C 124.412 75.600,124.877 75.150,125.127 74.600 C 125.690 73.365,125.635 73.366,124.458 74.607 M130.400 79.400 C 128.761 81.050,127.510 82.400,127.620 82.400 C 127.730 82.400,129.161 81.050,130.800 79.400 C 132.439 77.750,133.690 76.400,133.580 76.400 C 133.470 76.400,132.039 77.750,130.400 79.400 M119.205 79.991 C 118.859 80.636,118.894 80.739,119.391 80.548 C 119.726 80.420,120.000 80.064,120.000 79.757 C 120.000 78.976,119.701 79.064,119.205 79.991 M125.381 84.500 L 123.800 86.200 125.500 84.619 C 126.435 83.749,127.200 82.984,127.200 82.919 C 127.200 82.616,126.852 82.919,125.381 84.500 M121.978 87.900 L 120.600 89.400 122.100 88.022 C 122.925 87.263,123.600 86.588,123.600 86.522 C 123.600 86.216,123.262 86.504,121.978 87.900 M104.458 94.607 C 103.796 95.305,103.688 95.600,104.094 95.600 C 104.412 95.600,104.877 95.150,105.127 94.600 C 105.690 93.365,105.635 93.366,104.458 94.607 M110.393 99.500 L 106.200 103.800 110.500 99.607 C 112.865 97.301,114.800 95.366,114.800 95.307 C 114.800 95.018,114.287 95.506,110.393 99.500 M192.985 98.900 L 191.000 101.000 193.100 99.015 C 194.255 97.923,195.200 96.978,195.200 96.915 C 195.200 96.617,194.829 96.949,192.985 98.900 M200.659 97.597 C 201.132 97.788,201.637 98.137,201.783 98.372 C 201.928 98.607,202.241 98.800,202.478 98.800 C 202.714 98.800,202.450 98.440,201.891 98.000 C 201.331 97.560,200.632 97.211,200.337 97.225 C 200.042 97.239,200.187 97.407,200.659 97.597 M183.995 107.900 L 177.400 114.600 184.100 108.005 C 187.785 104.377,190.800 101.362,190.800 101.305 C 190.800 101.019,190.123 101.675,183.995 107.900 M94.458 104.607 C 93.796 105.305,93.688 105.600,94.094 105.600 C 94.412 105.600,94.877 105.150,95.127 104.600 C 95.690 103.365,95.635 103.366,94.458 104.607 M104.181 105.700 L 102.600 107.400 104.300 105.819 C 105.881 104.348,106.184 104.000,105.881 104.000 C 105.816 104.000,105.051 104.765,104.181 105.700 M216.000 107.000 C 216.746 107.770,217.447 108.400,217.557 108.400 C 217.667 108.400,217.146 107.770,216.400 107.000 C 215.654 106.230,214.953 105.600,214.843 105.600 C 214.733 105.600,215.254 106.230,216.000 107.000 M99.781 110.100 L 98.200 111.800 99.900 110.219 C 101.481 108.748,101.784 108.400,101.481 108.400 C 101.416 108.400,100.651 109.165,99.781 110.100 M89.205 109.991 C 88.859 110.636,88.894 110.739,89.391 110.548 C 89.726 110.420,90.000 110.064,90.000 109.757 C 90.000 108.976,89.701 109.064,89.205 109.991 M95.381 114.500 L 93.800 116.200 95.500 114.619 C 97.081 113.148,97.384 112.800,97.081 112.800 C 97.016 112.800,96.251 113.565,95.381 114.500 M91.978 117.900 L 90.600 119.400 92.100 118.022 C 93.496 116.738,93.784 116.400,93.478 116.400 C 93.412 116.400,92.737 117.075,91.978 117.900 M170.786 121.100 L 168.600 123.400 170.900 121.214 C 173.037 119.182,173.383 118.800,173.086 118.800 C 173.024 118.800,171.989 119.835,170.786 121.100 M88.185 121.700 L 86.200 123.800 88.300 121.815 C 90.251 119.971,90.583 119.600,90.285 119.600 C 90.222 119.600,89.277 120.545,88.185 121.700 M84.181 125.700 L 82.600 127.400 84.300 125.819 C 85.881 124.348,86.184 124.000,85.881 124.000 C 85.816 124.000,85.051 124.765,84.181 125.700 M69.776 129.387 C 69.117 129.886,69.099 129.976,69.657 129.987 C 70.019 129.994,70.418 129.730,70.545 129.400 C 70.831 128.655,70.747 128.653,69.776 129.387 M77.578 132.300 L 76.200 133.800 77.700 132.422 C 79.096 131.138,79.384 130.800,79.078 130.800 C 79.012 130.800,78.337 131.475,77.578 132.300 M64.440 134.626 L 63.480 135.638 64.540 135.155 C 65.123 134.889,65.600 134.430,65.600 134.136 C 65.600 133.429,65.559 133.446,64.440 134.626 M74.181 135.700 L 72.600 137.400 74.300 135.819 C 75.881 134.348,76.184 134.000,75.881 134.000 C 75.816 134.000,75.051 134.765,74.181 135.700 M69.781 140.100 L 68.200 141.800 69.900 140.219 C 71.481 138.748,71.784 138.400,71.481 138.400 C 71.416 138.400,70.651 139.165,69.781 140.100 M54.440 144.626 L 53.480 145.638 54.540 145.155 C 55.123 144.889,55.600 144.430,55.600 144.136 C 55.600 143.429,55.559 143.446,54.440 144.626 M61.988 147.900 L 59.400 150.600 62.100 148.012 C 63.585 146.588,64.800 145.373,64.800 145.312 C 64.800 145.017,64.393 145.392,61.988 147.900 M54.181 155.700 L 52.600 157.400 54.300 155.819 C 55.881 154.348,56.184 154.000,55.881 154.000 C 55.816 154.000,55.051 154.765,54.181 155.700 M211.000 162.000 C 211.859 162.880,212.652 163.600,212.762 163.600 C 212.872 163.600,212.259 162.880,211.400 162.000 C 210.541 161.120,209.748 160.400,209.638 160.400 C 209.528 160.400,210.141 161.120,211.000 162.000 M47.578 162.300 L 46.200 163.800 47.700 162.422 C 48.525 161.663,49.200 160.988,49.200 160.922 C 49.200 160.616,48.862 160.904,47.578 162.300 M145.687 177.100 C 145.735 184.965,145.824 189.150,145.885 186.400 C 146.166 173.760,146.173 162.799,145.900 162.800 C 145.735 162.800,145.639 169.235,145.687 177.100 M206.800 177.114 L 206.800 191.427 208.912 193.513 L 211.023 195.598 213.812 192.699 L 216.600 189.800 213.787 192.503 L 210.975 195.205 209.087 193.289 L 207.200 191.373 207.200 177.196 L 207.200 163.020 210.300 166.010 L 213.400 169.000 210.410 165.900 C 208.766 164.195,207.281 162.800,207.110 162.800 C 206.940 162.800,206.800 169.241,206.800 177.114 M34.458 164.607 C 33.796 165.305,33.688 165.600,34.094 165.600 C 34.412 165.600,34.877 165.150,35.127 164.600 C 35.690 163.365,35.635 163.366,34.458 164.607 M148.000 165.000 C 148.746 165.770,149.447 166.400,149.557 166.400 C 149.667 166.400,149.146 165.770,148.400 165.000 C 147.654 164.230,146.953 163.600,146.843 163.600 C 146.733 163.600,147.254 164.230,148.000 165.000 M42.591 167.300 L 39.400 170.600 42.700 167.409 C 44.515 165.655,46.000 164.170,46.000 164.109 C 46.000 163.818,45.554 164.235,42.591 167.300 M217.600 168.600 C 218.346 169.370,219.047 170.000,219.157 170.000 C 219.267 170.000,218.746 169.370,218.000 168.600 C 217.254 167.830,216.553 167.200,216.443 167.200 C 216.333 167.200,216.854 167.830,217.600 168.600 M29.205 169.991 C 28.859 170.636,28.894 170.739,29.391 170.548 C 29.726 170.420,30.000 170.064,30.000 169.757 C 30.000 168.976,29.701 169.064,29.205 169.991 M34.793 175.100 L 30.600 179.400 34.900 175.207 C 38.894 171.313,39.382 170.800,39.093 170.800 C 39.034 170.800,37.099 172.735,34.793 175.100 M182.566 180.800 C 182.566 184.870,182.625 186.535,182.698 184.500 C 182.771 182.465,182.771 179.135,182.698 177.100 C 182.625 175.065,182.566 176.730,182.566 180.800 M19.205 179.991 C 18.859 180.636,18.894 180.739,19.391 180.548 C 19.726 180.420,20.000 180.064,20.000 179.757 C 20.000 178.976,19.701 179.064,19.205 179.991 M26.388 183.500 L 23.800 186.200 26.500 183.612 C 27.985 182.188,29.200 180.973,29.200 180.912 C 29.200 180.617,28.793 180.992,26.388 183.500 M21.978 187.900 L 20.600 189.400 22.100 188.022 C 22.925 187.263,23.600 186.588,23.600 186.522 C 23.600 186.216,23.262 186.504,21.978 187.900 M153.391 191.700 L 150.200 195.000 153.500 191.809 C 155.315 190.055,156.800 188.570,156.800 188.509 C 156.800 188.218,156.354 188.635,153.391 191.700 M184.383 190.100 C 185.364 191.145,186.219 192.000,186.283 192.000 C 186.584 192.000,186.266 191.641,184.500 189.983 L 182.600 188.200 184.383 190.100 M186.800 192.525 C 186.800 192.594,187.385 193.179,188.100 193.825 L 189.400 195.000 188.225 193.700 C 187.130 192.488,186.800 192.216,186.800 192.525 M4.458 194.607 C 3.796 195.305,3.688 195.600,4.094 195.600 C 4.412 195.600,4.877 195.150,5.127 194.600 C 5.690 193.365,5.635 193.366,4.458 194.607 M35.330 195.900 C 46.512 195.959,64.692 195.959,75.730 195.900 C 86.769 195.841,77.620 195.792,55.400 195.792 C 33.180 195.792,24.149 195.841,35.330 195.900 M302.027 201.371 C 301.525 201.906,301.209 202.581,301.326 202.871 C 301.489 203.282,301.544 203.271,301.568 202.826 C 301.586 202.510,301.991 201.835,302.470 201.326 C 302.948 200.817,303.249 200.400,303.139 200.400 C 303.029 200.400,302.529 200.837,302.027 201.371 M185.791 204.100 L 182.600 207.400 185.900 204.209 C 187.715 202.455,189.200 200.970,189.200 200.909 C 189.200 200.618,188.754 201.035,185.791 204.100 M245.600 205.400 C 244.628 206.390,243.923 207.200,244.033 207.200 C 244.143 207.200,245.028 206.390,246.000 205.400 C 246.972 204.410,247.677 203.600,247.567 203.600 C 247.457 203.600,246.572 204.410,245.600 205.400 M145.695 218.900 C 145.606 232.651,145.735 234.599,146.638 233.138 C 146.814 232.854,146.748 232.785,146.467 232.959 C 146.128 233.168,145.981 229.479,145.900 218.721 L 145.790 204.200 145.695 218.900 M206.981 218.800 C 206.981 226.830,207.034 230.115,207.099 226.100 C 207.165 222.085,207.165 215.515,207.099 211.500 C 207.034 207.485,206.981 210.770,206.981 218.800 M182.567 215.000 C 182.567 219.180,182.626 220.836,182.698 218.679 C 182.771 216.523,182.770 213.103,182.698 211.079 C 182.625 209.056,182.566 210.820,182.567 215.000 M103.600 211.800 C 104.346 212.570,105.047 213.200,105.157 213.200 C 105.267 213.200,104.746 212.570,104.000 211.800 C 103.254 211.030,102.553 210.400,102.443 210.400 C 102.333 210.400,102.854 211.030,103.600 211.800 M106.800 215.000 C 107.546 215.770,108.247 216.400,108.357 216.400 C 108.467 216.400,107.946 215.770,107.200 215.000 C 106.454 214.230,105.753 213.600,105.643 213.600 C 105.533 213.600,106.054 214.230,106.800 215.000 M110.783 218.900 C 112.441 220.666,112.800 220.984,112.800 220.683 C 112.800 220.619,111.945 219.764,110.900 218.783 L 109.000 217.000 110.783 218.900 M114.800 223.000 C 115.546 223.770,116.247 224.400,116.357 224.400 C 116.467 224.400,115.946 223.770,115.200 223.000 C 114.454 222.230,113.753 221.600,113.643 221.600 C 113.533 221.600,114.054 222.230,114.800 223.000 M184.383 224.500 C 186.041 226.266,186.400 226.584,186.400 226.283 C 186.400 226.219,185.545 225.364,184.500 224.383 L 182.600 222.600 184.383 224.500 M244.000 222.925 C 244.000 222.994,244.585 223.579,245.300 224.225 L 246.600 225.400 245.425 224.100 C 244.330 222.888,244.000 222.616,244.000 222.925 M155.591 228.700 L 152.200 232.200 155.700 228.809 C 158.951 225.659,159.382 225.200,159.091 225.200 C 159.031 225.200,157.456 226.775,155.591 228.700 M246.794 230.500 L 252.189 236.000 231.020 236.000 L 209.850 236.000 211.025 234.700 L 212.200 233.400 210.900 234.575 C 210.185 235.221,209.600 235.896,209.600 236.075 C 209.600 236.254,219.230 236.400,231.000 236.400 C 242.770 236.400,252.400 236.262,252.400 236.094 C 252.400 235.926,249.925 233.361,246.900 230.394 L 241.400 225.000 246.794 230.500 M186.800 226.925 C 186.800 226.994,187.385 227.579,188.100 228.225 L 189.400 229.400 188.225 228.100 C 187.130 226.888,186.800 226.616,186.800 226.925 M184.600 229.600 C 185.683 230.700,186.660 231.600,186.770 231.600 C 186.880 231.600,186.083 230.700,185.000 229.600 C 183.917 228.500,182.940 227.600,182.830 227.600 C 182.720 227.600,183.517 228.500,184.600 229.600 M251.800 230.800 C 253.328 232.340,254.669 233.600,254.779 233.600 C 254.889 233.600,253.728 232.340,252.200 230.800 C 250.672 229.260,249.331 228.000,249.221 228.000 C 249.111 228.000,250.272 229.260,251.800 230.800 M214.778 230.700 L 213.400 232.200 214.900 230.822 C 216.296 229.538,216.584 229.200,216.278 229.200 C 216.212 229.200,215.537 229.875,214.778 230.700 M188.985 233.900 L 190.970 236.000 169.802 236.000 L 148.633 236.000 150.417 234.100 L 152.200 232.200 150.300 233.983 C 149.255 234.964,148.400 235.909,148.400 236.083 C 148.400 236.257,158.030 236.400,169.800 236.400 C 181.570 236.400,191.200 236.258,191.200 236.085 C 191.200 235.912,190.255 234.877,189.100 233.785 L 187.000 231.800 188.985 233.900 M184.800 293.000 C 185.546 293.770,186.247 294.400,186.357 294.400 C 186.467 294.400,185.946 293.770,185.200 293.000 C 184.454 292.230,183.753 291.600,183.643 291.600 C 183.533 291.600,184.054 292.230,184.800 293.000 M189.000 297.200 C 189.859 298.080,190.652 298.800,190.762 298.800 C 190.872 298.800,190.259 298.080,189.400 297.200 C 188.541 296.320,187.748 295.600,187.638 295.600 C 187.528 295.600,188.141 296.320,189.000 297.200 M192.400 300.600 C 193.146 301.370,193.847 302.000,193.957 302.000 C 194.067 302.000,193.546 301.370,192.800 300.600 C 192.054 299.830,191.353 299.200,191.243 299.200 C 191.133 299.200,191.654 299.830,192.400 300.600 M201.600 301.800 C 201.326 302.130,200.809 302.414,200.451 302.432 C 200.002 302.453,199.962 302.528,200.323 302.673 C 200.611 302.788,201.151 302.617,201.523 302.293 C 201.895 301.969,202.470 301.605,202.800 301.484 C 203.302 301.299,203.293 301.258,202.749 301.232 C 202.391 301.214,201.874 301.470,201.600 301.800 M202.895 346.476 C 202.843 368.628,202.935 386.836,203.100 386.938 C 203.372 387.106,203.369 358.390,203.094 320.600 C 203.037 312.680,202.947 324.324,202.895 346.476 " stroke="none" fill="#46746c" fill-rule="evenodd"></path><path id="path4" d="M203.784 14.100 C 203.680 14.375,203.640 32.600,203.697 54.600 L 203.800 94.600 204.000 54.100 C 204.110 31.825,204.149 13.600,204.087 13.600 C 204.026 13.600,203.889 13.825,203.784 14.100 M194.175 97.300 L 193.000 98.600 194.300 97.425 C 195.015 96.779,195.600 96.194,195.600 96.125 C 195.600 95.816,195.270 96.088,194.175 97.300 M206.800 97.400 C 207.546 98.170,208.247 98.800,208.357 98.800 C 208.467 98.800,207.946 98.170,207.200 97.400 C 206.454 96.630,205.753 96.000,205.643 96.000 C 205.533 96.000,206.054 96.630,206.800 97.400 M252.201 148.400 C 279.480 175.790,301.882 198.148,301.983 198.083 C 302.084 198.019,279.764 175.609,252.384 148.283 L 202.602 98.600 252.201 148.400 M196.962 100.100 C 196.206 100.992,196.207 100.994,197.000 100.352 C 197.440 99.996,198.070 99.605,198.400 99.484 C 198.909 99.297,198.904 99.258,198.362 99.232 C 198.011 99.214,197.381 99.605,196.962 100.100 M213.994 104.500 C 216.961 107.525,219.436 110.000,219.494 110.000 C 219.781 110.000,219.209 109.406,214.100 104.394 L 208.600 99.000 213.994 104.500 M189.978 101.500 L 188.600 103.000 190.100 101.622 C 190.925 100.863,191.600 100.188,191.600 100.122 C 191.600 99.816,191.262 100.104,189.978 101.500 M186.778 104.700 L 185.400 106.200 186.900 104.822 C 187.725 104.063,188.400 103.388,188.400 103.322 C 188.400 103.016,188.062 103.304,186.778 104.700 M188.981 108.100 L 187.400 109.800 189.100 108.219 C 190.681 106.748,190.984 106.400,190.681 106.400 C 190.616 106.400,189.851 107.165,188.981 108.100 M185.578 111.500 L 184.200 113.000 185.700 111.622 C 186.525 110.863,187.200 110.188,187.200 110.122 C 187.200 109.816,186.862 110.104,185.578 111.500 M178.778 112.700 L 177.400 114.200 178.900 112.822 C 179.725 112.063,180.400 111.388,180.400 111.322 C 180.400 111.016,180.062 111.304,178.778 112.700 M181.178 115.900 L 179.800 117.400 181.300 116.022 C 182.125 115.263,182.800 114.588,182.800 114.522 C 182.800 114.216,182.462 114.504,181.178 115.900 M171.178 120.300 L 169.800 121.800 171.300 120.422 C 172.125 119.663,172.800 118.988,172.800 118.922 C 172.800 118.616,172.462 118.904,171.178 120.300 M133.799 157.700 L 98.600 193.000 133.900 157.801 C 153.315 138.441,169.200 122.556,169.200 122.501 C 169.200 122.221,166.522 124.884,133.799 157.700 M169.988 127.100 L 167.400 129.800 170.100 127.212 C 171.585 125.788,172.800 124.573,172.800 124.512 C 172.800 124.217,172.393 124.592,169.988 127.100 M165.578 131.500 L 164.200 133.000 165.700 131.622 C 166.525 130.863,167.200 130.188,167.200 130.122 C 167.200 129.816,166.862 130.104,165.578 131.500 M241.200 131.800 C 241.946 132.570,242.647 133.200,242.757 133.200 C 242.867 133.200,242.346 132.570,241.600 131.800 C 240.854 131.030,240.153 130.400,240.043 130.400 C 239.933 130.400,240.454 131.030,241.200 131.800 M151.178 145.900 L 149.800 147.400 151.300 146.022 C 152.125 145.263,152.800 144.588,152.800 144.522 C 152.800 144.216,152.462 144.504,151.178 145.900 M146.788 150.300 L 144.200 153.000 146.900 150.412 C 148.385 148.988,149.600 147.773,149.600 147.712 C 149.600 147.417,149.193 147.792,146.788 150.300 M142.378 154.700 L 141.000 156.200 142.500 154.822 C 143.896 153.538,144.184 153.200,143.878 153.200 C 143.812 153.200,143.137 153.875,142.378 154.700 M264.400 155.000 C 265.146 155.770,265.847 156.400,265.957 156.400 C 266.067 156.400,265.546 155.770,264.800 155.000 C 264.054 154.230,263.353 153.600,263.243 153.600 C 263.133 153.600,263.654 154.230,264.400 155.000 M135.578 161.500 L 134.200 163.000 135.700 161.622 C 136.525 160.863,137.200 160.188,137.200 160.122 C 137.200 159.816,136.862 160.104,135.578 161.500 M185.606 165.794 L 180.224 171.187 169.812 171.300 L 159.400 171.414 169.805 171.507 L 180.211 171.600 185.800 166.000 C 188.874 162.920,191.299 160.400,191.189 160.400 C 191.079 160.400,188.567 162.827,185.606 165.794 M250.975 161.700 L 249.800 163.000 251.100 161.825 C 251.815 161.179,252.400 160.594,252.400 160.525 C 252.400 160.216,252.070 160.488,250.975 161.700 M272.400 163.000 C 273.146 163.770,273.847 164.400,273.957 164.400 C 274.067 164.400,273.546 163.770,272.800 163.000 C 272.054 162.230,271.353 161.600,271.243 161.600 C 271.133 161.600,271.654 162.230,272.400 163.000 M249.064 167.936 L 243.582 173.428 243.700 181.214 L 243.818 189.000 243.909 181.194 L 244.000 173.389 249.400 168.000 L 254.800 162.611 254.800 176.821 L 254.800 191.030 252.900 192.868 C 251.855 193.878,250.730 194.802,250.400 194.921 C 249.876 195.110,249.878 195.141,250.414 195.168 C 250.751 195.186,251.966 194.249,253.114 193.087 L 255.200 190.975 255.200 176.911 C 255.200 169.176,255.053 162.756,254.873 162.645 C 254.693 162.534,252.079 164.915,249.064 167.936 M193.600 177.480 C 193.490 185.445,193.537 191.823,193.705 191.655 C 193.873 191.487,193.963 184.971,193.905 177.175 L 193.799 163.000 193.600 177.480 M247.978 164.700 L 246.600 166.200 248.100 164.822 C 249.496 163.538,249.784 163.200,249.478 163.200 C 249.412 163.200,248.737 163.875,247.978 164.700 M131.178 165.900 L 129.800 167.400 131.300 166.022 C 132.125 165.263,132.800 164.588,132.800 164.522 C 132.800 164.216,132.462 164.504,131.178 165.900 M186.793 169.100 L 182.200 173.800 186.900 169.207 C 191.266 164.940,191.782 164.400,191.493 164.400 C 191.435 164.400,189.320 166.515,186.793 169.100 M276.800 167.400 C 277.546 168.170,278.247 168.800,278.357 168.800 C 278.467 168.800,277.946 168.170,277.200 167.400 C 276.454 166.630,275.753 166.000,275.643 166.000 C 275.533 166.000,276.054 166.630,276.800 167.400 M244.378 168.300 L 243.000 169.800 244.500 168.422 C 245.896 167.138,246.184 166.800,245.878 166.800 C 245.812 166.800,245.137 167.475,244.378 168.300 M127.781 169.300 L 126.200 171.000 127.900 169.419 C 129.481 167.948,129.784 167.600,129.481 167.600 C 129.416 167.600,128.651 168.365,127.781 169.300 M225.676 171.499 C 228.468 171.567,233.148 171.568,236.076 171.499 C 239.004 171.431,236.720 171.375,231.000 171.374 C 225.280 171.374,222.884 171.430,225.676 171.499 M218.168 181.000 C 218.168 185.400,218.226 187.255,218.298 185.121 C 218.370 182.988,218.370 179.388,218.299 177.121 C 218.227 174.855,218.168 176.600,218.168 181.000 M156.967 181.000 C 156.967 185.180,157.026 186.836,157.098 184.679 C 157.171 182.523,157.170 179.103,157.098 177.079 C 157.025 175.056,156.966 176.820,156.967 181.000 M118.981 178.100 L 117.400 179.800 119.100 178.219 C 120.681 176.748,120.984 176.400,120.681 176.400 C 120.616 176.400,119.851 177.165,118.981 178.100 M288.000 178.600 C 288.746 179.370,289.447 180.000,289.557 180.000 C 289.667 180.000,289.146 179.370,288.400 178.600 C 287.654 177.830,286.953 177.200,286.843 177.200 C 286.733 177.200,287.254 177.830,288.000 178.600 M115.578 181.500 L 114.200 183.000 115.700 181.622 C 116.525 180.863,117.200 180.188,117.200 180.122 C 117.200 179.816,116.862 180.104,115.578 181.500 M111.178 185.900 L 109.800 187.400 111.300 186.022 C 112.125 185.263,112.800 184.588,112.800 184.522 C 112.800 184.216,112.462 184.504,111.178 185.900 M301.800 192.400 C 303.550 194.160,305.071 195.600,305.181 195.600 C 305.291 195.600,303.950 194.160,302.200 192.400 C 300.450 190.640,298.929 189.200,298.819 189.200 C 298.709 189.200,300.050 190.640,301.800 192.400 M96.975 194.500 L 95.800 195.800 97.100 194.625 C 98.312 193.530,98.584 193.200,98.275 193.200 C 98.206 193.200,97.621 193.785,96.975 194.500 M188.162 194.300 C 188.939 195.217,190.172 195.492,190.577 194.837 C 190.700 194.638,190.435 194.570,189.987 194.687 C 189.510 194.812,188.807 194.590,188.287 194.150 L 187.400 193.400 188.162 194.300 M101.178 195.900 L 99.800 197.400 101.300 196.022 C 102.696 194.738,102.984 194.400,102.678 194.400 C 102.612 194.400,101.937 195.075,101.178 195.900 M345.800 196.000 L 305.400 196.206 345.676 196.303 C 372.201 196.367,386.037 196.263,386.200 196.000 C 386.336 195.780,386.392 195.644,386.324 195.697 C 386.256 195.751,368.020 195.887,345.800 196.000 M189.400 200.683 C 189.840 200.788,190.965 201.615,191.900 202.520 L 193.600 204.167 193.695 218.783 L 193.790 233.400 193.900 218.819 L 194.010 204.238 192.120 202.319 C 190.997 201.179,189.899 200.419,189.415 200.446 C 188.613 200.492,188.613 200.496,189.400 200.683 M250.400 200.681 C 250.730 200.802,251.540 201.372,252.200 201.950 L 253.400 203.000 252.225 201.700 C 251.579 200.985,250.769 200.414,250.425 200.432 C 249.887 200.459,249.883 200.493,250.400 200.681 M99.232 201.601 C 99.185 202.492,197.778 300.948,198.450 300.681 C 198.886 300.508,198.876 300.457,198.399 300.432 C 197.738 300.397,99.815 202.566,99.475 201.600 C 99.287 201.067,99.260 201.067,99.232 201.601 M254.095 203.826 C 254.722 204.572,254.801 206.069,254.900 219.226 L 255.010 233.800 255.105 219.162 L 255.200 204.524 254.300 203.762 C 253.402 203.002,253.402 203.002,254.095 203.826 M14.228 203.955 C 14.107 204.150,14.322 204.555,14.704 204.855 C 15.333 205.348,15.348 205.333,14.853 204.702 C 14.333 204.039,16.354 203.999,55.053 203.900 L 95.800 203.796 55.124 203.698 C 31.783 203.642,14.354 203.751,14.228 203.955 M109.000 217.600 C 116.257 224.860,122.285 230.800,122.395 230.800 C 122.505 230.800,116.657 224.860,109.400 217.600 C 102.143 210.340,96.115 204.400,96.005 204.400 C 95.895 204.400,101.743 210.340,109.000 217.600 M302.786 206.700 L 300.600 209.000 302.900 206.814 C 304.165 205.611,305.200 204.576,305.200 204.514 C 305.200 204.217,304.818 204.563,302.786 206.700 M217.291 206.622 C 217.884 207.327,217.999 208.548,218.100 215.222 L 218.218 223.000 218.309 215.162 C 218.398 207.472,218.383 207.310,217.500 206.562 C 216.603 205.802,216.602 205.803,217.291 206.622 M243.769 215.000 C 243.770 219.620,243.828 221.455,243.899 219.078 C 243.970 216.701,243.969 212.921,243.898 210.678 C 243.827 208.435,243.769 210.380,243.769 215.000 M156.967 215.000 C 156.967 219.180,157.026 220.836,157.098 218.679 C 157.171 216.523,157.170 213.103,157.098 211.079 C 157.025 209.056,156.966 210.820,156.967 215.000 M286.788 217.100 L 284.200 219.800 286.900 217.212 C 289.408 214.807,289.783 214.400,289.488 214.400 C 289.427 214.400,288.212 215.615,286.788 217.100 M164.100 225.099 C 167.125 225.167,172.075 225.167,175.100 225.099 C 178.125 225.031,175.650 224.975,169.600 224.975 C 163.550 224.975,161.075 225.031,164.100 225.099 M225.300 225.099 C 228.325 225.167,233.275 225.167,236.300 225.099 C 239.325 225.031,236.850 224.975,230.800 224.975 C 224.750 224.975,222.275 225.031,225.300 225.099 M275.578 228.300 L 274.200 229.800 275.700 228.422 C 277.096 227.138,277.384 226.800,277.078 226.800 C 277.012 226.800,276.337 227.475,275.578 228.300 M124.600 233.200 C 125.683 234.300,126.660 235.200,126.770 235.200 C 126.880 235.200,126.083 234.300,125.000 233.200 C 123.917 232.100,122.940 231.200,122.830 231.200 C 122.720 231.200,123.517 232.100,124.600 233.200 M267.978 235.900 L 266.600 237.400 268.100 236.022 C 269.496 234.738,269.784 234.400,269.478 234.400 C 269.412 234.400,268.737 235.075,267.978 235.900 M128.400 237.000 C 129.146 237.770,129.847 238.400,129.957 238.400 C 130.067 238.400,129.546 237.770,128.800 237.000 C 128.054 236.230,127.353 235.600,127.243 235.600 C 127.133 235.600,127.654 236.230,128.400 237.000 M132.200 240.800 C 133.283 241.900,134.260 242.800,134.370 242.800 C 134.480 242.800,133.683 241.900,132.600 240.800 C 131.517 239.700,130.540 238.800,130.430 238.800 C 130.320 238.800,131.117 239.700,132.200 240.800 M136.600 245.200 C 137.683 246.300,138.660 247.200,138.770 247.200 C 138.880 247.200,138.083 246.300,137.000 245.200 C 135.917 244.100,134.940 243.200,134.830 243.200 C 134.720 243.200,135.517 244.100,136.600 245.200 M255.578 248.300 L 254.200 249.800 255.700 248.422 C 257.096 247.138,257.384 246.800,257.078 246.800 C 257.012 246.800,256.337 247.475,255.578 248.300 M142.200 250.800 C 143.950 252.560,145.471 254.000,145.581 254.000 C 145.691 254.000,144.350 252.560,142.600 250.800 C 140.850 249.040,139.329 247.600,139.219 247.600 C 139.109 247.600,140.450 249.040,142.200 250.800 M147.800 256.400 C 148.883 257.500,149.860 258.400,149.970 258.400 C 150.080 258.400,149.283 257.500,148.200 256.400 C 147.117 255.300,146.140 254.400,146.030 254.400 C 145.920 254.400,146.717 255.300,147.800 256.400 M247.978 255.900 L 246.600 257.400 248.100 256.022 C 249.496 254.738,249.784 254.400,249.478 254.400 C 249.412 254.400,248.737 255.075,247.978 255.900 M152.200 260.800 C 153.283 261.900,154.260 262.800,154.370 262.800 C 154.480 262.800,153.683 261.900,152.600 260.800 C 151.517 259.700,150.540 258.800,150.430 258.800 C 150.320 258.800,151.117 259.700,152.200 260.800 M156.000 264.600 C 156.746 265.370,157.447 266.000,157.557 266.000 C 157.667 266.000,157.146 265.370,156.400 264.600 C 155.654 263.830,154.953 263.200,154.843 263.200 C 154.733 263.200,155.254 263.830,156.000 264.600 M236.788 267.100 L 234.200 269.800 236.900 267.212 C 238.385 265.788,239.600 264.573,239.600 264.512 C 239.600 264.217,239.193 264.592,236.788 267.100 M159.400 268.000 C 160.259 268.880,161.052 269.600,161.162 269.600 C 161.272 269.600,160.659 268.880,159.800 268.000 C 158.941 267.120,158.148 266.400,158.038 266.400 C 157.928 266.400,158.541 267.120,159.400 268.000 M163.400 272.000 C 164.483 273.100,165.460 274.000,165.570 274.000 C 165.680 274.000,164.883 273.100,163.800 272.000 C 162.717 270.900,161.740 270.000,161.630 270.000 C 161.520 270.000,162.317 270.900,163.400 272.000 M167.200 275.800 C 167.946 276.570,168.647 277.200,168.757 277.200 C 168.867 277.200,168.346 276.570,167.600 275.800 C 166.854 275.030,166.153 274.400,166.043 274.400 C 165.933 274.400,166.454 275.030,167.200 275.800 M171.600 280.200 C 172.346 280.970,173.047 281.600,173.157 281.600 C 173.267 281.600,172.746 280.970,172.000 280.200 C 171.254 279.430,170.553 278.800,170.443 278.800 C 170.333 278.800,170.854 279.430,171.600 280.200 M175.000 283.600 C 175.859 284.480,176.652 285.200,176.762 285.200 C 176.872 285.200,176.259 284.480,175.400 283.600 C 174.541 282.720,173.748 282.000,173.638 282.000 C 173.528 282.000,174.141 282.720,175.000 283.600 M217.978 285.900 L 216.600 287.400 218.100 286.022 C 219.496 284.738,219.784 284.400,219.478 284.400 C 219.412 284.400,218.737 285.075,217.978 285.900 M185.898 294.401 L 194.796 303.403 194.900 344.201 L 195.004 385.000 195.102 344.197 L 195.200 303.393 186.100 294.397 L 177.000 285.400 185.898 294.401 M216.788 292.700 L 214.200 295.400 216.900 292.812 C 218.385 291.388,219.600 290.173,219.600 290.112 C 219.600 289.817,219.193 290.192,216.788 292.700 M211.785 297.700 L 209.800 299.800 211.900 297.815 C 213.851 295.971,214.183 295.600,213.885 295.600 C 213.822 295.600,212.877 296.545,211.785 297.700 M205.578 298.300 L 204.200 299.800 205.700 298.422 C 207.096 297.138,207.384 296.800,207.078 296.800 C 207.012 296.800,206.337 297.475,205.578 298.300 M207.978 301.500 L 206.600 303.000 208.100 301.622 C 209.496 300.338,209.784 300.000,209.478 300.000 C 209.412 300.000,208.737 300.675,207.978 301.500 M204.581 304.900 L 203.000 306.600 204.700 305.019 C 206.281 303.548,206.584 303.200,206.281 303.200 C 206.216 303.200,205.451 303.965,204.581 304.900 " stroke="none" fill="#446c6c" fill-rule="evenodd"></path></g></svg>